G04 (created by PCBNEW (2013-07-07 BZR 4022)-stable) date 8/21/2014 1:45:18 PM*
%MOIN*%
G04 Gerber Fmt 3.4, Leading zero omitted, Abs format*
%FSLAX34Y34*%
G01*
G70*
G90*
G04 APERTURE LIST*
%ADD10C,0.00590551*%
%ADD11C,0.15748*%
%ADD12C,0.066*%
%ADD13R,0.0787402X0.0787402*%
%ADD14C,0.0787402*%
%ADD15R,0.0669291X0.0669291*%
%ADD16C,0.0669291*%
%ADD17C,0.0590551*%
%ADD18C,0.1*%
%ADD19R,0.0708661X0.0708661*%
%ADD20C,0.0708661*%
%ADD21C,0.11811*%
%ADD22R,0.0629921X0.0629921*%
%ADD23C,0.0629921*%
%ADD24C,0.215*%
%ADD25R,0.0590551X0.0590551*%
%ADD26C,0.06*%
%ADD27C,0.16*%
%ADD28C,0.0984252*%
%ADD29C,0.0393701*%
%ADD30C,0.023622*%
%ADD31C,0.0472441*%
%ADD32C,0.01*%
G04 APERTURE END LIST*
G54D10*
G54D11*
X40975Y-60500D03*
G54D12*
X62460Y-49726D03*
X62460Y-50726D03*
X62519Y-45149D03*
X62519Y-46149D03*
G54D13*
X53789Y-19659D03*
G54D14*
X53789Y-20659D03*
X53789Y-21659D03*
G54D13*
X60561Y-19659D03*
G54D14*
X60561Y-20659D03*
X60561Y-21659D03*
G54D13*
X63907Y-19659D03*
G54D14*
X63907Y-20659D03*
X63907Y-21659D03*
G54D13*
X57273Y-19659D03*
G54D14*
X57273Y-20659D03*
X57273Y-21659D03*
G54D15*
X52411Y-59589D03*
G54D16*
X51411Y-59589D03*
X50411Y-59589D03*
X49411Y-59589D03*
X48411Y-59589D03*
G54D17*
X55393Y-25657D03*
X55393Y-19657D03*
X58161Y-43346D03*
X64161Y-43346D03*
X58828Y-25657D03*
X58828Y-19657D03*
X58161Y-47913D03*
X64161Y-47913D03*
X62194Y-25657D03*
X62194Y-19657D03*
X65511Y-25657D03*
X65511Y-19657D03*
X50850Y-56300D03*
X56850Y-56300D03*
G54D18*
X59400Y-56700D03*
X61400Y-54700D03*
X59392Y-54714D03*
X61400Y-56700D03*
G54D19*
X60478Y-33744D03*
G54D20*
X60478Y-34744D03*
X60478Y-35744D03*
X60478Y-36744D03*
X60478Y-37744D03*
X60478Y-38744D03*
X60478Y-39744D03*
X60478Y-40744D03*
X63478Y-40744D03*
X63478Y-39744D03*
X63478Y-38744D03*
X63478Y-37744D03*
X63478Y-36744D03*
X63478Y-35744D03*
X63478Y-34744D03*
X63478Y-33744D03*
G54D21*
X54881Y-16550D03*
X56850Y-16550D03*
X58818Y-16550D03*
X60787Y-16550D03*
X62755Y-16550D03*
G54D22*
X64370Y-52511D03*
G54D23*
X64370Y-53511D03*
G54D24*
X44793Y-57724D03*
X44793Y-46724D03*
G54D25*
X45293Y-54224D03*
G54D17*
X44293Y-54224D03*
X45293Y-53224D03*
X44293Y-53224D03*
X45293Y-52224D03*
X44293Y-52224D03*
X45293Y-51224D03*
X44293Y-51224D03*
X45293Y-50224D03*
X44293Y-50224D03*
G54D22*
X43743Y-40289D03*
G54D23*
X43743Y-41289D03*
X43743Y-42289D03*
X43743Y-43289D03*
G54D11*
X65800Y-60484D03*
G54D15*
X43743Y-31460D03*
G54D16*
X43743Y-32460D03*
X43743Y-33460D03*
X43743Y-34460D03*
X43743Y-35460D03*
X43743Y-36460D03*
X43743Y-37460D03*
X43743Y-38460D03*
G54D26*
X58255Y-52549D03*
X62255Y-52549D03*
G54D16*
X50177Y-15314D03*
X50177Y-18464D03*
X50177Y-20038D03*
X50177Y-19251D03*
X50177Y-16889D03*
X50177Y-17676D03*
X50177Y-16101D03*
X50177Y-21613D03*
X50177Y-22401D03*
X50177Y-20826D03*
X41515Y-20826D03*
X41515Y-22401D03*
X41515Y-21613D03*
X41515Y-16101D03*
X41515Y-17676D03*
X41515Y-16889D03*
X41515Y-19251D03*
X41515Y-20038D03*
X41515Y-18464D03*
X41515Y-15314D03*
G54D26*
X49881Y-31635D03*
X49881Y-27635D03*
X59732Y-31624D03*
X63732Y-31624D03*
X48503Y-31635D03*
X48503Y-27635D03*
X47116Y-31635D03*
X47116Y-27635D03*
X52360Y-31437D03*
X56360Y-31437D03*
G54D12*
X54045Y-29200D03*
X54045Y-28200D03*
X61003Y-29200D03*
X61003Y-28200D03*
X57657Y-29200D03*
X57657Y-28200D03*
X64360Y-29200D03*
X64360Y-28200D03*
G54D20*
X44192Y-27738D03*
X44192Y-28738D03*
G54D27*
X65767Y-13316D03*
X41072Y-13336D03*
G54D19*
X42027Y-27659D03*
G54D20*
X42027Y-28659D03*
G54D19*
X65225Y-57350D03*
G54D20*
X65225Y-56350D03*
G54D19*
X56041Y-53161D03*
G54D20*
X56041Y-52161D03*
X56041Y-51161D03*
X56041Y-50161D03*
X56041Y-49161D03*
X56041Y-48161D03*
X56041Y-47161D03*
X56041Y-46161D03*
X56041Y-45161D03*
X56041Y-44161D03*
X56041Y-43161D03*
X56041Y-42161D03*
X56041Y-41161D03*
X56041Y-40161D03*
X56041Y-39161D03*
X56041Y-38161D03*
X56041Y-37161D03*
X56041Y-36161D03*
X56041Y-35161D03*
X56041Y-34161D03*
X50041Y-34161D03*
X50041Y-35161D03*
X50041Y-36161D03*
X50041Y-37161D03*
X50041Y-38161D03*
X50041Y-39161D03*
X50041Y-40161D03*
X50041Y-41161D03*
X50041Y-42161D03*
X50041Y-43161D03*
X50041Y-44161D03*
X50041Y-45161D03*
X50041Y-46161D03*
X50041Y-47161D03*
X50041Y-48161D03*
X50041Y-49161D03*
X50041Y-50161D03*
X50041Y-51161D03*
X50041Y-52161D03*
X50041Y-53161D03*
G54D28*
X62168Y-59800D03*
X58231Y-59800D03*
X60200Y-59800D03*
X56262Y-59800D03*
G54D29*
X48411Y-59589D02*
X48411Y-55938D01*
X50041Y-54308D02*
X50041Y-53161D01*
X48411Y-55938D02*
X50041Y-54308D01*
X48411Y-59589D02*
X43089Y-59589D01*
X43500Y-51224D02*
X44293Y-51224D01*
X42200Y-52525D02*
X43500Y-51224D01*
X42200Y-58700D02*
X42200Y-52525D01*
X43089Y-59589D02*
X42200Y-58700D01*
G54D30*
X56011Y-52181D02*
X57608Y-52181D01*
X59950Y-36744D02*
X60478Y-36744D01*
X59525Y-37169D02*
X59950Y-36744D01*
X59525Y-50263D02*
X59525Y-37169D01*
X57608Y-52181D02*
X59525Y-50263D01*
X56011Y-51181D02*
X57179Y-51181D01*
X59698Y-35744D02*
X60478Y-35744D01*
X59189Y-36253D02*
X59698Y-35744D01*
X59189Y-49170D02*
X59189Y-36253D01*
X57179Y-51181D02*
X59189Y-49170D01*
X56011Y-50181D02*
X57387Y-50181D01*
X59852Y-34744D02*
X60478Y-34744D01*
X58769Y-35826D02*
X59852Y-34744D01*
X58769Y-48799D02*
X58769Y-35826D01*
X57387Y-50181D02*
X58769Y-48799D01*
G54D29*
X45293Y-51224D02*
X45812Y-51224D01*
X48966Y-46181D02*
X50011Y-46181D01*
X46309Y-48838D02*
X48966Y-46181D01*
X46309Y-50728D02*
X46309Y-48838D01*
X45812Y-51224D02*
X46309Y-50728D01*
X45293Y-52224D02*
X46043Y-52224D01*
X48980Y-47181D02*
X50011Y-47181D01*
X47234Y-48927D02*
X48980Y-47181D01*
X47234Y-51033D02*
X47234Y-48927D01*
X46043Y-52224D02*
X47234Y-51033D01*
X45293Y-53224D02*
X46381Y-53224D01*
X49102Y-48181D02*
X50011Y-48181D01*
X47933Y-49350D02*
X49102Y-48181D01*
X47933Y-51673D02*
X47933Y-49350D01*
X46381Y-53224D02*
X47933Y-51673D01*
X45293Y-54224D02*
X46356Y-54224D01*
X49352Y-49181D02*
X50011Y-49181D01*
X48838Y-49694D02*
X49352Y-49181D01*
X48838Y-51742D02*
X48838Y-49694D01*
X46356Y-54224D02*
X48838Y-51742D01*
X56011Y-46181D02*
X56429Y-46181D01*
X56429Y-46181D02*
X58161Y-47913D01*
X59392Y-54714D02*
X59392Y-53042D01*
X58899Y-52549D02*
X58255Y-52549D01*
X59392Y-53042D02*
X58899Y-52549D01*
X50850Y-56300D02*
X50850Y-54400D01*
X52088Y-53161D02*
X56041Y-53161D01*
X50850Y-54400D02*
X52088Y-53161D01*
X50411Y-59589D02*
X50411Y-56738D01*
X50411Y-56738D02*
X50850Y-56300D01*
X56011Y-53181D02*
X57624Y-53181D01*
X57624Y-53181D02*
X58255Y-52549D01*
X50041Y-38161D02*
X51179Y-38161D01*
X52360Y-36980D02*
X52360Y-31437D01*
X51179Y-38161D02*
X52360Y-36980D01*
X63907Y-19659D02*
X65509Y-19659D01*
X65509Y-19659D02*
X65511Y-19657D01*
X60561Y-19659D02*
X62192Y-19659D01*
X62192Y-19659D02*
X62194Y-19657D01*
X57273Y-19659D02*
X58826Y-19659D01*
X58826Y-19659D02*
X58828Y-19657D01*
X53789Y-19659D02*
X55391Y-19659D01*
X55391Y-19659D02*
X55393Y-19657D01*
G54D31*
X43743Y-34460D02*
X44535Y-34460D01*
X44561Y-31460D02*
X43743Y-31460D01*
X45157Y-32057D02*
X44561Y-31460D01*
X45157Y-33838D02*
X45157Y-32057D01*
X44535Y-34460D02*
X45157Y-33838D01*
X63907Y-21659D02*
X63907Y-26057D01*
X62168Y-57906D02*
X62168Y-59800D01*
X65425Y-54650D02*
X62168Y-57906D01*
X65425Y-27575D02*
X65425Y-54650D01*
X63907Y-26057D02*
X65425Y-27575D01*
X60561Y-21659D02*
X63907Y-21659D01*
X57273Y-21659D02*
X60561Y-21659D01*
X53789Y-21659D02*
X57273Y-21659D01*
G54D29*
X58231Y-59800D02*
X58231Y-60231D01*
X65225Y-58725D02*
X65225Y-57350D01*
X63000Y-60950D02*
X65225Y-58725D01*
X58950Y-60950D02*
X63000Y-60950D01*
X58231Y-60231D02*
X58950Y-60950D01*
X48503Y-31635D02*
X49881Y-31635D01*
X47116Y-31635D02*
X48503Y-31635D01*
X44192Y-27738D02*
X45011Y-27738D01*
X47116Y-29842D02*
X47116Y-31635D01*
X45011Y-27738D02*
X47116Y-29842D01*
X41515Y-15314D02*
X42555Y-15314D01*
X44192Y-16952D02*
X44192Y-27738D01*
X42555Y-15314D02*
X44192Y-16952D01*
X56230Y-33267D02*
X56250Y-33267D01*
X56230Y-33267D02*
X55078Y-33267D01*
X55078Y-33267D02*
X53198Y-35147D01*
X53198Y-35147D02*
X53198Y-38188D01*
X53198Y-38188D02*
X52226Y-39161D01*
X50041Y-39161D02*
X52226Y-39161D01*
X60529Y-28200D02*
X61003Y-28200D01*
X59596Y-29133D02*
X60529Y-28200D01*
X59596Y-29921D02*
X59596Y-29133D01*
X56250Y-33267D02*
X59596Y-29921D01*
X56360Y-31437D02*
X56938Y-31437D01*
X58190Y-28200D02*
X57657Y-28200D01*
X58562Y-28572D02*
X58190Y-28200D01*
X58562Y-29812D02*
X58562Y-28572D01*
X56938Y-31437D02*
X58562Y-29812D01*
X43743Y-43289D02*
X49903Y-43289D01*
X49903Y-43289D02*
X50011Y-43181D01*
X43743Y-42289D02*
X49903Y-42289D01*
X49903Y-42289D02*
X50011Y-42181D01*
X43743Y-41289D02*
X49903Y-41289D01*
X49903Y-41289D02*
X50011Y-41181D01*
X43743Y-40289D02*
X49903Y-40289D01*
X49903Y-40289D02*
X50011Y-40181D01*
X43743Y-38460D02*
X45840Y-38460D01*
X49120Y-35181D02*
X50011Y-35181D01*
X45840Y-38460D02*
X49120Y-35181D01*
X53789Y-20659D02*
X55541Y-20659D01*
X56269Y-17937D02*
X54881Y-16550D01*
X56269Y-19931D02*
X56269Y-17937D01*
X55541Y-20659D02*
X56269Y-19931D01*
X63732Y-31624D02*
X63732Y-29828D01*
X63732Y-29828D02*
X64360Y-29200D01*
X64372Y-29212D02*
X64360Y-29200D01*
X42027Y-27659D02*
X42027Y-23665D01*
X41831Y-18464D02*
X41515Y-18464D01*
X42484Y-19118D02*
X41831Y-18464D01*
X42484Y-23208D02*
X42484Y-19118D01*
X42027Y-23665D02*
X42484Y-23208D01*
X57273Y-20659D02*
X58956Y-20659D01*
X56973Y-16550D02*
X56850Y-16550D01*
X59537Y-19114D02*
X56973Y-16550D01*
X59537Y-20078D02*
X59537Y-19114D01*
X58956Y-20659D02*
X59537Y-20078D01*
X62255Y-52549D02*
X64332Y-52549D01*
X64332Y-52549D02*
X64370Y-52511D01*
X49881Y-27635D02*
X49881Y-28011D01*
X51070Y-29200D02*
X54045Y-29200D01*
X49881Y-28011D02*
X51070Y-29200D01*
X50177Y-19251D02*
X51259Y-19251D01*
X52145Y-26301D02*
X54045Y-28200D01*
X52145Y-20137D02*
X52145Y-26301D01*
X51259Y-19251D02*
X52145Y-20137D01*
X55393Y-25657D02*
X55393Y-26131D01*
X62206Y-36744D02*
X63478Y-36744D01*
X61771Y-36309D02*
X62206Y-36744D01*
X61771Y-27805D02*
X61771Y-36309D01*
X61072Y-27106D02*
X61771Y-27805D01*
X56368Y-27106D02*
X61072Y-27106D01*
X55393Y-26131D02*
X56368Y-27106D01*
X62460Y-49726D02*
X62460Y-49614D01*
X62460Y-49614D02*
X64161Y-47913D01*
X62519Y-45149D02*
X62519Y-44988D01*
X62519Y-44988D02*
X64161Y-43346D01*
X58828Y-25657D02*
X60618Y-25657D01*
X62411Y-34677D02*
X63478Y-35744D01*
X62411Y-27450D02*
X62411Y-34677D01*
X60618Y-25657D02*
X62411Y-27450D01*
X43743Y-37460D02*
X45875Y-37460D01*
X49155Y-34181D02*
X50011Y-34181D01*
X45875Y-37460D02*
X49155Y-34181D01*
G54D10*
G36*
X66738Y-60038D02*
X66679Y-59897D01*
X66388Y-59605D01*
X66057Y-59468D01*
X66057Y-25549D01*
X66057Y-19549D01*
X65974Y-19349D01*
X65821Y-19195D01*
X65620Y-19112D01*
X65403Y-19112D01*
X65203Y-19194D01*
X65185Y-19212D01*
X64549Y-19212D01*
X64513Y-19124D01*
X64442Y-19053D01*
X64351Y-19015D01*
X64251Y-19015D01*
X63599Y-19015D01*
X63599Y-16701D01*
X63593Y-16366D01*
X63477Y-16087D01*
X63351Y-16024D01*
X63281Y-16095D01*
X63281Y-15953D01*
X63218Y-15828D01*
X62907Y-15706D01*
X62572Y-15712D01*
X62293Y-15828D01*
X62230Y-15953D01*
X62755Y-16479D01*
X63281Y-15953D01*
X63281Y-16095D01*
X62826Y-16550D01*
X63351Y-17075D01*
X63477Y-17012D01*
X63599Y-16701D01*
X63599Y-19015D01*
X63464Y-19015D01*
X63372Y-19053D01*
X63301Y-19123D01*
X63281Y-19173D01*
X63281Y-17146D01*
X62755Y-16620D01*
X62685Y-16691D01*
X62685Y-16550D01*
X62159Y-16024D01*
X62034Y-16087D01*
X61912Y-16398D01*
X61918Y-16733D01*
X62034Y-17012D01*
X62159Y-17075D01*
X62685Y-16550D01*
X62685Y-16691D01*
X62230Y-17146D01*
X62293Y-17271D01*
X62604Y-17393D01*
X62939Y-17387D01*
X63218Y-17271D01*
X63281Y-17146D01*
X63281Y-19173D01*
X63263Y-19215D01*
X63263Y-19315D01*
X63263Y-20102D01*
X63301Y-20194D01*
X63371Y-20264D01*
X63385Y-20270D01*
X63362Y-20294D01*
X63263Y-20530D01*
X63263Y-20786D01*
X63361Y-21023D01*
X63497Y-21159D01*
X63483Y-21173D01*
X60985Y-21173D01*
X60971Y-21159D01*
X61106Y-21024D01*
X61204Y-20788D01*
X61204Y-20531D01*
X61107Y-20295D01*
X61082Y-20270D01*
X61096Y-20265D01*
X61166Y-20194D01*
X61203Y-20106D01*
X61872Y-20106D01*
X61885Y-20119D01*
X62085Y-20202D01*
X62302Y-20202D01*
X62503Y-20120D01*
X62656Y-19966D01*
X62740Y-19766D01*
X62740Y-19549D01*
X62657Y-19349D01*
X62504Y-19195D01*
X62303Y-19112D01*
X62086Y-19112D01*
X61886Y-19194D01*
X61868Y-19212D01*
X61628Y-19212D01*
X61628Y-16383D01*
X61500Y-16074D01*
X61264Y-15837D01*
X60955Y-15709D01*
X60620Y-15709D01*
X60311Y-15837D01*
X60075Y-16073D01*
X59946Y-16382D01*
X59946Y-16716D01*
X60074Y-17025D01*
X60310Y-17262D01*
X60619Y-17390D01*
X60953Y-17390D01*
X61262Y-17263D01*
X61499Y-17026D01*
X61627Y-16717D01*
X61628Y-16383D01*
X61628Y-19212D01*
X61203Y-19212D01*
X61166Y-19124D01*
X61096Y-19053D01*
X61004Y-19015D01*
X60905Y-19015D01*
X60117Y-19015D01*
X60025Y-19053D01*
X59981Y-19098D01*
X59981Y-19098D01*
X59950Y-18943D01*
X59853Y-18798D01*
X59853Y-18798D01*
X59659Y-18604D01*
X59659Y-16383D01*
X59531Y-16074D01*
X59295Y-15837D01*
X58986Y-15709D01*
X58652Y-15709D01*
X58343Y-15837D01*
X58106Y-16073D01*
X57978Y-16382D01*
X57978Y-16716D01*
X58105Y-17025D01*
X58342Y-17262D01*
X58650Y-17390D01*
X58985Y-17390D01*
X59294Y-17263D01*
X59531Y-17026D01*
X59659Y-16717D01*
X59659Y-16383D01*
X59659Y-18604D01*
X57690Y-16635D01*
X57691Y-16383D01*
X57563Y-16074D01*
X57327Y-15837D01*
X57018Y-15709D01*
X56683Y-15709D01*
X56374Y-15837D01*
X56138Y-16073D01*
X56009Y-16382D01*
X56009Y-16716D01*
X56137Y-17025D01*
X56373Y-17262D01*
X56682Y-17390D01*
X57016Y-17390D01*
X57133Y-17342D01*
X58903Y-19112D01*
X58720Y-19112D01*
X58520Y-19194D01*
X58502Y-19212D01*
X57915Y-19212D01*
X57879Y-19124D01*
X57809Y-19053D01*
X57717Y-19015D01*
X57617Y-19015D01*
X56830Y-19015D01*
X56738Y-19053D01*
X56716Y-19075D01*
X56716Y-17937D01*
X56716Y-17937D01*
X56682Y-17766D01*
X56585Y-17621D01*
X56585Y-17621D01*
X55710Y-16746D01*
X55722Y-16717D01*
X55722Y-16383D01*
X55594Y-16074D01*
X55358Y-15837D01*
X55049Y-15709D01*
X54715Y-15709D01*
X54406Y-15837D01*
X54169Y-16073D01*
X54041Y-16382D01*
X54041Y-16716D01*
X54168Y-17025D01*
X54405Y-17262D01*
X54713Y-17390D01*
X55048Y-17390D01*
X55078Y-17378D01*
X55822Y-18122D01*
X55822Y-19315D01*
X55702Y-19195D01*
X55502Y-19112D01*
X55285Y-19112D01*
X55085Y-19194D01*
X55067Y-19212D01*
X54431Y-19212D01*
X54395Y-19124D01*
X54324Y-19053D01*
X54233Y-19015D01*
X54133Y-19015D01*
X53346Y-19015D01*
X53254Y-19053D01*
X53183Y-19123D01*
X53145Y-19215D01*
X53145Y-19315D01*
X53145Y-20102D01*
X53183Y-20194D01*
X53253Y-20264D01*
X53267Y-20270D01*
X53243Y-20294D01*
X53145Y-20530D01*
X53145Y-20786D01*
X53243Y-21023D01*
X53379Y-21159D01*
X53243Y-21294D01*
X53145Y-21530D01*
X53145Y-21786D01*
X53243Y-22023D01*
X53424Y-22204D01*
X53660Y-22303D01*
X53916Y-22303D01*
X54153Y-22205D01*
X54213Y-22145D01*
X56849Y-22145D01*
X56908Y-22204D01*
X57145Y-22303D01*
X57401Y-22303D01*
X57637Y-22205D01*
X57697Y-22145D01*
X60136Y-22145D01*
X60195Y-22204D01*
X60432Y-22303D01*
X60688Y-22303D01*
X60925Y-22205D01*
X60985Y-22145D01*
X63421Y-22145D01*
X63421Y-26057D01*
X63458Y-26243D01*
X63563Y-26401D01*
X64938Y-27776D01*
X64938Y-28155D01*
X64934Y-28059D01*
X64866Y-27894D01*
X64767Y-27863D01*
X64697Y-27934D01*
X64697Y-27793D01*
X64666Y-27694D01*
X64449Y-27616D01*
X64218Y-27626D01*
X64054Y-27694D01*
X64023Y-27793D01*
X64360Y-28130D01*
X64697Y-27793D01*
X64697Y-27934D01*
X64430Y-28200D01*
X64767Y-28537D01*
X64866Y-28506D01*
X64938Y-28306D01*
X64938Y-29082D01*
X64852Y-28872D01*
X64689Y-28709D01*
X64668Y-28700D01*
X64697Y-28608D01*
X64360Y-28271D01*
X64289Y-28342D01*
X64289Y-28200D01*
X63952Y-27863D01*
X63854Y-27894D01*
X63775Y-28111D01*
X63786Y-28342D01*
X63854Y-28506D01*
X63952Y-28537D01*
X64289Y-28200D01*
X64289Y-28342D01*
X64023Y-28608D01*
X64052Y-28700D01*
X64032Y-28708D01*
X63868Y-28871D01*
X63780Y-29084D01*
X63780Y-29148D01*
X63416Y-29512D01*
X63319Y-29657D01*
X63285Y-29828D01*
X63285Y-31292D01*
X63266Y-31312D01*
X63182Y-31514D01*
X63182Y-31732D01*
X63265Y-31935D01*
X63420Y-32090D01*
X63622Y-32173D01*
X63841Y-32174D01*
X64043Y-32090D01*
X64198Y-31935D01*
X64282Y-31733D01*
X64282Y-31515D01*
X64198Y-31312D01*
X64179Y-31293D01*
X64179Y-30013D01*
X64412Y-29780D01*
X64475Y-29780D01*
X64688Y-29692D01*
X64851Y-29529D01*
X64938Y-29319D01*
X64938Y-53576D01*
X64935Y-53499D01*
X64935Y-52777D01*
X64935Y-52147D01*
X64897Y-52055D01*
X64826Y-51985D01*
X64734Y-51946D01*
X64706Y-51946D01*
X64706Y-47805D01*
X64706Y-43238D01*
X64623Y-43037D01*
X64470Y-42884D01*
X64270Y-42801D01*
X64082Y-42801D01*
X64082Y-40624D01*
X63990Y-40402D01*
X63832Y-40243D01*
X63990Y-40086D01*
X64082Y-39864D01*
X64082Y-39624D01*
X63990Y-39402D01*
X63832Y-39243D01*
X63990Y-39086D01*
X64082Y-38864D01*
X64082Y-38624D01*
X63990Y-38402D01*
X63832Y-38243D01*
X63990Y-38086D01*
X64082Y-37864D01*
X64082Y-37624D01*
X63990Y-37402D01*
X63832Y-37243D01*
X63990Y-37086D01*
X64082Y-36864D01*
X64082Y-36624D01*
X63990Y-36402D01*
X63832Y-36243D01*
X63990Y-36086D01*
X64082Y-35864D01*
X64082Y-35624D01*
X63990Y-35402D01*
X63832Y-35243D01*
X63990Y-35086D01*
X64082Y-34864D01*
X64082Y-34624D01*
X63990Y-34402D01*
X63832Y-34243D01*
X63990Y-34086D01*
X64082Y-33864D01*
X64082Y-33624D01*
X63990Y-33402D01*
X63821Y-33232D01*
X63599Y-33139D01*
X63358Y-33139D01*
X63136Y-33231D01*
X62966Y-33401D01*
X62874Y-33623D01*
X62873Y-33863D01*
X62965Y-34085D01*
X63123Y-34244D01*
X62966Y-34401D01*
X62907Y-34541D01*
X62858Y-34492D01*
X62858Y-27450D01*
X62858Y-27450D01*
X62824Y-27279D01*
X62740Y-27154D01*
X62740Y-25549D01*
X62657Y-25349D01*
X62504Y-25195D01*
X62303Y-25112D01*
X62086Y-25112D01*
X61886Y-25194D01*
X61732Y-25348D01*
X61649Y-25548D01*
X61649Y-25765D01*
X61732Y-25965D01*
X61885Y-26119D01*
X62085Y-26202D01*
X62302Y-26202D01*
X62503Y-26120D01*
X62656Y-25966D01*
X62740Y-25766D01*
X62740Y-25549D01*
X62740Y-27154D01*
X62727Y-27134D01*
X62727Y-27134D01*
X60934Y-25341D01*
X60789Y-25244D01*
X60618Y-25210D01*
X59153Y-25210D01*
X59138Y-25195D01*
X58937Y-25112D01*
X58720Y-25112D01*
X58520Y-25194D01*
X58366Y-25348D01*
X58283Y-25548D01*
X58283Y-25765D01*
X58366Y-25965D01*
X58519Y-26119D01*
X58719Y-26202D01*
X58936Y-26202D01*
X59137Y-26120D01*
X59152Y-26104D01*
X60433Y-26104D01*
X60988Y-26659D01*
X56553Y-26659D01*
X55857Y-25963D01*
X55938Y-25766D01*
X55939Y-25549D01*
X55856Y-25349D01*
X55702Y-25195D01*
X55502Y-25112D01*
X55285Y-25112D01*
X55085Y-25194D01*
X54931Y-25348D01*
X54848Y-25548D01*
X54848Y-25765D01*
X54931Y-25965D01*
X54946Y-25981D01*
X54946Y-26131D01*
X54980Y-26302D01*
X55077Y-26447D01*
X56052Y-27422D01*
X56052Y-27422D01*
X56197Y-27519D01*
X56368Y-27553D01*
X60887Y-27553D01*
X60955Y-27620D01*
X60889Y-27620D01*
X60675Y-27708D01*
X60630Y-27753D01*
X60529Y-27753D01*
X60358Y-27787D01*
X60213Y-27884D01*
X59280Y-28817D01*
X59183Y-28962D01*
X59149Y-29133D01*
X59149Y-29736D01*
X58994Y-29891D01*
X59009Y-29812D01*
X59009Y-29812D01*
X59009Y-28572D01*
X59009Y-28572D01*
X58975Y-28401D01*
X58878Y-28256D01*
X58878Y-28256D01*
X58506Y-27884D01*
X58361Y-27787D01*
X58190Y-27753D01*
X58030Y-27753D01*
X57986Y-27709D01*
X57773Y-27620D01*
X57542Y-27620D01*
X57329Y-27708D01*
X57166Y-27871D01*
X57077Y-28084D01*
X57077Y-28315D01*
X57165Y-28528D01*
X57328Y-28692D01*
X57348Y-28700D01*
X57329Y-28708D01*
X57166Y-28871D01*
X57077Y-29084D01*
X57077Y-29315D01*
X57165Y-29528D01*
X57328Y-29692D01*
X57541Y-29780D01*
X57772Y-29780D01*
X57985Y-29692D01*
X58116Y-29562D01*
X58116Y-29627D01*
X56753Y-30990D01*
X56691Y-30990D01*
X56672Y-30971D01*
X56470Y-30887D01*
X56251Y-30886D01*
X56049Y-30970D01*
X55894Y-31125D01*
X55810Y-31327D01*
X55810Y-31545D01*
X55893Y-31748D01*
X56048Y-31903D01*
X56250Y-31986D01*
X56469Y-31987D01*
X56671Y-31903D01*
X56691Y-31883D01*
X56938Y-31883D01*
X57017Y-31868D01*
X56064Y-32820D01*
X55078Y-32820D01*
X54907Y-32854D01*
X54762Y-32951D01*
X54625Y-33089D01*
X54625Y-29085D01*
X54537Y-28872D01*
X54374Y-28709D01*
X54353Y-28700D01*
X54373Y-28692D01*
X54536Y-28529D01*
X54625Y-28316D01*
X54625Y-28085D01*
X54537Y-27872D01*
X54374Y-27709D01*
X54161Y-27620D01*
X54097Y-27620D01*
X52592Y-26116D01*
X52592Y-20137D01*
X52592Y-20137D01*
X52558Y-19966D01*
X52461Y-19821D01*
X52461Y-19821D01*
X51575Y-18935D01*
X51430Y-18839D01*
X51259Y-18805D01*
X50664Y-18805D01*
X50672Y-18796D01*
X50762Y-18581D01*
X50762Y-18349D01*
X50673Y-18134D01*
X50610Y-18070D01*
X50672Y-18008D01*
X50762Y-17793D01*
X50762Y-17561D01*
X50673Y-17346D01*
X50610Y-17283D01*
X50672Y-17221D01*
X50762Y-17006D01*
X50762Y-16774D01*
X50673Y-16559D01*
X50610Y-16495D01*
X50672Y-16433D01*
X50762Y-16218D01*
X50762Y-15986D01*
X50673Y-15771D01*
X50610Y-15708D01*
X50672Y-15646D01*
X50762Y-15431D01*
X50762Y-15199D01*
X50673Y-14984D01*
X50509Y-14819D01*
X50294Y-14730D01*
X50061Y-14730D01*
X49846Y-14819D01*
X49682Y-14983D01*
X49592Y-15198D01*
X49592Y-15430D01*
X49681Y-15645D01*
X49744Y-15708D01*
X49682Y-15770D01*
X49592Y-15985D01*
X49592Y-16217D01*
X49681Y-16432D01*
X49744Y-16495D01*
X49682Y-16558D01*
X49592Y-16773D01*
X49592Y-17005D01*
X49681Y-17220D01*
X49744Y-17283D01*
X49682Y-17345D01*
X49592Y-17560D01*
X49592Y-17792D01*
X49681Y-18007D01*
X49744Y-18070D01*
X49682Y-18133D01*
X49592Y-18348D01*
X49592Y-18580D01*
X49681Y-18795D01*
X49744Y-18858D01*
X49682Y-18920D01*
X49592Y-19135D01*
X49592Y-19367D01*
X49681Y-19582D01*
X49744Y-19645D01*
X49682Y-19707D01*
X49592Y-19922D01*
X49592Y-20154D01*
X49681Y-20369D01*
X49744Y-20432D01*
X49682Y-20495D01*
X49592Y-20710D01*
X49592Y-20942D01*
X49681Y-21157D01*
X49744Y-21220D01*
X49682Y-21282D01*
X49592Y-21497D01*
X49592Y-21729D01*
X49681Y-21944D01*
X49744Y-22007D01*
X49682Y-22070D01*
X49592Y-22285D01*
X49592Y-22517D01*
X49681Y-22732D01*
X49845Y-22897D01*
X50060Y-22986D01*
X50293Y-22986D01*
X50508Y-22897D01*
X50672Y-22733D01*
X50762Y-22518D01*
X50762Y-22286D01*
X50673Y-22071D01*
X50610Y-22007D01*
X50672Y-21945D01*
X50762Y-21730D01*
X50762Y-21498D01*
X50673Y-21283D01*
X50610Y-21220D01*
X50672Y-21158D01*
X50762Y-20943D01*
X50762Y-20711D01*
X50673Y-20496D01*
X50610Y-20432D01*
X50672Y-20370D01*
X50762Y-20155D01*
X50762Y-19923D01*
X50673Y-19708D01*
X50663Y-19698D01*
X51074Y-19698D01*
X51698Y-20322D01*
X51698Y-26301D01*
X51732Y-26472D01*
X51829Y-26617D01*
X53465Y-28252D01*
X53465Y-28315D01*
X53553Y-28528D01*
X53716Y-28692D01*
X53736Y-28700D01*
X53717Y-28708D01*
X53671Y-28753D01*
X51255Y-28753D01*
X50377Y-27875D01*
X50431Y-27745D01*
X50431Y-27526D01*
X50348Y-27324D01*
X50193Y-27169D01*
X49991Y-27085D01*
X49772Y-27085D01*
X49570Y-27169D01*
X49415Y-27323D01*
X49331Y-27525D01*
X49331Y-27744D01*
X49415Y-27946D01*
X49435Y-27966D01*
X49435Y-28011D01*
X49469Y-28182D01*
X49565Y-28327D01*
X50754Y-29516D01*
X50754Y-29516D01*
X50899Y-29613D01*
X51070Y-29647D01*
X51070Y-29647D01*
X53671Y-29647D01*
X53716Y-29692D01*
X53929Y-29780D01*
X54160Y-29780D01*
X54373Y-29692D01*
X54536Y-29529D01*
X54625Y-29316D01*
X54625Y-29085D01*
X54625Y-33089D01*
X52882Y-34831D01*
X52807Y-34945D01*
X52807Y-31768D01*
X52826Y-31748D01*
X52910Y-31546D01*
X52910Y-31328D01*
X52826Y-31125D01*
X52672Y-30971D01*
X52470Y-30887D01*
X52251Y-30886D01*
X52049Y-30970D01*
X51894Y-31125D01*
X51810Y-31327D01*
X51810Y-31545D01*
X51893Y-31748D01*
X51913Y-31767D01*
X51913Y-36795D01*
X50994Y-37714D01*
X50449Y-37714D01*
X50395Y-37661D01*
X50553Y-37504D01*
X50645Y-37282D01*
X50645Y-37041D01*
X50553Y-36819D01*
X50395Y-36661D01*
X50553Y-36504D01*
X50645Y-36282D01*
X50645Y-36041D01*
X50553Y-35819D01*
X50395Y-35661D01*
X50553Y-35504D01*
X50645Y-35282D01*
X50645Y-35041D01*
X50553Y-34819D01*
X50395Y-34661D01*
X50553Y-34504D01*
X50645Y-34282D01*
X50645Y-34041D01*
X50553Y-33819D01*
X50431Y-33697D01*
X50431Y-31526D01*
X50348Y-31324D01*
X50193Y-31169D01*
X49991Y-31085D01*
X49772Y-31085D01*
X49570Y-31169D01*
X49551Y-31188D01*
X49054Y-31188D01*
X49054Y-27526D01*
X48970Y-27324D01*
X48815Y-27169D01*
X48613Y-27085D01*
X48395Y-27085D01*
X48192Y-27169D01*
X48037Y-27323D01*
X47954Y-27525D01*
X47953Y-27744D01*
X48037Y-27946D01*
X48191Y-28101D01*
X48394Y-28185D01*
X48612Y-28185D01*
X48815Y-28102D01*
X48969Y-27947D01*
X49053Y-27745D01*
X49054Y-27526D01*
X49054Y-31188D01*
X48835Y-31188D01*
X48815Y-31169D01*
X48613Y-31085D01*
X48395Y-31085D01*
X48192Y-31169D01*
X48173Y-31188D01*
X47666Y-31188D01*
X47666Y-27526D01*
X47582Y-27324D01*
X47428Y-27169D01*
X47226Y-27085D01*
X47007Y-27085D01*
X46804Y-27169D01*
X46650Y-27323D01*
X46566Y-27525D01*
X46566Y-27744D01*
X46649Y-27946D01*
X46804Y-28101D01*
X47006Y-28185D01*
X47225Y-28185D01*
X47427Y-28102D01*
X47582Y-27947D01*
X47666Y-27745D01*
X47666Y-27526D01*
X47666Y-31188D01*
X47562Y-31188D01*
X47562Y-29842D01*
X47528Y-29671D01*
X47432Y-29526D01*
X47432Y-29526D01*
X45327Y-27422D01*
X45182Y-27325D01*
X45011Y-27291D01*
X44639Y-27291D01*
X44639Y-16952D01*
X44605Y-16781D01*
X44508Y-16636D01*
X42871Y-14998D01*
X42726Y-14902D01*
X42555Y-14868D01*
X41895Y-14868D01*
X41847Y-14819D01*
X41632Y-14730D01*
X41399Y-14730D01*
X41184Y-14819D01*
X41020Y-14983D01*
X40930Y-15198D01*
X40930Y-15430D01*
X41019Y-15645D01*
X41082Y-15708D01*
X41020Y-15770D01*
X40930Y-15985D01*
X40930Y-16217D01*
X41019Y-16432D01*
X41082Y-16495D01*
X41020Y-16558D01*
X40930Y-16773D01*
X40930Y-17005D01*
X41019Y-17220D01*
X41082Y-17283D01*
X41020Y-17345D01*
X40930Y-17560D01*
X40930Y-17792D01*
X41019Y-18007D01*
X41082Y-18070D01*
X41020Y-18133D01*
X40930Y-18348D01*
X40930Y-18580D01*
X41019Y-18795D01*
X41082Y-18858D01*
X41020Y-18920D01*
X40930Y-19135D01*
X40930Y-19367D01*
X41019Y-19582D01*
X41082Y-19645D01*
X41020Y-19707D01*
X40930Y-19922D01*
X40930Y-20154D01*
X41019Y-20369D01*
X41082Y-20432D01*
X41020Y-20495D01*
X40930Y-20710D01*
X40930Y-20942D01*
X41019Y-21157D01*
X41082Y-21220D01*
X41020Y-21282D01*
X40930Y-21497D01*
X40930Y-21729D01*
X41019Y-21944D01*
X41075Y-22000D01*
X41059Y-22016D01*
X41104Y-22061D01*
X41005Y-22093D01*
X40926Y-22311D01*
X40936Y-22544D01*
X41005Y-22710D01*
X41104Y-22742D01*
X41444Y-22401D01*
X41439Y-22396D01*
X41509Y-22325D01*
X41515Y-22331D01*
X41521Y-22325D01*
X41591Y-22396D01*
X41586Y-22401D01*
X41926Y-22742D01*
X42025Y-22710D01*
X42037Y-22677D01*
X42037Y-23023D01*
X41855Y-23205D01*
X41855Y-22812D01*
X41515Y-22472D01*
X41444Y-22543D01*
X41175Y-22812D01*
X41206Y-22911D01*
X41425Y-22991D01*
X41657Y-22980D01*
X41824Y-22911D01*
X41855Y-22812D01*
X41855Y-23205D01*
X41711Y-23349D01*
X41614Y-23494D01*
X41580Y-23665D01*
X41580Y-27072D01*
X41531Y-27093D01*
X41461Y-27163D01*
X41423Y-27255D01*
X41423Y-27354D01*
X41423Y-28063D01*
X41461Y-28155D01*
X41531Y-28225D01*
X41573Y-28243D01*
X41557Y-28259D01*
X41602Y-28304D01*
X41501Y-28338D01*
X41418Y-28564D01*
X41428Y-28804D01*
X41501Y-28979D01*
X41602Y-29013D01*
X41956Y-28659D01*
X41951Y-28653D01*
X42021Y-28583D01*
X42027Y-28588D01*
X42033Y-28583D01*
X42103Y-28653D01*
X42098Y-28659D01*
X42452Y-29013D01*
X42553Y-28979D01*
X42636Y-28754D01*
X42626Y-28513D01*
X42553Y-28338D01*
X42452Y-28304D01*
X42497Y-28259D01*
X42481Y-28243D01*
X42523Y-28225D01*
X42593Y-28155D01*
X42631Y-28063D01*
X42631Y-27964D01*
X42631Y-27255D01*
X42593Y-27163D01*
X42523Y-27093D01*
X42474Y-27072D01*
X42474Y-23850D01*
X42800Y-23524D01*
X42800Y-23524D01*
X42897Y-23379D01*
X42931Y-23208D01*
X42931Y-23208D01*
X42931Y-19118D01*
X42897Y-18947D01*
X42800Y-18802D01*
X42147Y-18148D01*
X42002Y-18052D01*
X41972Y-18046D01*
X42010Y-18008D01*
X42100Y-17793D01*
X42100Y-17561D01*
X42011Y-17346D01*
X41948Y-17283D01*
X42010Y-17221D01*
X42100Y-17006D01*
X42100Y-16774D01*
X42011Y-16559D01*
X41948Y-16495D01*
X42010Y-16433D01*
X42100Y-16218D01*
X42100Y-15986D01*
X42011Y-15771D01*
X42001Y-15761D01*
X42370Y-15761D01*
X43746Y-17137D01*
X43746Y-27330D01*
X43680Y-27395D01*
X43588Y-27617D01*
X43588Y-27857D01*
X43680Y-28080D01*
X43850Y-28250D01*
X43858Y-28253D01*
X43838Y-28312D01*
X44192Y-28667D01*
X44547Y-28312D01*
X44527Y-28253D01*
X44534Y-28250D01*
X44600Y-28185D01*
X44826Y-28185D01*
X46669Y-30027D01*
X46669Y-31304D01*
X46650Y-31323D01*
X46566Y-31525D01*
X46566Y-31744D01*
X46649Y-31946D01*
X46804Y-32101D01*
X47006Y-32185D01*
X47225Y-32185D01*
X47427Y-32102D01*
X47447Y-32082D01*
X48172Y-32082D01*
X48191Y-32101D01*
X48394Y-32185D01*
X48612Y-32185D01*
X48815Y-32102D01*
X48834Y-32082D01*
X49550Y-32082D01*
X49569Y-32101D01*
X49772Y-32185D01*
X49990Y-32185D01*
X50193Y-32102D01*
X50347Y-31947D01*
X50431Y-31745D01*
X50431Y-31526D01*
X50431Y-33697D01*
X50384Y-33649D01*
X50162Y-33557D01*
X49921Y-33556D01*
X49699Y-33648D01*
X49613Y-33734D01*
X49155Y-33734D01*
X48984Y-33768D01*
X48839Y-33865D01*
X45690Y-37013D01*
X45643Y-37013D01*
X45643Y-33838D01*
X45643Y-32057D01*
X45606Y-31871D01*
X45501Y-31713D01*
X45501Y-31713D01*
X44904Y-31116D01*
X44801Y-31047D01*
X44801Y-28832D01*
X44791Y-28592D01*
X44719Y-28417D01*
X44618Y-28383D01*
X44263Y-28738D01*
X44618Y-29092D01*
X44719Y-29058D01*
X44801Y-28832D01*
X44801Y-31047D01*
X44747Y-31011D01*
X44561Y-30974D01*
X44547Y-30974D01*
X44547Y-29163D01*
X44192Y-28808D01*
X44122Y-28879D01*
X44122Y-28738D01*
X43767Y-28383D01*
X43666Y-28417D01*
X43584Y-28643D01*
X43594Y-28883D01*
X43666Y-29058D01*
X43767Y-29092D01*
X44122Y-28738D01*
X44122Y-28879D01*
X43838Y-29163D01*
X43872Y-29264D01*
X44098Y-29347D01*
X44338Y-29336D01*
X44513Y-29264D01*
X44547Y-29163D01*
X44547Y-30974D01*
X44279Y-30974D01*
X44219Y-30914D01*
X44127Y-30876D01*
X44028Y-30875D01*
X43359Y-30875D01*
X43267Y-30913D01*
X43196Y-30984D01*
X43158Y-31076D01*
X43158Y-31175D01*
X43158Y-31844D01*
X43196Y-31936D01*
X43266Y-32007D01*
X43358Y-32045D01*
X43404Y-32045D01*
X43403Y-32049D01*
X43743Y-32389D01*
X44083Y-32049D01*
X44082Y-32045D01*
X44127Y-32045D01*
X44219Y-32007D01*
X44279Y-31946D01*
X44359Y-31946D01*
X44671Y-32258D01*
X44671Y-33637D01*
X44334Y-33974D01*
X44332Y-33974D01*
X44332Y-33550D01*
X44332Y-32550D01*
X44322Y-32318D01*
X44253Y-32151D01*
X44154Y-32120D01*
X43814Y-32460D01*
X44154Y-32800D01*
X44253Y-32769D01*
X44332Y-32550D01*
X44332Y-33550D01*
X44322Y-33318D01*
X44253Y-33151D01*
X44154Y-33120D01*
X44083Y-33191D01*
X44083Y-33049D01*
X44055Y-32960D01*
X44083Y-32871D01*
X43743Y-32531D01*
X43672Y-32602D01*
X43672Y-32460D01*
X43332Y-32120D01*
X43233Y-32151D01*
X43154Y-32370D01*
X43164Y-32602D01*
X43233Y-32769D01*
X43332Y-32800D01*
X43672Y-32460D01*
X43672Y-32602D01*
X43403Y-32871D01*
X43431Y-32960D01*
X43403Y-33049D01*
X43743Y-33389D01*
X44083Y-33049D01*
X44083Y-33191D01*
X43814Y-33460D01*
X44154Y-33800D01*
X44253Y-33769D01*
X44332Y-33550D01*
X44332Y-33974D01*
X44084Y-33974D01*
X44074Y-33965D01*
X44056Y-33957D01*
X44083Y-33871D01*
X43743Y-33531D01*
X43672Y-33602D01*
X43672Y-33460D01*
X43332Y-33120D01*
X43233Y-33151D01*
X43154Y-33370D01*
X43164Y-33602D01*
X43233Y-33769D01*
X43332Y-33800D01*
X43672Y-33460D01*
X43672Y-33602D01*
X43403Y-33871D01*
X43430Y-33957D01*
X43412Y-33964D01*
X43247Y-34129D01*
X43158Y-34343D01*
X43158Y-34576D01*
X43247Y-34791D01*
X43411Y-34955D01*
X43430Y-34963D01*
X43403Y-35049D01*
X43743Y-35389D01*
X44083Y-35049D01*
X44056Y-34963D01*
X44074Y-34956D01*
X44083Y-34946D01*
X44535Y-34946D01*
X44721Y-34909D01*
X44879Y-34804D01*
X45501Y-34182D01*
X45606Y-34024D01*
X45643Y-33838D01*
X45643Y-37013D01*
X44332Y-37013D01*
X44332Y-35550D01*
X44322Y-35318D01*
X44253Y-35151D01*
X44154Y-35120D01*
X43814Y-35460D01*
X44154Y-35800D01*
X44253Y-35769D01*
X44332Y-35550D01*
X44332Y-37013D01*
X44123Y-37013D01*
X44074Y-36965D01*
X44063Y-36960D01*
X44074Y-36956D01*
X44238Y-36792D01*
X44327Y-36577D01*
X44328Y-36344D01*
X44239Y-36129D01*
X44074Y-35965D01*
X44056Y-35957D01*
X44083Y-35871D01*
X43743Y-35531D01*
X43672Y-35602D01*
X43672Y-35460D01*
X43332Y-35120D01*
X43233Y-35151D01*
X43154Y-35370D01*
X43164Y-35602D01*
X43233Y-35769D01*
X43332Y-35800D01*
X43672Y-35460D01*
X43672Y-35602D01*
X43403Y-35871D01*
X43430Y-35957D01*
X43412Y-35964D01*
X43247Y-36129D01*
X43158Y-36343D01*
X43158Y-36576D01*
X43247Y-36791D01*
X43411Y-36955D01*
X43422Y-36960D01*
X43412Y-36964D01*
X43247Y-37129D01*
X43158Y-37343D01*
X43158Y-37576D01*
X43247Y-37791D01*
X43411Y-37955D01*
X43422Y-37960D01*
X43412Y-37964D01*
X43247Y-38129D01*
X43158Y-38343D01*
X43158Y-38576D01*
X43247Y-38791D01*
X43411Y-38955D01*
X43626Y-39045D01*
X43859Y-39045D01*
X44074Y-38956D01*
X44123Y-38907D01*
X45840Y-38907D01*
X46011Y-38873D01*
X46011Y-38873D01*
X46156Y-38776D01*
X49305Y-35627D01*
X49653Y-35627D01*
X49686Y-35661D01*
X49529Y-35818D01*
X49437Y-36040D01*
X49436Y-36281D01*
X49528Y-36503D01*
X49686Y-36661D01*
X49529Y-36818D01*
X49437Y-37040D01*
X49436Y-37281D01*
X49528Y-37503D01*
X49686Y-37661D01*
X49529Y-37818D01*
X49437Y-38040D01*
X49436Y-38281D01*
X49528Y-38503D01*
X49686Y-38661D01*
X49529Y-38818D01*
X49437Y-39040D01*
X49436Y-39281D01*
X49528Y-39503D01*
X49686Y-39661D01*
X49529Y-39818D01*
X49519Y-39842D01*
X44274Y-39842D01*
X44270Y-39832D01*
X44200Y-39762D01*
X44108Y-39724D01*
X44008Y-39724D01*
X43378Y-39724D01*
X43286Y-39762D01*
X43216Y-39832D01*
X43178Y-39924D01*
X43178Y-40023D01*
X43178Y-40653D01*
X43216Y-40745D01*
X43286Y-40816D01*
X43378Y-40854D01*
X43379Y-40854D01*
X43264Y-40968D01*
X43178Y-41176D01*
X43178Y-41401D01*
X43264Y-41608D01*
X43422Y-41768D01*
X43474Y-41789D01*
X43423Y-41810D01*
X43264Y-41968D01*
X43178Y-42176D01*
X43178Y-42401D01*
X43264Y-42608D01*
X43422Y-42768D01*
X43474Y-42789D01*
X43423Y-42810D01*
X43264Y-42968D01*
X43178Y-43176D01*
X43178Y-43401D01*
X43264Y-43608D01*
X43422Y-43768D01*
X43630Y-43854D01*
X43855Y-43854D01*
X44062Y-43768D01*
X44095Y-43736D01*
X49596Y-43736D01*
X49570Y-43761D01*
X49616Y-43806D01*
X49515Y-43840D01*
X49432Y-44066D01*
X49442Y-44306D01*
X49515Y-44481D01*
X49616Y-44515D01*
X49970Y-44161D01*
X49965Y-44155D01*
X50035Y-44085D01*
X50041Y-44090D01*
X50395Y-43736D01*
X50375Y-43677D01*
X50383Y-43674D01*
X50553Y-43504D01*
X50645Y-43282D01*
X50645Y-43041D01*
X50553Y-42819D01*
X50395Y-42661D01*
X50553Y-42504D01*
X50645Y-42282D01*
X50645Y-42041D01*
X50553Y-41819D01*
X50395Y-41661D01*
X50553Y-41504D01*
X50645Y-41282D01*
X50645Y-41041D01*
X50553Y-40819D01*
X50395Y-40661D01*
X50553Y-40504D01*
X50645Y-40282D01*
X50645Y-40041D01*
X50553Y-39819D01*
X50395Y-39661D01*
X50449Y-39608D01*
X52226Y-39608D01*
X52397Y-39574D01*
X52397Y-39574D01*
X52542Y-39477D01*
X53514Y-38504D01*
X53514Y-38504D01*
X53611Y-38359D01*
X53645Y-38188D01*
X53645Y-38188D01*
X53645Y-35332D01*
X55263Y-33714D01*
X55633Y-33714D01*
X55529Y-33818D01*
X55437Y-34040D01*
X55436Y-34281D01*
X55528Y-34503D01*
X55686Y-34661D01*
X55529Y-34818D01*
X55437Y-35040D01*
X55436Y-35281D01*
X55528Y-35503D01*
X55686Y-35661D01*
X55529Y-35818D01*
X55437Y-36040D01*
X55436Y-36281D01*
X55528Y-36503D01*
X55686Y-36661D01*
X55529Y-36818D01*
X55437Y-37040D01*
X55436Y-37281D01*
X55528Y-37503D01*
X55686Y-37661D01*
X55529Y-37818D01*
X55437Y-38040D01*
X55436Y-38281D01*
X55528Y-38503D01*
X55686Y-38661D01*
X55529Y-38818D01*
X55437Y-39040D01*
X55436Y-39281D01*
X55528Y-39503D01*
X55686Y-39661D01*
X55529Y-39818D01*
X55437Y-40040D01*
X55436Y-40281D01*
X55528Y-40503D01*
X55686Y-40661D01*
X55529Y-40818D01*
X55437Y-41040D01*
X55436Y-41281D01*
X55528Y-41503D01*
X55698Y-41673D01*
X55706Y-41676D01*
X55686Y-41736D01*
X56041Y-42090D01*
X56395Y-41736D01*
X56375Y-41677D01*
X56383Y-41674D01*
X56553Y-41504D01*
X56645Y-41282D01*
X56645Y-41041D01*
X56553Y-40819D01*
X56395Y-40661D01*
X56553Y-40504D01*
X56645Y-40282D01*
X56645Y-40041D01*
X56553Y-39819D01*
X56395Y-39661D01*
X56553Y-39504D01*
X56645Y-39282D01*
X56645Y-39041D01*
X56553Y-38819D01*
X56395Y-38661D01*
X56553Y-38504D01*
X56645Y-38282D01*
X56645Y-38041D01*
X56553Y-37819D01*
X56395Y-37661D01*
X56553Y-37504D01*
X56645Y-37282D01*
X56645Y-37041D01*
X56553Y-36819D01*
X56395Y-36661D01*
X56553Y-36504D01*
X56645Y-36282D01*
X56645Y-36041D01*
X56553Y-35819D01*
X56395Y-35661D01*
X56553Y-35504D01*
X56645Y-35282D01*
X56645Y-35041D01*
X56553Y-34819D01*
X56395Y-34661D01*
X56553Y-34504D01*
X56645Y-34282D01*
X56645Y-34041D01*
X56553Y-33819D01*
X56416Y-33681D01*
X56421Y-33680D01*
X56421Y-33680D01*
X56565Y-33583D01*
X59912Y-30237D01*
X60009Y-30092D01*
X60009Y-30092D01*
X60043Y-29921D01*
X60043Y-29318D01*
X60672Y-28689D01*
X60674Y-28692D01*
X60695Y-28700D01*
X60675Y-28708D01*
X60512Y-28871D01*
X60424Y-29084D01*
X60423Y-29315D01*
X60511Y-29528D01*
X60674Y-29692D01*
X60888Y-29780D01*
X61118Y-29780D01*
X61324Y-29695D01*
X61324Y-36309D01*
X61358Y-36480D01*
X61455Y-36625D01*
X61890Y-37060D01*
X61890Y-37060D01*
X62035Y-37156D01*
X62206Y-37190D01*
X62206Y-37190D01*
X63070Y-37190D01*
X63123Y-37244D01*
X62966Y-37401D01*
X62874Y-37623D01*
X62873Y-37863D01*
X62965Y-38085D01*
X63123Y-38244D01*
X62966Y-38401D01*
X62874Y-38623D01*
X62873Y-38863D01*
X62965Y-39085D01*
X63123Y-39244D01*
X62966Y-39401D01*
X62874Y-39623D01*
X62873Y-39863D01*
X62965Y-40085D01*
X63123Y-40244D01*
X62966Y-40401D01*
X62874Y-40623D01*
X62873Y-40863D01*
X62965Y-41085D01*
X63135Y-41256D01*
X63357Y-41348D01*
X63598Y-41348D01*
X63820Y-41256D01*
X63990Y-41086D01*
X64082Y-40864D01*
X64082Y-40624D01*
X64082Y-42801D01*
X64053Y-42801D01*
X63852Y-42883D01*
X63699Y-43037D01*
X63616Y-43237D01*
X63616Y-43259D01*
X62237Y-44638D01*
X62191Y-44657D01*
X62028Y-44820D01*
X61939Y-45033D01*
X61939Y-45264D01*
X62027Y-45477D01*
X62190Y-45641D01*
X62211Y-45649D01*
X62182Y-45741D01*
X62519Y-46078D01*
X62856Y-45741D01*
X62827Y-45649D01*
X62847Y-45641D01*
X63011Y-45478D01*
X63099Y-45265D01*
X63099Y-45040D01*
X64248Y-43891D01*
X64269Y-43891D01*
X64469Y-43808D01*
X64623Y-43655D01*
X64706Y-43455D01*
X64706Y-43238D01*
X64706Y-47805D01*
X64623Y-47604D01*
X64470Y-47451D01*
X64270Y-47368D01*
X64053Y-47368D01*
X63852Y-47450D01*
X63699Y-47604D01*
X63616Y-47804D01*
X63616Y-47826D01*
X63104Y-48338D01*
X63104Y-46238D01*
X63093Y-46008D01*
X63025Y-45843D01*
X62927Y-45812D01*
X62590Y-46149D01*
X62927Y-46486D01*
X63025Y-46455D01*
X63104Y-46238D01*
X63104Y-48338D01*
X62856Y-48586D01*
X62856Y-46557D01*
X62519Y-46220D01*
X62448Y-46291D01*
X62448Y-46149D01*
X62112Y-45812D01*
X62013Y-45843D01*
X61935Y-46060D01*
X61945Y-46291D01*
X62013Y-46455D01*
X62112Y-46486D01*
X62448Y-46149D01*
X62448Y-46291D01*
X62182Y-46557D01*
X62213Y-46655D01*
X62430Y-46734D01*
X62661Y-46723D01*
X62825Y-46655D01*
X62856Y-46557D01*
X62856Y-48586D01*
X62261Y-49180D01*
X62132Y-49234D01*
X61969Y-49397D01*
X61880Y-49610D01*
X61880Y-49841D01*
X61968Y-50054D01*
X62131Y-50217D01*
X62152Y-50226D01*
X62123Y-50318D01*
X62460Y-50655D01*
X62797Y-50318D01*
X62768Y-50226D01*
X62788Y-50218D01*
X62952Y-50055D01*
X63040Y-49842D01*
X63040Y-49666D01*
X64248Y-48458D01*
X64269Y-48458D01*
X64469Y-48375D01*
X64623Y-48222D01*
X64706Y-48022D01*
X64706Y-47805D01*
X64706Y-51946D01*
X64635Y-51946D01*
X64005Y-51946D01*
X63913Y-51984D01*
X63843Y-52055D01*
X63823Y-52102D01*
X63045Y-52102D01*
X63045Y-50815D01*
X63034Y-50584D01*
X62966Y-50420D01*
X62868Y-50389D01*
X62531Y-50726D01*
X62868Y-51063D01*
X62966Y-51032D01*
X63045Y-50815D01*
X63045Y-52102D01*
X62797Y-52102D01*
X62797Y-51134D01*
X62460Y-50797D01*
X62389Y-50867D01*
X62389Y-50726D01*
X62052Y-50389D01*
X61954Y-50420D01*
X61875Y-50637D01*
X61886Y-50867D01*
X61954Y-51032D01*
X62052Y-51063D01*
X62389Y-50726D01*
X62389Y-50867D01*
X62123Y-51134D01*
X62154Y-51232D01*
X62371Y-51311D01*
X62602Y-51300D01*
X62766Y-51232D01*
X62797Y-51134D01*
X62797Y-52102D01*
X62586Y-52102D01*
X62567Y-52083D01*
X62365Y-51999D01*
X62146Y-51999D01*
X61944Y-52082D01*
X61789Y-52237D01*
X61706Y-52439D01*
X61705Y-52658D01*
X61789Y-52860D01*
X61943Y-53015D01*
X62146Y-53099D01*
X62364Y-53099D01*
X62567Y-53015D01*
X62586Y-52996D01*
X63870Y-52996D01*
X63913Y-53038D01*
X64005Y-53076D01*
X64055Y-53076D01*
X64044Y-53115D01*
X64370Y-53441D01*
X64696Y-53115D01*
X64684Y-53076D01*
X64734Y-53076D01*
X64826Y-53038D01*
X64896Y-52968D01*
X64934Y-52876D01*
X64935Y-52777D01*
X64935Y-53499D01*
X64929Y-53372D01*
X64863Y-53214D01*
X64766Y-53185D01*
X64440Y-53511D01*
X64766Y-53837D01*
X64863Y-53808D01*
X64938Y-53599D01*
X64938Y-54448D01*
X64696Y-54691D01*
X64696Y-53908D01*
X64370Y-53582D01*
X64299Y-53653D01*
X64299Y-53511D01*
X63973Y-53185D01*
X63876Y-53214D01*
X63800Y-53426D01*
X63811Y-53650D01*
X63876Y-53808D01*
X63973Y-53837D01*
X64299Y-53511D01*
X64299Y-53653D01*
X64044Y-53908D01*
X64073Y-54005D01*
X64284Y-54081D01*
X64509Y-54070D01*
X64666Y-54005D01*
X64696Y-53908D01*
X64696Y-54691D01*
X62150Y-57237D01*
X62150Y-56551D01*
X62150Y-54551D01*
X62036Y-54275D01*
X61825Y-54064D01*
X61549Y-53950D01*
X61251Y-53949D01*
X61087Y-54017D01*
X61087Y-40838D01*
X61082Y-40733D01*
X61082Y-39624D01*
X60990Y-39402D01*
X60832Y-39243D01*
X60990Y-39086D01*
X61082Y-38864D01*
X61082Y-38624D01*
X60990Y-38402D01*
X60832Y-38243D01*
X60990Y-38086D01*
X61082Y-37864D01*
X61082Y-37624D01*
X60990Y-37402D01*
X60832Y-37243D01*
X60990Y-37086D01*
X61082Y-36864D01*
X61082Y-36624D01*
X60990Y-36402D01*
X60832Y-36243D01*
X60990Y-36086D01*
X61082Y-35864D01*
X61082Y-35624D01*
X60990Y-35402D01*
X60832Y-35243D01*
X60990Y-35086D01*
X61082Y-34864D01*
X61082Y-34624D01*
X60990Y-34402D01*
X60921Y-34332D01*
X60974Y-34310D01*
X61044Y-34240D01*
X61082Y-34148D01*
X61082Y-34048D01*
X61082Y-33340D01*
X61044Y-33248D01*
X60974Y-33177D01*
X60882Y-33139D01*
X60783Y-33139D01*
X60282Y-33139D01*
X60282Y-31515D01*
X60198Y-31312D01*
X60044Y-31158D01*
X59842Y-31074D01*
X59623Y-31073D01*
X59421Y-31157D01*
X59266Y-31312D01*
X59182Y-31514D01*
X59182Y-31732D01*
X59265Y-31935D01*
X59420Y-32090D01*
X59622Y-32173D01*
X59841Y-32174D01*
X60043Y-32090D01*
X60198Y-31935D01*
X60282Y-31733D01*
X60282Y-31515D01*
X60282Y-33139D01*
X60074Y-33139D01*
X59982Y-33177D01*
X59912Y-33247D01*
X59874Y-33339D01*
X59873Y-33439D01*
X59873Y-34147D01*
X59911Y-34239D01*
X59982Y-34310D01*
X60035Y-34332D01*
X59991Y-34375D01*
X59852Y-34375D01*
X59711Y-34404D01*
X59592Y-34483D01*
X58509Y-35566D01*
X58429Y-35685D01*
X58401Y-35826D01*
X58401Y-42855D01*
X58270Y-42801D01*
X58053Y-42801D01*
X57852Y-42883D01*
X57699Y-43037D01*
X57616Y-43237D01*
X57616Y-43454D01*
X57698Y-43654D01*
X57852Y-43808D01*
X58052Y-43891D01*
X58269Y-43891D01*
X58401Y-43837D01*
X58401Y-47422D01*
X58270Y-47368D01*
X58248Y-47368D01*
X56745Y-45865D01*
X56650Y-45801D01*
X56650Y-42256D01*
X56640Y-42015D01*
X56567Y-41840D01*
X56466Y-41806D01*
X56112Y-42161D01*
X56466Y-42515D01*
X56567Y-42481D01*
X56650Y-42256D01*
X56650Y-45801D01*
X56600Y-45768D01*
X56478Y-45744D01*
X56395Y-45661D01*
X56553Y-45504D01*
X56645Y-45282D01*
X56645Y-45041D01*
X56553Y-44819D01*
X56395Y-44661D01*
X56553Y-44504D01*
X56645Y-44282D01*
X56645Y-44041D01*
X56553Y-43819D01*
X56395Y-43661D01*
X56553Y-43504D01*
X56645Y-43282D01*
X56645Y-43041D01*
X56553Y-42819D01*
X56384Y-42649D01*
X56375Y-42645D01*
X56395Y-42586D01*
X56041Y-42232D01*
X55970Y-42302D01*
X55970Y-42161D01*
X55616Y-41806D01*
X55515Y-41840D01*
X55432Y-42066D01*
X55442Y-42306D01*
X55515Y-42481D01*
X55616Y-42515D01*
X55970Y-42161D01*
X55970Y-42302D01*
X55686Y-42586D01*
X55706Y-42645D01*
X55699Y-42648D01*
X55529Y-42818D01*
X55437Y-43040D01*
X55436Y-43281D01*
X55528Y-43503D01*
X55686Y-43661D01*
X55529Y-43818D01*
X55437Y-44040D01*
X55436Y-44281D01*
X55528Y-44503D01*
X55686Y-44661D01*
X55529Y-44818D01*
X55437Y-45040D01*
X55436Y-45281D01*
X55528Y-45503D01*
X55686Y-45661D01*
X55529Y-45818D01*
X55437Y-46040D01*
X55436Y-46281D01*
X55528Y-46503D01*
X55686Y-46661D01*
X55529Y-46818D01*
X55437Y-47040D01*
X55436Y-47281D01*
X55528Y-47503D01*
X55686Y-47661D01*
X55529Y-47818D01*
X55437Y-48040D01*
X55436Y-48281D01*
X55528Y-48503D01*
X55686Y-48661D01*
X55529Y-48818D01*
X55437Y-49040D01*
X55436Y-49281D01*
X55528Y-49503D01*
X55686Y-49661D01*
X55529Y-49818D01*
X55437Y-50040D01*
X55436Y-50281D01*
X55528Y-50503D01*
X55686Y-50661D01*
X55529Y-50818D01*
X55437Y-51040D01*
X55436Y-51281D01*
X55528Y-51503D01*
X55686Y-51661D01*
X55529Y-51818D01*
X55437Y-52040D01*
X55436Y-52281D01*
X55528Y-52503D01*
X55598Y-52573D01*
X55545Y-52595D01*
X55475Y-52665D01*
X55454Y-52714D01*
X52088Y-52714D01*
X51917Y-52748D01*
X51772Y-52845D01*
X50650Y-53967D01*
X50650Y-44256D01*
X50640Y-44015D01*
X50567Y-43840D01*
X50466Y-43806D01*
X50112Y-44161D01*
X50466Y-44515D01*
X50567Y-44481D01*
X50650Y-44256D01*
X50650Y-53967D01*
X50534Y-54084D01*
X50488Y-54152D01*
X50488Y-53569D01*
X50553Y-53504D01*
X50645Y-53282D01*
X50645Y-53041D01*
X50553Y-52819D01*
X50395Y-52661D01*
X50553Y-52504D01*
X50645Y-52282D01*
X50645Y-52041D01*
X50553Y-51819D01*
X50395Y-51661D01*
X50553Y-51504D01*
X50645Y-51282D01*
X50645Y-51041D01*
X50553Y-50819D01*
X50395Y-50661D01*
X50553Y-50504D01*
X50645Y-50282D01*
X50645Y-50041D01*
X50553Y-49819D01*
X50395Y-49661D01*
X50553Y-49504D01*
X50645Y-49282D01*
X50645Y-49041D01*
X50553Y-48819D01*
X50395Y-48661D01*
X50553Y-48504D01*
X50645Y-48282D01*
X50645Y-48041D01*
X50553Y-47819D01*
X50395Y-47661D01*
X50553Y-47504D01*
X50645Y-47282D01*
X50645Y-47041D01*
X50553Y-46819D01*
X50395Y-46661D01*
X50553Y-46504D01*
X50645Y-46282D01*
X50645Y-46041D01*
X50553Y-45819D01*
X50395Y-45661D01*
X50553Y-45504D01*
X50645Y-45282D01*
X50645Y-45041D01*
X50553Y-44819D01*
X50384Y-44649D01*
X50375Y-44645D01*
X50395Y-44586D01*
X50041Y-44232D01*
X49970Y-44302D01*
X49686Y-44586D01*
X49706Y-44645D01*
X49699Y-44648D01*
X49529Y-44818D01*
X49437Y-45040D01*
X49436Y-45281D01*
X49528Y-45503D01*
X49686Y-45661D01*
X49613Y-45734D01*
X48966Y-45734D01*
X48795Y-45768D01*
X48650Y-45865D01*
X46118Y-48397D01*
X46118Y-46462D01*
X45917Y-45974D01*
X45544Y-45601D01*
X45058Y-45399D01*
X44530Y-45399D01*
X44043Y-45600D01*
X43670Y-45972D01*
X43468Y-46459D01*
X43468Y-46986D01*
X43669Y-47473D01*
X44041Y-47847D01*
X44528Y-48049D01*
X45055Y-48049D01*
X45542Y-47848D01*
X45915Y-47475D01*
X46118Y-46989D01*
X46118Y-46462D01*
X46118Y-48397D01*
X45993Y-48522D01*
X45896Y-48667D01*
X45862Y-48838D01*
X45862Y-50543D01*
X45627Y-50777D01*
X45617Y-50777D01*
X45602Y-50762D01*
X45511Y-50724D01*
X45601Y-50686D01*
X45755Y-50533D01*
X45838Y-50333D01*
X45838Y-50116D01*
X45755Y-49915D01*
X45602Y-49762D01*
X45402Y-49679D01*
X45185Y-49679D01*
X44984Y-49761D01*
X44831Y-49915D01*
X44795Y-50000D01*
X44770Y-49939D01*
X44675Y-49912D01*
X44605Y-49983D01*
X44605Y-49841D01*
X44578Y-49747D01*
X44373Y-49674D01*
X44157Y-49685D01*
X44008Y-49747D01*
X43981Y-49841D01*
X44293Y-50153D01*
X44605Y-49841D01*
X44605Y-49983D01*
X44364Y-50224D01*
X44675Y-50536D01*
X44770Y-50509D01*
X44793Y-50443D01*
X44830Y-50532D01*
X44984Y-50686D01*
X45075Y-50724D01*
X44984Y-50761D01*
X44831Y-50915D01*
X44793Y-51006D01*
X44755Y-50915D01*
X44602Y-50762D01*
X44517Y-50727D01*
X44578Y-50701D01*
X44605Y-50606D01*
X44293Y-50295D01*
X44222Y-50365D01*
X44222Y-50224D01*
X43910Y-49912D01*
X43815Y-49939D01*
X43743Y-50143D01*
X43754Y-50360D01*
X43815Y-50509D01*
X43910Y-50536D01*
X44222Y-50224D01*
X44222Y-50365D01*
X43981Y-50606D01*
X44008Y-50701D01*
X44073Y-50725D01*
X43984Y-50761D01*
X43969Y-50777D01*
X43500Y-50777D01*
X43329Y-50811D01*
X43184Y-50908D01*
X42636Y-51456D01*
X42382Y-51710D01*
X42382Y-29084D01*
X42027Y-28730D01*
X41956Y-28800D01*
X41673Y-29084D01*
X41707Y-29185D01*
X41932Y-29268D01*
X42173Y-29258D01*
X42348Y-29185D01*
X42382Y-29084D01*
X42382Y-51710D01*
X41884Y-52209D01*
X41787Y-52353D01*
X41753Y-52525D01*
X41753Y-58700D01*
X41787Y-58871D01*
X41884Y-59015D01*
X42773Y-59905D01*
X42773Y-59905D01*
X42918Y-60002D01*
X43089Y-60036D01*
X48031Y-60036D01*
X48080Y-60085D01*
X48295Y-60174D01*
X48527Y-60174D01*
X48742Y-60085D01*
X48907Y-59921D01*
X48911Y-59910D01*
X48915Y-59920D01*
X49080Y-60085D01*
X49295Y-60174D01*
X49527Y-60174D01*
X49742Y-60085D01*
X49907Y-59921D01*
X49911Y-59910D01*
X49915Y-59920D01*
X50080Y-60085D01*
X50295Y-60174D01*
X50527Y-60174D01*
X50742Y-60085D01*
X50907Y-59921D01*
X50911Y-59910D01*
X50915Y-59920D01*
X51080Y-60085D01*
X51295Y-60174D01*
X51527Y-60174D01*
X51742Y-60085D01*
X51835Y-59993D01*
X51865Y-60066D01*
X51935Y-60136D01*
X52027Y-60174D01*
X52299Y-60174D01*
X52361Y-60111D01*
X52361Y-59639D01*
X52353Y-59639D01*
X52353Y-59539D01*
X52361Y-59539D01*
X52361Y-59067D01*
X52299Y-59005D01*
X52027Y-59005D01*
X51935Y-59043D01*
X51865Y-59113D01*
X51835Y-59186D01*
X51743Y-59094D01*
X51528Y-59005D01*
X51296Y-59005D01*
X51081Y-59093D01*
X50916Y-59258D01*
X50911Y-59269D01*
X50907Y-59259D01*
X50858Y-59209D01*
X50858Y-56923D01*
X50936Y-56845D01*
X50957Y-56845D01*
X51158Y-56762D01*
X51311Y-56609D01*
X51395Y-56408D01*
X51395Y-56192D01*
X51312Y-55991D01*
X51296Y-55975D01*
X51296Y-54585D01*
X52273Y-53608D01*
X55454Y-53608D01*
X55474Y-53657D01*
X55545Y-53727D01*
X55637Y-53765D01*
X55736Y-53765D01*
X56445Y-53765D01*
X56537Y-53727D01*
X56607Y-53657D01*
X56619Y-53627D01*
X57624Y-53627D01*
X57795Y-53593D01*
X57795Y-53593D01*
X57939Y-53497D01*
X58337Y-53099D01*
X58364Y-53099D01*
X58567Y-53015D01*
X58586Y-52996D01*
X58714Y-52996D01*
X58945Y-53227D01*
X58945Y-54100D01*
X58756Y-54288D01*
X58642Y-54564D01*
X58641Y-54862D01*
X58755Y-55138D01*
X58966Y-55349D01*
X59242Y-55463D01*
X59540Y-55464D01*
X59816Y-55350D01*
X60027Y-55139D01*
X60141Y-54863D01*
X60142Y-54565D01*
X60028Y-54289D01*
X59838Y-54100D01*
X59838Y-53042D01*
X59838Y-53041D01*
X59804Y-52870D01*
X59707Y-52726D01*
X59707Y-52726D01*
X59215Y-52233D01*
X59070Y-52136D01*
X58899Y-52102D01*
X58586Y-52102D01*
X58567Y-52083D01*
X58365Y-51999D01*
X58310Y-51999D01*
X59785Y-50524D01*
X59865Y-50404D01*
X59893Y-50263D01*
X59893Y-40923D01*
X59952Y-41064D01*
X60053Y-41098D01*
X60407Y-40744D01*
X60053Y-40389D01*
X59952Y-40423D01*
X59893Y-40583D01*
X59893Y-39911D01*
X59965Y-40085D01*
X60135Y-40256D01*
X60143Y-40259D01*
X60123Y-40318D01*
X60478Y-40673D01*
X60832Y-40318D01*
X60812Y-40259D01*
X60820Y-40256D01*
X60990Y-40086D01*
X61082Y-39864D01*
X61082Y-39624D01*
X61082Y-40733D01*
X61077Y-40598D01*
X61004Y-40423D01*
X60903Y-40389D01*
X60549Y-40744D01*
X60903Y-41098D01*
X61004Y-41064D01*
X61087Y-40838D01*
X61087Y-54017D01*
X60975Y-54063D01*
X60832Y-54206D01*
X60832Y-41169D01*
X60478Y-40814D01*
X60123Y-41169D01*
X60157Y-41270D01*
X60383Y-41352D01*
X60623Y-41342D01*
X60798Y-41270D01*
X60832Y-41169D01*
X60832Y-54206D01*
X60764Y-54274D01*
X60650Y-54550D01*
X60649Y-54848D01*
X60763Y-55124D01*
X60974Y-55335D01*
X61250Y-55449D01*
X61548Y-55450D01*
X61824Y-55336D01*
X62035Y-55125D01*
X62149Y-54849D01*
X62150Y-54551D01*
X62150Y-56551D01*
X62036Y-56275D01*
X61825Y-56064D01*
X61549Y-55950D01*
X61251Y-55949D01*
X60975Y-56063D01*
X60764Y-56274D01*
X60650Y-56550D01*
X60649Y-56848D01*
X60763Y-57124D01*
X60974Y-57335D01*
X61250Y-57449D01*
X61548Y-57450D01*
X61824Y-57336D01*
X62035Y-57125D01*
X62149Y-56849D01*
X62150Y-56551D01*
X62150Y-57237D01*
X61824Y-57562D01*
X61719Y-57720D01*
X61682Y-57906D01*
X61682Y-59236D01*
X61539Y-59379D01*
X61426Y-59651D01*
X61426Y-59946D01*
X61538Y-60219D01*
X61747Y-60428D01*
X61926Y-60503D01*
X60441Y-60503D01*
X60619Y-60429D01*
X60828Y-60220D01*
X60941Y-59948D01*
X60942Y-59653D01*
X60829Y-59380D01*
X60620Y-59171D01*
X60348Y-59058D01*
X60153Y-59057D01*
X60153Y-56829D01*
X60145Y-56531D01*
X60046Y-56291D01*
X59930Y-56240D01*
X59859Y-56310D01*
X59859Y-56169D01*
X59808Y-56053D01*
X59529Y-55946D01*
X59231Y-55954D01*
X58991Y-56053D01*
X58940Y-56169D01*
X59400Y-56629D01*
X59859Y-56169D01*
X59859Y-56310D01*
X59470Y-56700D01*
X59930Y-57159D01*
X60046Y-57108D01*
X60153Y-56829D01*
X60153Y-59057D01*
X60053Y-59057D01*
X59859Y-59137D01*
X59859Y-57230D01*
X59400Y-56770D01*
X59329Y-56841D01*
X59329Y-56700D01*
X58869Y-56240D01*
X58753Y-56291D01*
X58646Y-56570D01*
X58654Y-56868D01*
X58753Y-57108D01*
X58869Y-57159D01*
X59329Y-56700D01*
X59329Y-56841D01*
X58940Y-57230D01*
X58991Y-57346D01*
X59270Y-57453D01*
X59568Y-57445D01*
X59808Y-57346D01*
X59859Y-57230D01*
X59859Y-59137D01*
X59780Y-59170D01*
X59571Y-59379D01*
X59458Y-59651D01*
X59457Y-59946D01*
X59570Y-60219D01*
X59779Y-60428D01*
X59958Y-60503D01*
X59135Y-60503D01*
X58856Y-60224D01*
X58860Y-60220D01*
X58973Y-59948D01*
X58973Y-59653D01*
X58861Y-59380D01*
X58652Y-59171D01*
X58379Y-59058D01*
X58084Y-59057D01*
X57811Y-59170D01*
X57602Y-59379D01*
X57489Y-59651D01*
X57489Y-59946D01*
X57601Y-60219D01*
X57810Y-60428D01*
X57846Y-60443D01*
X57915Y-60547D01*
X58634Y-61265D01*
X58634Y-61265D01*
X58778Y-61362D01*
X58949Y-61396D01*
X58950Y-61396D01*
X63000Y-61396D01*
X63171Y-61362D01*
X63171Y-61362D01*
X63315Y-61265D01*
X65540Y-59040D01*
X65540Y-59040D01*
X65637Y-58896D01*
X65671Y-58725D01*
X65671Y-58725D01*
X65671Y-57936D01*
X65720Y-57916D01*
X65791Y-57846D01*
X65829Y-57754D01*
X65829Y-57654D01*
X65829Y-56946D01*
X65791Y-56854D01*
X65721Y-56783D01*
X65678Y-56766D01*
X65695Y-56749D01*
X65650Y-56704D01*
X65751Y-56670D01*
X65833Y-56444D01*
X65823Y-56204D01*
X65751Y-56029D01*
X65650Y-55995D01*
X65295Y-56350D01*
X65301Y-56355D01*
X65230Y-56426D01*
X65225Y-56420D01*
X65219Y-56426D01*
X65148Y-56355D01*
X65154Y-56350D01*
X65148Y-56344D01*
X65219Y-56273D01*
X65225Y-56279D01*
X65579Y-55924D01*
X65545Y-55823D01*
X65319Y-55741D01*
X65079Y-55751D01*
X64963Y-55799D01*
X65768Y-54993D01*
X65874Y-54836D01*
X65911Y-54650D01*
X65911Y-27575D01*
X65874Y-27388D01*
X65768Y-27231D01*
X64393Y-25856D01*
X64393Y-22083D01*
X64452Y-22024D01*
X64551Y-21788D01*
X64551Y-21531D01*
X64453Y-21295D01*
X64317Y-21159D01*
X64452Y-21024D01*
X64551Y-20788D01*
X64551Y-20531D01*
X64453Y-20295D01*
X64429Y-20270D01*
X64442Y-20265D01*
X64512Y-20194D01*
X64549Y-20106D01*
X65189Y-20106D01*
X65202Y-20119D01*
X65402Y-20202D01*
X65619Y-20202D01*
X65820Y-20120D01*
X65973Y-19966D01*
X66056Y-19766D01*
X66057Y-19549D01*
X66057Y-25549D01*
X65974Y-25349D01*
X65821Y-25195D01*
X65620Y-25112D01*
X65403Y-25112D01*
X65203Y-25194D01*
X65049Y-25348D01*
X64966Y-25548D01*
X64966Y-25765D01*
X65049Y-25965D01*
X65202Y-26119D01*
X65402Y-26202D01*
X65619Y-26202D01*
X65820Y-26120D01*
X65973Y-25966D01*
X66056Y-25766D01*
X66057Y-25549D01*
X66057Y-59468D01*
X66007Y-59447D01*
X65833Y-59447D01*
X65594Y-59447D01*
X65213Y-59604D01*
X64921Y-59896D01*
X64762Y-60277D01*
X64762Y-60690D01*
X64920Y-61071D01*
X65211Y-61363D01*
X65331Y-61413D01*
X57395Y-61413D01*
X57395Y-56192D01*
X57312Y-55991D01*
X57159Y-55838D01*
X56958Y-55754D01*
X56742Y-55754D01*
X56541Y-55837D01*
X56388Y-55990D01*
X56304Y-56191D01*
X56304Y-56407D01*
X56387Y-56608D01*
X56540Y-56761D01*
X56741Y-56845D01*
X56957Y-56845D01*
X57158Y-56762D01*
X57311Y-56609D01*
X57395Y-56408D01*
X57395Y-56192D01*
X57395Y-61413D01*
X57008Y-61413D01*
X57008Y-59927D01*
X57000Y-59632D01*
X56903Y-59396D01*
X56787Y-59345D01*
X56717Y-59416D01*
X56717Y-59275D01*
X56666Y-59159D01*
X56390Y-59054D01*
X56095Y-59062D01*
X55859Y-59159D01*
X55808Y-59275D01*
X56262Y-59729D01*
X56717Y-59275D01*
X56717Y-59416D01*
X56333Y-59800D01*
X56787Y-60254D01*
X56903Y-60203D01*
X57008Y-59927D01*
X57008Y-61413D01*
X56717Y-61413D01*
X56717Y-60324D01*
X56262Y-59870D01*
X56192Y-59941D01*
X56192Y-59800D01*
X55738Y-59345D01*
X55622Y-59396D01*
X55517Y-59672D01*
X55525Y-59967D01*
X55622Y-60203D01*
X55738Y-60254D01*
X56192Y-59800D01*
X56192Y-59941D01*
X55808Y-60324D01*
X55859Y-60440D01*
X56135Y-60545D01*
X56430Y-60537D01*
X56666Y-60440D01*
X56717Y-60324D01*
X56717Y-61413D01*
X52996Y-61413D01*
X52996Y-59874D01*
X52996Y-59304D01*
X52996Y-59205D01*
X52958Y-59113D01*
X52887Y-59043D01*
X52795Y-59005D01*
X52524Y-59005D01*
X52461Y-59067D01*
X52461Y-59539D01*
X52933Y-59539D01*
X52996Y-59477D01*
X52996Y-59304D01*
X52996Y-59874D01*
X52996Y-59702D01*
X52933Y-59639D01*
X52461Y-59639D01*
X52461Y-60111D01*
X52524Y-60174D01*
X52795Y-60174D01*
X52887Y-60136D01*
X52958Y-60066D01*
X52996Y-59974D01*
X52996Y-59874D01*
X52996Y-61413D01*
X41480Y-61413D01*
X41561Y-61379D01*
X41853Y-61088D01*
X42012Y-60707D01*
X42012Y-60294D01*
X41854Y-59913D01*
X41563Y-59621D01*
X41182Y-59462D01*
X40769Y-59462D01*
X40388Y-59620D01*
X40096Y-59911D01*
X40072Y-59967D01*
X40072Y-13666D01*
X40182Y-13930D01*
X40477Y-14226D01*
X40863Y-14386D01*
X41280Y-14386D01*
X41666Y-14227D01*
X41962Y-13932D01*
X42122Y-13546D01*
X42123Y-13128D01*
X41963Y-12742D01*
X41668Y-12446D01*
X41355Y-12316D01*
X65438Y-12316D01*
X65173Y-12426D01*
X64878Y-12721D01*
X64717Y-13107D01*
X64717Y-13524D01*
X64877Y-13910D01*
X65172Y-14206D01*
X65557Y-14366D01*
X65975Y-14367D01*
X66361Y-14207D01*
X66657Y-13912D01*
X66738Y-13717D01*
X66738Y-60038D01*
X66738Y-60038D01*
G37*
G54D32*
X66738Y-60038D02*
X66679Y-59897D01*
X66388Y-59605D01*
X66057Y-59468D01*
X66057Y-25549D01*
X66057Y-19549D01*
X65974Y-19349D01*
X65821Y-19195D01*
X65620Y-19112D01*
X65403Y-19112D01*
X65203Y-19194D01*
X65185Y-19212D01*
X64549Y-19212D01*
X64513Y-19124D01*
X64442Y-19053D01*
X64351Y-19015D01*
X64251Y-19015D01*
X63599Y-19015D01*
X63599Y-16701D01*
X63593Y-16366D01*
X63477Y-16087D01*
X63351Y-16024D01*
X63281Y-16095D01*
X63281Y-15953D01*
X63218Y-15828D01*
X62907Y-15706D01*
X62572Y-15712D01*
X62293Y-15828D01*
X62230Y-15953D01*
X62755Y-16479D01*
X63281Y-15953D01*
X63281Y-16095D01*
X62826Y-16550D01*
X63351Y-17075D01*
X63477Y-17012D01*
X63599Y-16701D01*
X63599Y-19015D01*
X63464Y-19015D01*
X63372Y-19053D01*
X63301Y-19123D01*
X63281Y-19173D01*
X63281Y-17146D01*
X62755Y-16620D01*
X62685Y-16691D01*
X62685Y-16550D01*
X62159Y-16024D01*
X62034Y-16087D01*
X61912Y-16398D01*
X61918Y-16733D01*
X62034Y-17012D01*
X62159Y-17075D01*
X62685Y-16550D01*
X62685Y-16691D01*
X62230Y-17146D01*
X62293Y-17271D01*
X62604Y-17393D01*
X62939Y-17387D01*
X63218Y-17271D01*
X63281Y-17146D01*
X63281Y-19173D01*
X63263Y-19215D01*
X63263Y-19315D01*
X63263Y-20102D01*
X63301Y-20194D01*
X63371Y-20264D01*
X63385Y-20270D01*
X63362Y-20294D01*
X63263Y-20530D01*
X63263Y-20786D01*
X63361Y-21023D01*
X63497Y-21159D01*
X63483Y-21173D01*
X60985Y-21173D01*
X60971Y-21159D01*
X61106Y-21024D01*
X61204Y-20788D01*
X61204Y-20531D01*
X61107Y-20295D01*
X61082Y-20270D01*
X61096Y-20265D01*
X61166Y-20194D01*
X61203Y-20106D01*
X61872Y-20106D01*
X61885Y-20119D01*
X62085Y-20202D01*
X62302Y-20202D01*
X62503Y-20120D01*
X62656Y-19966D01*
X62740Y-19766D01*
X62740Y-19549D01*
X62657Y-19349D01*
X62504Y-19195D01*
X62303Y-19112D01*
X62086Y-19112D01*
X61886Y-19194D01*
X61868Y-19212D01*
X61628Y-19212D01*
X61628Y-16383D01*
X61500Y-16074D01*
X61264Y-15837D01*
X60955Y-15709D01*
X60620Y-15709D01*
X60311Y-15837D01*
X60075Y-16073D01*
X59946Y-16382D01*
X59946Y-16716D01*
X60074Y-17025D01*
X60310Y-17262D01*
X60619Y-17390D01*
X60953Y-17390D01*
X61262Y-17263D01*
X61499Y-17026D01*
X61627Y-16717D01*
X61628Y-16383D01*
X61628Y-19212D01*
X61203Y-19212D01*
X61166Y-19124D01*
X61096Y-19053D01*
X61004Y-19015D01*
X60905Y-19015D01*
X60117Y-19015D01*
X60025Y-19053D01*
X59981Y-19098D01*
X59981Y-19098D01*
X59950Y-18943D01*
X59853Y-18798D01*
X59853Y-18798D01*
X59659Y-18604D01*
X59659Y-16383D01*
X59531Y-16074D01*
X59295Y-15837D01*
X58986Y-15709D01*
X58652Y-15709D01*
X58343Y-15837D01*
X58106Y-16073D01*
X57978Y-16382D01*
X57978Y-16716D01*
X58105Y-17025D01*
X58342Y-17262D01*
X58650Y-17390D01*
X58985Y-17390D01*
X59294Y-17263D01*
X59531Y-17026D01*
X59659Y-16717D01*
X59659Y-16383D01*
X59659Y-18604D01*
X57690Y-16635D01*
X57691Y-16383D01*
X57563Y-16074D01*
X57327Y-15837D01*
X57018Y-15709D01*
X56683Y-15709D01*
X56374Y-15837D01*
X56138Y-16073D01*
X56009Y-16382D01*
X56009Y-16716D01*
X56137Y-17025D01*
X56373Y-17262D01*
X56682Y-17390D01*
X57016Y-17390D01*
X57133Y-17342D01*
X58903Y-19112D01*
X58720Y-19112D01*
X58520Y-19194D01*
X58502Y-19212D01*
X57915Y-19212D01*
X57879Y-19124D01*
X57809Y-19053D01*
X57717Y-19015D01*
X57617Y-19015D01*
X56830Y-19015D01*
X56738Y-19053D01*
X56716Y-19075D01*
X56716Y-17937D01*
X56716Y-17937D01*
X56682Y-17766D01*
X56585Y-17621D01*
X56585Y-17621D01*
X55710Y-16746D01*
X55722Y-16717D01*
X55722Y-16383D01*
X55594Y-16074D01*
X55358Y-15837D01*
X55049Y-15709D01*
X54715Y-15709D01*
X54406Y-15837D01*
X54169Y-16073D01*
X54041Y-16382D01*
X54041Y-16716D01*
X54168Y-17025D01*
X54405Y-17262D01*
X54713Y-17390D01*
X55048Y-17390D01*
X55078Y-17378D01*
X55822Y-18122D01*
X55822Y-19315D01*
X55702Y-19195D01*
X55502Y-19112D01*
X55285Y-19112D01*
X55085Y-19194D01*
X55067Y-19212D01*
X54431Y-19212D01*
X54395Y-19124D01*
X54324Y-19053D01*
X54233Y-19015D01*
X54133Y-19015D01*
X53346Y-19015D01*
X53254Y-19053D01*
X53183Y-19123D01*
X53145Y-19215D01*
X53145Y-19315D01*
X53145Y-20102D01*
X53183Y-20194D01*
X53253Y-20264D01*
X53267Y-20270D01*
X53243Y-20294D01*
X53145Y-20530D01*
X53145Y-20786D01*
X53243Y-21023D01*
X53379Y-21159D01*
X53243Y-21294D01*
X53145Y-21530D01*
X53145Y-21786D01*
X53243Y-22023D01*
X53424Y-22204D01*
X53660Y-22303D01*
X53916Y-22303D01*
X54153Y-22205D01*
X54213Y-22145D01*
X56849Y-22145D01*
X56908Y-22204D01*
X57145Y-22303D01*
X57401Y-22303D01*
X57637Y-22205D01*
X57697Y-22145D01*
X60136Y-22145D01*
X60195Y-22204D01*
X60432Y-22303D01*
X60688Y-22303D01*
X60925Y-22205D01*
X60985Y-22145D01*
X63421Y-22145D01*
X63421Y-26057D01*
X63458Y-26243D01*
X63563Y-26401D01*
X64938Y-27776D01*
X64938Y-28155D01*
X64934Y-28059D01*
X64866Y-27894D01*
X64767Y-27863D01*
X64697Y-27934D01*
X64697Y-27793D01*
X64666Y-27694D01*
X64449Y-27616D01*
X64218Y-27626D01*
X64054Y-27694D01*
X64023Y-27793D01*
X64360Y-28130D01*
X64697Y-27793D01*
X64697Y-27934D01*
X64430Y-28200D01*
X64767Y-28537D01*
X64866Y-28506D01*
X64938Y-28306D01*
X64938Y-29082D01*
X64852Y-28872D01*
X64689Y-28709D01*
X64668Y-28700D01*
X64697Y-28608D01*
X64360Y-28271D01*
X64289Y-28342D01*
X64289Y-28200D01*
X63952Y-27863D01*
X63854Y-27894D01*
X63775Y-28111D01*
X63786Y-28342D01*
X63854Y-28506D01*
X63952Y-28537D01*
X64289Y-28200D01*
X64289Y-28342D01*
X64023Y-28608D01*
X64052Y-28700D01*
X64032Y-28708D01*
X63868Y-28871D01*
X63780Y-29084D01*
X63780Y-29148D01*
X63416Y-29512D01*
X63319Y-29657D01*
X63285Y-29828D01*
X63285Y-31292D01*
X63266Y-31312D01*
X63182Y-31514D01*
X63182Y-31732D01*
X63265Y-31935D01*
X63420Y-32090D01*
X63622Y-32173D01*
X63841Y-32174D01*
X64043Y-32090D01*
X64198Y-31935D01*
X64282Y-31733D01*
X64282Y-31515D01*
X64198Y-31312D01*
X64179Y-31293D01*
X64179Y-30013D01*
X64412Y-29780D01*
X64475Y-29780D01*
X64688Y-29692D01*
X64851Y-29529D01*
X64938Y-29319D01*
X64938Y-53576D01*
X64935Y-53499D01*
X64935Y-52777D01*
X64935Y-52147D01*
X64897Y-52055D01*
X64826Y-51985D01*
X64734Y-51946D01*
X64706Y-51946D01*
X64706Y-47805D01*
X64706Y-43238D01*
X64623Y-43037D01*
X64470Y-42884D01*
X64270Y-42801D01*
X64082Y-42801D01*
X64082Y-40624D01*
X63990Y-40402D01*
X63832Y-40243D01*
X63990Y-40086D01*
X64082Y-39864D01*
X64082Y-39624D01*
X63990Y-39402D01*
X63832Y-39243D01*
X63990Y-39086D01*
X64082Y-38864D01*
X64082Y-38624D01*
X63990Y-38402D01*
X63832Y-38243D01*
X63990Y-38086D01*
X64082Y-37864D01*
X64082Y-37624D01*
X63990Y-37402D01*
X63832Y-37243D01*
X63990Y-37086D01*
X64082Y-36864D01*
X64082Y-36624D01*
X63990Y-36402D01*
X63832Y-36243D01*
X63990Y-36086D01*
X64082Y-35864D01*
X64082Y-35624D01*
X63990Y-35402D01*
X63832Y-35243D01*
X63990Y-35086D01*
X64082Y-34864D01*
X64082Y-34624D01*
X63990Y-34402D01*
X63832Y-34243D01*
X63990Y-34086D01*
X64082Y-33864D01*
X64082Y-33624D01*
X63990Y-33402D01*
X63821Y-33232D01*
X63599Y-33139D01*
X63358Y-33139D01*
X63136Y-33231D01*
X62966Y-33401D01*
X62874Y-33623D01*
X62873Y-33863D01*
X62965Y-34085D01*
X63123Y-34244D01*
X62966Y-34401D01*
X62907Y-34541D01*
X62858Y-34492D01*
X62858Y-27450D01*
X62858Y-27450D01*
X62824Y-27279D01*
X62740Y-27154D01*
X62740Y-25549D01*
X62657Y-25349D01*
X62504Y-25195D01*
X62303Y-25112D01*
X62086Y-25112D01*
X61886Y-25194D01*
X61732Y-25348D01*
X61649Y-25548D01*
X61649Y-25765D01*
X61732Y-25965D01*
X61885Y-26119D01*
X62085Y-26202D01*
X62302Y-26202D01*
X62503Y-26120D01*
X62656Y-25966D01*
X62740Y-25766D01*
X62740Y-25549D01*
X62740Y-27154D01*
X62727Y-27134D01*
X62727Y-27134D01*
X60934Y-25341D01*
X60789Y-25244D01*
X60618Y-25210D01*
X59153Y-25210D01*
X59138Y-25195D01*
X58937Y-25112D01*
X58720Y-25112D01*
X58520Y-25194D01*
X58366Y-25348D01*
X58283Y-25548D01*
X58283Y-25765D01*
X58366Y-25965D01*
X58519Y-26119D01*
X58719Y-26202D01*
X58936Y-26202D01*
X59137Y-26120D01*
X59152Y-26104D01*
X60433Y-26104D01*
X60988Y-26659D01*
X56553Y-26659D01*
X55857Y-25963D01*
X55938Y-25766D01*
X55939Y-25549D01*
X55856Y-25349D01*
X55702Y-25195D01*
X55502Y-25112D01*
X55285Y-25112D01*
X55085Y-25194D01*
X54931Y-25348D01*
X54848Y-25548D01*
X54848Y-25765D01*
X54931Y-25965D01*
X54946Y-25981D01*
X54946Y-26131D01*
X54980Y-26302D01*
X55077Y-26447D01*
X56052Y-27422D01*
X56052Y-27422D01*
X56197Y-27519D01*
X56368Y-27553D01*
X60887Y-27553D01*
X60955Y-27620D01*
X60889Y-27620D01*
X60675Y-27708D01*
X60630Y-27753D01*
X60529Y-27753D01*
X60358Y-27787D01*
X60213Y-27884D01*
X59280Y-28817D01*
X59183Y-28962D01*
X59149Y-29133D01*
X59149Y-29736D01*
X58994Y-29891D01*
X59009Y-29812D01*
X59009Y-29812D01*
X59009Y-28572D01*
X59009Y-28572D01*
X58975Y-28401D01*
X58878Y-28256D01*
X58878Y-28256D01*
X58506Y-27884D01*
X58361Y-27787D01*
X58190Y-27753D01*
X58030Y-27753D01*
X57986Y-27709D01*
X57773Y-27620D01*
X57542Y-27620D01*
X57329Y-27708D01*
X57166Y-27871D01*
X57077Y-28084D01*
X57077Y-28315D01*
X57165Y-28528D01*
X57328Y-28692D01*
X57348Y-28700D01*
X57329Y-28708D01*
X57166Y-28871D01*
X57077Y-29084D01*
X57077Y-29315D01*
X57165Y-29528D01*
X57328Y-29692D01*
X57541Y-29780D01*
X57772Y-29780D01*
X57985Y-29692D01*
X58116Y-29562D01*
X58116Y-29627D01*
X56753Y-30990D01*
X56691Y-30990D01*
X56672Y-30971D01*
X56470Y-30887D01*
X56251Y-30886D01*
X56049Y-30970D01*
X55894Y-31125D01*
X55810Y-31327D01*
X55810Y-31545D01*
X55893Y-31748D01*
X56048Y-31903D01*
X56250Y-31986D01*
X56469Y-31987D01*
X56671Y-31903D01*
X56691Y-31883D01*
X56938Y-31883D01*
X57017Y-31868D01*
X56064Y-32820D01*
X55078Y-32820D01*
X54907Y-32854D01*
X54762Y-32951D01*
X54625Y-33089D01*
X54625Y-29085D01*
X54537Y-28872D01*
X54374Y-28709D01*
X54353Y-28700D01*
X54373Y-28692D01*
X54536Y-28529D01*
X54625Y-28316D01*
X54625Y-28085D01*
X54537Y-27872D01*
X54374Y-27709D01*
X54161Y-27620D01*
X54097Y-27620D01*
X52592Y-26116D01*
X52592Y-20137D01*
X52592Y-20137D01*
X52558Y-19966D01*
X52461Y-19821D01*
X52461Y-19821D01*
X51575Y-18935D01*
X51430Y-18839D01*
X51259Y-18805D01*
X50664Y-18805D01*
X50672Y-18796D01*
X50762Y-18581D01*
X50762Y-18349D01*
X50673Y-18134D01*
X50610Y-18070D01*
X50672Y-18008D01*
X50762Y-17793D01*
X50762Y-17561D01*
X50673Y-17346D01*
X50610Y-17283D01*
X50672Y-17221D01*
X50762Y-17006D01*
X50762Y-16774D01*
X50673Y-16559D01*
X50610Y-16495D01*
X50672Y-16433D01*
X50762Y-16218D01*
X50762Y-15986D01*
X50673Y-15771D01*
X50610Y-15708D01*
X50672Y-15646D01*
X50762Y-15431D01*
X50762Y-15199D01*
X50673Y-14984D01*
X50509Y-14819D01*
X50294Y-14730D01*
X50061Y-14730D01*
X49846Y-14819D01*
X49682Y-14983D01*
X49592Y-15198D01*
X49592Y-15430D01*
X49681Y-15645D01*
X49744Y-15708D01*
X49682Y-15770D01*
X49592Y-15985D01*
X49592Y-16217D01*
X49681Y-16432D01*
X49744Y-16495D01*
X49682Y-16558D01*
X49592Y-16773D01*
X49592Y-17005D01*
X49681Y-17220D01*
X49744Y-17283D01*
X49682Y-17345D01*
X49592Y-17560D01*
X49592Y-17792D01*
X49681Y-18007D01*
X49744Y-18070D01*
X49682Y-18133D01*
X49592Y-18348D01*
X49592Y-18580D01*
X49681Y-18795D01*
X49744Y-18858D01*
X49682Y-18920D01*
X49592Y-19135D01*
X49592Y-19367D01*
X49681Y-19582D01*
X49744Y-19645D01*
X49682Y-19707D01*
X49592Y-19922D01*
X49592Y-20154D01*
X49681Y-20369D01*
X49744Y-20432D01*
X49682Y-20495D01*
X49592Y-20710D01*
X49592Y-20942D01*
X49681Y-21157D01*
X49744Y-21220D01*
X49682Y-21282D01*
X49592Y-21497D01*
X49592Y-21729D01*
X49681Y-21944D01*
X49744Y-22007D01*
X49682Y-22070D01*
X49592Y-22285D01*
X49592Y-22517D01*
X49681Y-22732D01*
X49845Y-22897D01*
X50060Y-22986D01*
X50293Y-22986D01*
X50508Y-22897D01*
X50672Y-22733D01*
X50762Y-22518D01*
X50762Y-22286D01*
X50673Y-22071D01*
X50610Y-22007D01*
X50672Y-21945D01*
X50762Y-21730D01*
X50762Y-21498D01*
X50673Y-21283D01*
X50610Y-21220D01*
X50672Y-21158D01*
X50762Y-20943D01*
X50762Y-20711D01*
X50673Y-20496D01*
X50610Y-20432D01*
X50672Y-20370D01*
X50762Y-20155D01*
X50762Y-19923D01*
X50673Y-19708D01*
X50663Y-19698D01*
X51074Y-19698D01*
X51698Y-20322D01*
X51698Y-26301D01*
X51732Y-26472D01*
X51829Y-26617D01*
X53465Y-28252D01*
X53465Y-28315D01*
X53553Y-28528D01*
X53716Y-28692D01*
X53736Y-28700D01*
X53717Y-28708D01*
X53671Y-28753D01*
X51255Y-28753D01*
X50377Y-27875D01*
X50431Y-27745D01*
X50431Y-27526D01*
X50348Y-27324D01*
X50193Y-27169D01*
X49991Y-27085D01*
X49772Y-27085D01*
X49570Y-27169D01*
X49415Y-27323D01*
X49331Y-27525D01*
X49331Y-27744D01*
X49415Y-27946D01*
X49435Y-27966D01*
X49435Y-28011D01*
X49469Y-28182D01*
X49565Y-28327D01*
X50754Y-29516D01*
X50754Y-29516D01*
X50899Y-29613D01*
X51070Y-29647D01*
X51070Y-29647D01*
X53671Y-29647D01*
X53716Y-29692D01*
X53929Y-29780D01*
X54160Y-29780D01*
X54373Y-29692D01*
X54536Y-29529D01*
X54625Y-29316D01*
X54625Y-29085D01*
X54625Y-33089D01*
X52882Y-34831D01*
X52807Y-34945D01*
X52807Y-31768D01*
X52826Y-31748D01*
X52910Y-31546D01*
X52910Y-31328D01*
X52826Y-31125D01*
X52672Y-30971D01*
X52470Y-30887D01*
X52251Y-30886D01*
X52049Y-30970D01*
X51894Y-31125D01*
X51810Y-31327D01*
X51810Y-31545D01*
X51893Y-31748D01*
X51913Y-31767D01*
X51913Y-36795D01*
X50994Y-37714D01*
X50449Y-37714D01*
X50395Y-37661D01*
X50553Y-37504D01*
X50645Y-37282D01*
X50645Y-37041D01*
X50553Y-36819D01*
X50395Y-36661D01*
X50553Y-36504D01*
X50645Y-36282D01*
X50645Y-36041D01*
X50553Y-35819D01*
X50395Y-35661D01*
X50553Y-35504D01*
X50645Y-35282D01*
X50645Y-35041D01*
X50553Y-34819D01*
X50395Y-34661D01*
X50553Y-34504D01*
X50645Y-34282D01*
X50645Y-34041D01*
X50553Y-33819D01*
X50431Y-33697D01*
X50431Y-31526D01*
X50348Y-31324D01*
X50193Y-31169D01*
X49991Y-31085D01*
X49772Y-31085D01*
X49570Y-31169D01*
X49551Y-31188D01*
X49054Y-31188D01*
X49054Y-27526D01*
X48970Y-27324D01*
X48815Y-27169D01*
X48613Y-27085D01*
X48395Y-27085D01*
X48192Y-27169D01*
X48037Y-27323D01*
X47954Y-27525D01*
X47953Y-27744D01*
X48037Y-27946D01*
X48191Y-28101D01*
X48394Y-28185D01*
X48612Y-28185D01*
X48815Y-28102D01*
X48969Y-27947D01*
X49053Y-27745D01*
X49054Y-27526D01*
X49054Y-31188D01*
X48835Y-31188D01*
X48815Y-31169D01*
X48613Y-31085D01*
X48395Y-31085D01*
X48192Y-31169D01*
X48173Y-31188D01*
X47666Y-31188D01*
X47666Y-27526D01*
X47582Y-27324D01*
X47428Y-27169D01*
X47226Y-27085D01*
X47007Y-27085D01*
X46804Y-27169D01*
X46650Y-27323D01*
X46566Y-27525D01*
X46566Y-27744D01*
X46649Y-27946D01*
X46804Y-28101D01*
X47006Y-28185D01*
X47225Y-28185D01*
X47427Y-28102D01*
X47582Y-27947D01*
X47666Y-27745D01*
X47666Y-27526D01*
X47666Y-31188D01*
X47562Y-31188D01*
X47562Y-29842D01*
X47528Y-29671D01*
X47432Y-29526D01*
X47432Y-29526D01*
X45327Y-27422D01*
X45182Y-27325D01*
X45011Y-27291D01*
X44639Y-27291D01*
X44639Y-16952D01*
X44605Y-16781D01*
X44508Y-16636D01*
X42871Y-14998D01*
X42726Y-14902D01*
X42555Y-14868D01*
X41895Y-14868D01*
X41847Y-14819D01*
X41632Y-14730D01*
X41399Y-14730D01*
X41184Y-14819D01*
X41020Y-14983D01*
X40930Y-15198D01*
X40930Y-15430D01*
X41019Y-15645D01*
X41082Y-15708D01*
X41020Y-15770D01*
X40930Y-15985D01*
X40930Y-16217D01*
X41019Y-16432D01*
X41082Y-16495D01*
X41020Y-16558D01*
X40930Y-16773D01*
X40930Y-17005D01*
X41019Y-17220D01*
X41082Y-17283D01*
X41020Y-17345D01*
X40930Y-17560D01*
X40930Y-17792D01*
X41019Y-18007D01*
X41082Y-18070D01*
X41020Y-18133D01*
X40930Y-18348D01*
X40930Y-18580D01*
X41019Y-18795D01*
X41082Y-18858D01*
X41020Y-18920D01*
X40930Y-19135D01*
X40930Y-19367D01*
X41019Y-19582D01*
X41082Y-19645D01*
X41020Y-19707D01*
X40930Y-19922D01*
X40930Y-20154D01*
X41019Y-20369D01*
X41082Y-20432D01*
X41020Y-20495D01*
X40930Y-20710D01*
X40930Y-20942D01*
X41019Y-21157D01*
X41082Y-21220D01*
X41020Y-21282D01*
X40930Y-21497D01*
X40930Y-21729D01*
X41019Y-21944D01*
X41075Y-22000D01*
X41059Y-22016D01*
X41104Y-22061D01*
X41005Y-22093D01*
X40926Y-22311D01*
X40936Y-22544D01*
X41005Y-22710D01*
X41104Y-22742D01*
X41444Y-22401D01*
X41439Y-22396D01*
X41509Y-22325D01*
X41515Y-22331D01*
X41521Y-22325D01*
X41591Y-22396D01*
X41586Y-22401D01*
X41926Y-22742D01*
X42025Y-22710D01*
X42037Y-22677D01*
X42037Y-23023D01*
X41855Y-23205D01*
X41855Y-22812D01*
X41515Y-22472D01*
X41444Y-22543D01*
X41175Y-22812D01*
X41206Y-22911D01*
X41425Y-22991D01*
X41657Y-22980D01*
X41824Y-22911D01*
X41855Y-22812D01*
X41855Y-23205D01*
X41711Y-23349D01*
X41614Y-23494D01*
X41580Y-23665D01*
X41580Y-27072D01*
X41531Y-27093D01*
X41461Y-27163D01*
X41423Y-27255D01*
X41423Y-27354D01*
X41423Y-28063D01*
X41461Y-28155D01*
X41531Y-28225D01*
X41573Y-28243D01*
X41557Y-28259D01*
X41602Y-28304D01*
X41501Y-28338D01*
X41418Y-28564D01*
X41428Y-28804D01*
X41501Y-28979D01*
X41602Y-29013D01*
X41956Y-28659D01*
X41951Y-28653D01*
X42021Y-28583D01*
X42027Y-28588D01*
X42033Y-28583D01*
X42103Y-28653D01*
X42098Y-28659D01*
X42452Y-29013D01*
X42553Y-28979D01*
X42636Y-28754D01*
X42626Y-28513D01*
X42553Y-28338D01*
X42452Y-28304D01*
X42497Y-28259D01*
X42481Y-28243D01*
X42523Y-28225D01*
X42593Y-28155D01*
X42631Y-28063D01*
X42631Y-27964D01*
X42631Y-27255D01*
X42593Y-27163D01*
X42523Y-27093D01*
X42474Y-27072D01*
X42474Y-23850D01*
X42800Y-23524D01*
X42800Y-23524D01*
X42897Y-23379D01*
X42931Y-23208D01*
X42931Y-23208D01*
X42931Y-19118D01*
X42897Y-18947D01*
X42800Y-18802D01*
X42147Y-18148D01*
X42002Y-18052D01*
X41972Y-18046D01*
X42010Y-18008D01*
X42100Y-17793D01*
X42100Y-17561D01*
X42011Y-17346D01*
X41948Y-17283D01*
X42010Y-17221D01*
X42100Y-17006D01*
X42100Y-16774D01*
X42011Y-16559D01*
X41948Y-16495D01*
X42010Y-16433D01*
X42100Y-16218D01*
X42100Y-15986D01*
X42011Y-15771D01*
X42001Y-15761D01*
X42370Y-15761D01*
X43746Y-17137D01*
X43746Y-27330D01*
X43680Y-27395D01*
X43588Y-27617D01*
X43588Y-27857D01*
X43680Y-28080D01*
X43850Y-28250D01*
X43858Y-28253D01*
X43838Y-28312D01*
X44192Y-28667D01*
X44547Y-28312D01*
X44527Y-28253D01*
X44534Y-28250D01*
X44600Y-28185D01*
X44826Y-28185D01*
X46669Y-30027D01*
X46669Y-31304D01*
X46650Y-31323D01*
X46566Y-31525D01*
X46566Y-31744D01*
X46649Y-31946D01*
X46804Y-32101D01*
X47006Y-32185D01*
X47225Y-32185D01*
X47427Y-32102D01*
X47447Y-32082D01*
X48172Y-32082D01*
X48191Y-32101D01*
X48394Y-32185D01*
X48612Y-32185D01*
X48815Y-32102D01*
X48834Y-32082D01*
X49550Y-32082D01*
X49569Y-32101D01*
X49772Y-32185D01*
X49990Y-32185D01*
X50193Y-32102D01*
X50347Y-31947D01*
X50431Y-31745D01*
X50431Y-31526D01*
X50431Y-33697D01*
X50384Y-33649D01*
X50162Y-33557D01*
X49921Y-33556D01*
X49699Y-33648D01*
X49613Y-33734D01*
X49155Y-33734D01*
X48984Y-33768D01*
X48839Y-33865D01*
X45690Y-37013D01*
X45643Y-37013D01*
X45643Y-33838D01*
X45643Y-32057D01*
X45606Y-31871D01*
X45501Y-31713D01*
X45501Y-31713D01*
X44904Y-31116D01*
X44801Y-31047D01*
X44801Y-28832D01*
X44791Y-28592D01*
X44719Y-28417D01*
X44618Y-28383D01*
X44263Y-28738D01*
X44618Y-29092D01*
X44719Y-29058D01*
X44801Y-28832D01*
X44801Y-31047D01*
X44747Y-31011D01*
X44561Y-30974D01*
X44547Y-30974D01*
X44547Y-29163D01*
X44192Y-28808D01*
X44122Y-28879D01*
X44122Y-28738D01*
X43767Y-28383D01*
X43666Y-28417D01*
X43584Y-28643D01*
X43594Y-28883D01*
X43666Y-29058D01*
X43767Y-29092D01*
X44122Y-28738D01*
X44122Y-28879D01*
X43838Y-29163D01*
X43872Y-29264D01*
X44098Y-29347D01*
X44338Y-29336D01*
X44513Y-29264D01*
X44547Y-29163D01*
X44547Y-30974D01*
X44279Y-30974D01*
X44219Y-30914D01*
X44127Y-30876D01*
X44028Y-30875D01*
X43359Y-30875D01*
X43267Y-30913D01*
X43196Y-30984D01*
X43158Y-31076D01*
X43158Y-31175D01*
X43158Y-31844D01*
X43196Y-31936D01*
X43266Y-32007D01*
X43358Y-32045D01*
X43404Y-32045D01*
X43403Y-32049D01*
X43743Y-32389D01*
X44083Y-32049D01*
X44082Y-32045D01*
X44127Y-32045D01*
X44219Y-32007D01*
X44279Y-31946D01*
X44359Y-31946D01*
X44671Y-32258D01*
X44671Y-33637D01*
X44334Y-33974D01*
X44332Y-33974D01*
X44332Y-33550D01*
X44332Y-32550D01*
X44322Y-32318D01*
X44253Y-32151D01*
X44154Y-32120D01*
X43814Y-32460D01*
X44154Y-32800D01*
X44253Y-32769D01*
X44332Y-32550D01*
X44332Y-33550D01*
X44322Y-33318D01*
X44253Y-33151D01*
X44154Y-33120D01*
X44083Y-33191D01*
X44083Y-33049D01*
X44055Y-32960D01*
X44083Y-32871D01*
X43743Y-32531D01*
X43672Y-32602D01*
X43672Y-32460D01*
X43332Y-32120D01*
X43233Y-32151D01*
X43154Y-32370D01*
X43164Y-32602D01*
X43233Y-32769D01*
X43332Y-32800D01*
X43672Y-32460D01*
X43672Y-32602D01*
X43403Y-32871D01*
X43431Y-32960D01*
X43403Y-33049D01*
X43743Y-33389D01*
X44083Y-33049D01*
X44083Y-33191D01*
X43814Y-33460D01*
X44154Y-33800D01*
X44253Y-33769D01*
X44332Y-33550D01*
X44332Y-33974D01*
X44084Y-33974D01*
X44074Y-33965D01*
X44056Y-33957D01*
X44083Y-33871D01*
X43743Y-33531D01*
X43672Y-33602D01*
X43672Y-33460D01*
X43332Y-33120D01*
X43233Y-33151D01*
X43154Y-33370D01*
X43164Y-33602D01*
X43233Y-33769D01*
X43332Y-33800D01*
X43672Y-33460D01*
X43672Y-33602D01*
X43403Y-33871D01*
X43430Y-33957D01*
X43412Y-33964D01*
X43247Y-34129D01*
X43158Y-34343D01*
X43158Y-34576D01*
X43247Y-34791D01*
X43411Y-34955D01*
X43430Y-34963D01*
X43403Y-35049D01*
X43743Y-35389D01*
X44083Y-35049D01*
X44056Y-34963D01*
X44074Y-34956D01*
X44083Y-34946D01*
X44535Y-34946D01*
X44721Y-34909D01*
X44879Y-34804D01*
X45501Y-34182D01*
X45606Y-34024D01*
X45643Y-33838D01*
X45643Y-37013D01*
X44332Y-37013D01*
X44332Y-35550D01*
X44322Y-35318D01*
X44253Y-35151D01*
X44154Y-35120D01*
X43814Y-35460D01*
X44154Y-35800D01*
X44253Y-35769D01*
X44332Y-35550D01*
X44332Y-37013D01*
X44123Y-37013D01*
X44074Y-36965D01*
X44063Y-36960D01*
X44074Y-36956D01*
X44238Y-36792D01*
X44327Y-36577D01*
X44328Y-36344D01*
X44239Y-36129D01*
X44074Y-35965D01*
X44056Y-35957D01*
X44083Y-35871D01*
X43743Y-35531D01*
X43672Y-35602D01*
X43672Y-35460D01*
X43332Y-35120D01*
X43233Y-35151D01*
X43154Y-35370D01*
X43164Y-35602D01*
X43233Y-35769D01*
X43332Y-35800D01*
X43672Y-35460D01*
X43672Y-35602D01*
X43403Y-35871D01*
X43430Y-35957D01*
X43412Y-35964D01*
X43247Y-36129D01*
X43158Y-36343D01*
X43158Y-36576D01*
X43247Y-36791D01*
X43411Y-36955D01*
X43422Y-36960D01*
X43412Y-36964D01*
X43247Y-37129D01*
X43158Y-37343D01*
X43158Y-37576D01*
X43247Y-37791D01*
X43411Y-37955D01*
X43422Y-37960D01*
X43412Y-37964D01*
X43247Y-38129D01*
X43158Y-38343D01*
X43158Y-38576D01*
X43247Y-38791D01*
X43411Y-38955D01*
X43626Y-39045D01*
X43859Y-39045D01*
X44074Y-38956D01*
X44123Y-38907D01*
X45840Y-38907D01*
X46011Y-38873D01*
X46011Y-38873D01*
X46156Y-38776D01*
X49305Y-35627D01*
X49653Y-35627D01*
X49686Y-35661D01*
X49529Y-35818D01*
X49437Y-36040D01*
X49436Y-36281D01*
X49528Y-36503D01*
X49686Y-36661D01*
X49529Y-36818D01*
X49437Y-37040D01*
X49436Y-37281D01*
X49528Y-37503D01*
X49686Y-37661D01*
X49529Y-37818D01*
X49437Y-38040D01*
X49436Y-38281D01*
X49528Y-38503D01*
X49686Y-38661D01*
X49529Y-38818D01*
X49437Y-39040D01*
X49436Y-39281D01*
X49528Y-39503D01*
X49686Y-39661D01*
X49529Y-39818D01*
X49519Y-39842D01*
X44274Y-39842D01*
X44270Y-39832D01*
X44200Y-39762D01*
X44108Y-39724D01*
X44008Y-39724D01*
X43378Y-39724D01*
X43286Y-39762D01*
X43216Y-39832D01*
X43178Y-39924D01*
X43178Y-40023D01*
X43178Y-40653D01*
X43216Y-40745D01*
X43286Y-40816D01*
X43378Y-40854D01*
X43379Y-40854D01*
X43264Y-40968D01*
X43178Y-41176D01*
X43178Y-41401D01*
X43264Y-41608D01*
X43422Y-41768D01*
X43474Y-41789D01*
X43423Y-41810D01*
X43264Y-41968D01*
X43178Y-42176D01*
X43178Y-42401D01*
X43264Y-42608D01*
X43422Y-42768D01*
X43474Y-42789D01*
X43423Y-42810D01*
X43264Y-42968D01*
X43178Y-43176D01*
X43178Y-43401D01*
X43264Y-43608D01*
X43422Y-43768D01*
X43630Y-43854D01*
X43855Y-43854D01*
X44062Y-43768D01*
X44095Y-43736D01*
X49596Y-43736D01*
X49570Y-43761D01*
X49616Y-43806D01*
X49515Y-43840D01*
X49432Y-44066D01*
X49442Y-44306D01*
X49515Y-44481D01*
X49616Y-44515D01*
X49970Y-44161D01*
X49965Y-44155D01*
X50035Y-44085D01*
X50041Y-44090D01*
X50395Y-43736D01*
X50375Y-43677D01*
X50383Y-43674D01*
X50553Y-43504D01*
X50645Y-43282D01*
X50645Y-43041D01*
X50553Y-42819D01*
X50395Y-42661D01*
X50553Y-42504D01*
X50645Y-42282D01*
X50645Y-42041D01*
X50553Y-41819D01*
X50395Y-41661D01*
X50553Y-41504D01*
X50645Y-41282D01*
X50645Y-41041D01*
X50553Y-40819D01*
X50395Y-40661D01*
X50553Y-40504D01*
X50645Y-40282D01*
X50645Y-40041D01*
X50553Y-39819D01*
X50395Y-39661D01*
X50449Y-39608D01*
X52226Y-39608D01*
X52397Y-39574D01*
X52397Y-39574D01*
X52542Y-39477D01*
X53514Y-38504D01*
X53514Y-38504D01*
X53611Y-38359D01*
X53645Y-38188D01*
X53645Y-38188D01*
X53645Y-35332D01*
X55263Y-33714D01*
X55633Y-33714D01*
X55529Y-33818D01*
X55437Y-34040D01*
X55436Y-34281D01*
X55528Y-34503D01*
X55686Y-34661D01*
X55529Y-34818D01*
X55437Y-35040D01*
X55436Y-35281D01*
X55528Y-35503D01*
X55686Y-35661D01*
X55529Y-35818D01*
X55437Y-36040D01*
X55436Y-36281D01*
X55528Y-36503D01*
X55686Y-36661D01*
X55529Y-36818D01*
X55437Y-37040D01*
X55436Y-37281D01*
X55528Y-37503D01*
X55686Y-37661D01*
X55529Y-37818D01*
X55437Y-38040D01*
X55436Y-38281D01*
X55528Y-38503D01*
X55686Y-38661D01*
X55529Y-38818D01*
X55437Y-39040D01*
X55436Y-39281D01*
X55528Y-39503D01*
X55686Y-39661D01*
X55529Y-39818D01*
X55437Y-40040D01*
X55436Y-40281D01*
X55528Y-40503D01*
X55686Y-40661D01*
X55529Y-40818D01*
X55437Y-41040D01*
X55436Y-41281D01*
X55528Y-41503D01*
X55698Y-41673D01*
X55706Y-41676D01*
X55686Y-41736D01*
X56041Y-42090D01*
X56395Y-41736D01*
X56375Y-41677D01*
X56383Y-41674D01*
X56553Y-41504D01*
X56645Y-41282D01*
X56645Y-41041D01*
X56553Y-40819D01*
X56395Y-40661D01*
X56553Y-40504D01*
X56645Y-40282D01*
X56645Y-40041D01*
X56553Y-39819D01*
X56395Y-39661D01*
X56553Y-39504D01*
X56645Y-39282D01*
X56645Y-39041D01*
X56553Y-38819D01*
X56395Y-38661D01*
X56553Y-38504D01*
X56645Y-38282D01*
X56645Y-38041D01*
X56553Y-37819D01*
X56395Y-37661D01*
X56553Y-37504D01*
X56645Y-37282D01*
X56645Y-37041D01*
X56553Y-36819D01*
X56395Y-36661D01*
X56553Y-36504D01*
X56645Y-36282D01*
X56645Y-36041D01*
X56553Y-35819D01*
X56395Y-35661D01*
X56553Y-35504D01*
X56645Y-35282D01*
X56645Y-35041D01*
X56553Y-34819D01*
X56395Y-34661D01*
X56553Y-34504D01*
X56645Y-34282D01*
X56645Y-34041D01*
X56553Y-33819D01*
X56416Y-33681D01*
X56421Y-33680D01*
X56421Y-33680D01*
X56565Y-33583D01*
X59912Y-30237D01*
X60009Y-30092D01*
X60009Y-30092D01*
X60043Y-29921D01*
X60043Y-29318D01*
X60672Y-28689D01*
X60674Y-28692D01*
X60695Y-28700D01*
X60675Y-28708D01*
X60512Y-28871D01*
X60424Y-29084D01*
X60423Y-29315D01*
X60511Y-29528D01*
X60674Y-29692D01*
X60888Y-29780D01*
X61118Y-29780D01*
X61324Y-29695D01*
X61324Y-36309D01*
X61358Y-36480D01*
X61455Y-36625D01*
X61890Y-37060D01*
X61890Y-37060D01*
X62035Y-37156D01*
X62206Y-37190D01*
X62206Y-37190D01*
X63070Y-37190D01*
X63123Y-37244D01*
X62966Y-37401D01*
X62874Y-37623D01*
X62873Y-37863D01*
X62965Y-38085D01*
X63123Y-38244D01*
X62966Y-38401D01*
X62874Y-38623D01*
X62873Y-38863D01*
X62965Y-39085D01*
X63123Y-39244D01*
X62966Y-39401D01*
X62874Y-39623D01*
X62873Y-39863D01*
X62965Y-40085D01*
X63123Y-40244D01*
X62966Y-40401D01*
X62874Y-40623D01*
X62873Y-40863D01*
X62965Y-41085D01*
X63135Y-41256D01*
X63357Y-41348D01*
X63598Y-41348D01*
X63820Y-41256D01*
X63990Y-41086D01*
X64082Y-40864D01*
X64082Y-40624D01*
X64082Y-42801D01*
X64053Y-42801D01*
X63852Y-42883D01*
X63699Y-43037D01*
X63616Y-43237D01*
X63616Y-43259D01*
X62237Y-44638D01*
X62191Y-44657D01*
X62028Y-44820D01*
X61939Y-45033D01*
X61939Y-45264D01*
X62027Y-45477D01*
X62190Y-45641D01*
X62211Y-45649D01*
X62182Y-45741D01*
X62519Y-46078D01*
X62856Y-45741D01*
X62827Y-45649D01*
X62847Y-45641D01*
X63011Y-45478D01*
X63099Y-45265D01*
X63099Y-45040D01*
X64248Y-43891D01*
X64269Y-43891D01*
X64469Y-43808D01*
X64623Y-43655D01*
X64706Y-43455D01*
X64706Y-43238D01*
X64706Y-47805D01*
X64623Y-47604D01*
X64470Y-47451D01*
X64270Y-47368D01*
X64053Y-47368D01*
X63852Y-47450D01*
X63699Y-47604D01*
X63616Y-47804D01*
X63616Y-47826D01*
X63104Y-48338D01*
X63104Y-46238D01*
X63093Y-46008D01*
X63025Y-45843D01*
X62927Y-45812D01*
X62590Y-46149D01*
X62927Y-46486D01*
X63025Y-46455D01*
X63104Y-46238D01*
X63104Y-48338D01*
X62856Y-48586D01*
X62856Y-46557D01*
X62519Y-46220D01*
X62448Y-46291D01*
X62448Y-46149D01*
X62112Y-45812D01*
X62013Y-45843D01*
X61935Y-46060D01*
X61945Y-46291D01*
X62013Y-46455D01*
X62112Y-46486D01*
X62448Y-46149D01*
X62448Y-46291D01*
X62182Y-46557D01*
X62213Y-46655D01*
X62430Y-46734D01*
X62661Y-46723D01*
X62825Y-46655D01*
X62856Y-46557D01*
X62856Y-48586D01*
X62261Y-49180D01*
X62132Y-49234D01*
X61969Y-49397D01*
X61880Y-49610D01*
X61880Y-49841D01*
X61968Y-50054D01*
X62131Y-50217D01*
X62152Y-50226D01*
X62123Y-50318D01*
X62460Y-50655D01*
X62797Y-50318D01*
X62768Y-50226D01*
X62788Y-50218D01*
X62952Y-50055D01*
X63040Y-49842D01*
X63040Y-49666D01*
X64248Y-48458D01*
X64269Y-48458D01*
X64469Y-48375D01*
X64623Y-48222D01*
X64706Y-48022D01*
X64706Y-47805D01*
X64706Y-51946D01*
X64635Y-51946D01*
X64005Y-51946D01*
X63913Y-51984D01*
X63843Y-52055D01*
X63823Y-52102D01*
X63045Y-52102D01*
X63045Y-50815D01*
X63034Y-50584D01*
X62966Y-50420D01*
X62868Y-50389D01*
X62531Y-50726D01*
X62868Y-51063D01*
X62966Y-51032D01*
X63045Y-50815D01*
X63045Y-52102D01*
X62797Y-52102D01*
X62797Y-51134D01*
X62460Y-50797D01*
X62389Y-50867D01*
X62389Y-50726D01*
X62052Y-50389D01*
X61954Y-50420D01*
X61875Y-50637D01*
X61886Y-50867D01*
X61954Y-51032D01*
X62052Y-51063D01*
X62389Y-50726D01*
X62389Y-50867D01*
X62123Y-51134D01*
X62154Y-51232D01*
X62371Y-51311D01*
X62602Y-51300D01*
X62766Y-51232D01*
X62797Y-51134D01*
X62797Y-52102D01*
X62586Y-52102D01*
X62567Y-52083D01*
X62365Y-51999D01*
X62146Y-51999D01*
X61944Y-52082D01*
X61789Y-52237D01*
X61706Y-52439D01*
X61705Y-52658D01*
X61789Y-52860D01*
X61943Y-53015D01*
X62146Y-53099D01*
X62364Y-53099D01*
X62567Y-53015D01*
X62586Y-52996D01*
X63870Y-52996D01*
X63913Y-53038D01*
X64005Y-53076D01*
X64055Y-53076D01*
X64044Y-53115D01*
X64370Y-53441D01*
X64696Y-53115D01*
X64684Y-53076D01*
X64734Y-53076D01*
X64826Y-53038D01*
X64896Y-52968D01*
X64934Y-52876D01*
X64935Y-52777D01*
X64935Y-53499D01*
X64929Y-53372D01*
X64863Y-53214D01*
X64766Y-53185D01*
X64440Y-53511D01*
X64766Y-53837D01*
X64863Y-53808D01*
X64938Y-53599D01*
X64938Y-54448D01*
X64696Y-54691D01*
X64696Y-53908D01*
X64370Y-53582D01*
X64299Y-53653D01*
X64299Y-53511D01*
X63973Y-53185D01*
X63876Y-53214D01*
X63800Y-53426D01*
X63811Y-53650D01*
X63876Y-53808D01*
X63973Y-53837D01*
X64299Y-53511D01*
X64299Y-53653D01*
X64044Y-53908D01*
X64073Y-54005D01*
X64284Y-54081D01*
X64509Y-54070D01*
X64666Y-54005D01*
X64696Y-53908D01*
X64696Y-54691D01*
X62150Y-57237D01*
X62150Y-56551D01*
X62150Y-54551D01*
X62036Y-54275D01*
X61825Y-54064D01*
X61549Y-53950D01*
X61251Y-53949D01*
X61087Y-54017D01*
X61087Y-40838D01*
X61082Y-40733D01*
X61082Y-39624D01*
X60990Y-39402D01*
X60832Y-39243D01*
X60990Y-39086D01*
X61082Y-38864D01*
X61082Y-38624D01*
X60990Y-38402D01*
X60832Y-38243D01*
X60990Y-38086D01*
X61082Y-37864D01*
X61082Y-37624D01*
X60990Y-37402D01*
X60832Y-37243D01*
X60990Y-37086D01*
X61082Y-36864D01*
X61082Y-36624D01*
X60990Y-36402D01*
X60832Y-36243D01*
X60990Y-36086D01*
X61082Y-35864D01*
X61082Y-35624D01*
X60990Y-35402D01*
X60832Y-35243D01*
X60990Y-35086D01*
X61082Y-34864D01*
X61082Y-34624D01*
X60990Y-34402D01*
X60921Y-34332D01*
X60974Y-34310D01*
X61044Y-34240D01*
X61082Y-34148D01*
X61082Y-34048D01*
X61082Y-33340D01*
X61044Y-33248D01*
X60974Y-33177D01*
X60882Y-33139D01*
X60783Y-33139D01*
X60282Y-33139D01*
X60282Y-31515D01*
X60198Y-31312D01*
X60044Y-31158D01*
X59842Y-31074D01*
X59623Y-31073D01*
X59421Y-31157D01*
X59266Y-31312D01*
X59182Y-31514D01*
X59182Y-31732D01*
X59265Y-31935D01*
X59420Y-32090D01*
X59622Y-32173D01*
X59841Y-32174D01*
X60043Y-32090D01*
X60198Y-31935D01*
X60282Y-31733D01*
X60282Y-31515D01*
X60282Y-33139D01*
X60074Y-33139D01*
X59982Y-33177D01*
X59912Y-33247D01*
X59874Y-33339D01*
X59873Y-33439D01*
X59873Y-34147D01*
X59911Y-34239D01*
X59982Y-34310D01*
X60035Y-34332D01*
X59991Y-34375D01*
X59852Y-34375D01*
X59711Y-34404D01*
X59592Y-34483D01*
X58509Y-35566D01*
X58429Y-35685D01*
X58401Y-35826D01*
X58401Y-42855D01*
X58270Y-42801D01*
X58053Y-42801D01*
X57852Y-42883D01*
X57699Y-43037D01*
X57616Y-43237D01*
X57616Y-43454D01*
X57698Y-43654D01*
X57852Y-43808D01*
X58052Y-43891D01*
X58269Y-43891D01*
X58401Y-43837D01*
X58401Y-47422D01*
X58270Y-47368D01*
X58248Y-47368D01*
X56745Y-45865D01*
X56650Y-45801D01*
X56650Y-42256D01*
X56640Y-42015D01*
X56567Y-41840D01*
X56466Y-41806D01*
X56112Y-42161D01*
X56466Y-42515D01*
X56567Y-42481D01*
X56650Y-42256D01*
X56650Y-45801D01*
X56600Y-45768D01*
X56478Y-45744D01*
X56395Y-45661D01*
X56553Y-45504D01*
X56645Y-45282D01*
X56645Y-45041D01*
X56553Y-44819D01*
X56395Y-44661D01*
X56553Y-44504D01*
X56645Y-44282D01*
X56645Y-44041D01*
X56553Y-43819D01*
X56395Y-43661D01*
X56553Y-43504D01*
X56645Y-43282D01*
X56645Y-43041D01*
X56553Y-42819D01*
X56384Y-42649D01*
X56375Y-42645D01*
X56395Y-42586D01*
X56041Y-42232D01*
X55970Y-42302D01*
X55970Y-42161D01*
X55616Y-41806D01*
X55515Y-41840D01*
X55432Y-42066D01*
X55442Y-42306D01*
X55515Y-42481D01*
X55616Y-42515D01*
X55970Y-42161D01*
X55970Y-42302D01*
X55686Y-42586D01*
X55706Y-42645D01*
X55699Y-42648D01*
X55529Y-42818D01*
X55437Y-43040D01*
X55436Y-43281D01*
X55528Y-43503D01*
X55686Y-43661D01*
X55529Y-43818D01*
X55437Y-44040D01*
X55436Y-44281D01*
X55528Y-44503D01*
X55686Y-44661D01*
X55529Y-44818D01*
X55437Y-45040D01*
X55436Y-45281D01*
X55528Y-45503D01*
X55686Y-45661D01*
X55529Y-45818D01*
X55437Y-46040D01*
X55436Y-46281D01*
X55528Y-46503D01*
X55686Y-46661D01*
X55529Y-46818D01*
X55437Y-47040D01*
X55436Y-47281D01*
X55528Y-47503D01*
X55686Y-47661D01*
X55529Y-47818D01*
X55437Y-48040D01*
X55436Y-48281D01*
X55528Y-48503D01*
X55686Y-48661D01*
X55529Y-48818D01*
X55437Y-49040D01*
X55436Y-49281D01*
X55528Y-49503D01*
X55686Y-49661D01*
X55529Y-49818D01*
X55437Y-50040D01*
X55436Y-50281D01*
X55528Y-50503D01*
X55686Y-50661D01*
X55529Y-50818D01*
X55437Y-51040D01*
X55436Y-51281D01*
X55528Y-51503D01*
X55686Y-51661D01*
X55529Y-51818D01*
X55437Y-52040D01*
X55436Y-52281D01*
X55528Y-52503D01*
X55598Y-52573D01*
X55545Y-52595D01*
X55475Y-52665D01*
X55454Y-52714D01*
X52088Y-52714D01*
X51917Y-52748D01*
X51772Y-52845D01*
X50650Y-53967D01*
X50650Y-44256D01*
X50640Y-44015D01*
X50567Y-43840D01*
X50466Y-43806D01*
X50112Y-44161D01*
X50466Y-44515D01*
X50567Y-44481D01*
X50650Y-44256D01*
X50650Y-53967D01*
X50534Y-54084D01*
X50488Y-54152D01*
X50488Y-53569D01*
X50553Y-53504D01*
X50645Y-53282D01*
X50645Y-53041D01*
X50553Y-52819D01*
X50395Y-52661D01*
X50553Y-52504D01*
X50645Y-52282D01*
X50645Y-52041D01*
X50553Y-51819D01*
X50395Y-51661D01*
X50553Y-51504D01*
X50645Y-51282D01*
X50645Y-51041D01*
X50553Y-50819D01*
X50395Y-50661D01*
X50553Y-50504D01*
X50645Y-50282D01*
X50645Y-50041D01*
X50553Y-49819D01*
X50395Y-49661D01*
X50553Y-49504D01*
X50645Y-49282D01*
X50645Y-49041D01*
X50553Y-48819D01*
X50395Y-48661D01*
X50553Y-48504D01*
X50645Y-48282D01*
X50645Y-48041D01*
X50553Y-47819D01*
X50395Y-47661D01*
X50553Y-47504D01*
X50645Y-47282D01*
X50645Y-47041D01*
X50553Y-46819D01*
X50395Y-46661D01*
X50553Y-46504D01*
X50645Y-46282D01*
X50645Y-46041D01*
X50553Y-45819D01*
X50395Y-45661D01*
X50553Y-45504D01*
X50645Y-45282D01*
X50645Y-45041D01*
X50553Y-44819D01*
X50384Y-44649D01*
X50375Y-44645D01*
X50395Y-44586D01*
X50041Y-44232D01*
X49970Y-44302D01*
X49686Y-44586D01*
X49706Y-44645D01*
X49699Y-44648D01*
X49529Y-44818D01*
X49437Y-45040D01*
X49436Y-45281D01*
X49528Y-45503D01*
X49686Y-45661D01*
X49613Y-45734D01*
X48966Y-45734D01*
X48795Y-45768D01*
X48650Y-45865D01*
X46118Y-48397D01*
X46118Y-46462D01*
X45917Y-45974D01*
X45544Y-45601D01*
X45058Y-45399D01*
X44530Y-45399D01*
X44043Y-45600D01*
X43670Y-45972D01*
X43468Y-46459D01*
X43468Y-46986D01*
X43669Y-47473D01*
X44041Y-47847D01*
X44528Y-48049D01*
X45055Y-48049D01*
X45542Y-47848D01*
X45915Y-47475D01*
X46118Y-46989D01*
X46118Y-46462D01*
X46118Y-48397D01*
X45993Y-48522D01*
X45896Y-48667D01*
X45862Y-48838D01*
X45862Y-50543D01*
X45627Y-50777D01*
X45617Y-50777D01*
X45602Y-50762D01*
X45511Y-50724D01*
X45601Y-50686D01*
X45755Y-50533D01*
X45838Y-50333D01*
X45838Y-50116D01*
X45755Y-49915D01*
X45602Y-49762D01*
X45402Y-49679D01*
X45185Y-49679D01*
X44984Y-49761D01*
X44831Y-49915D01*
X44795Y-50000D01*
X44770Y-49939D01*
X44675Y-49912D01*
X44605Y-49983D01*
X44605Y-49841D01*
X44578Y-49747D01*
X44373Y-49674D01*
X44157Y-49685D01*
X44008Y-49747D01*
X43981Y-49841D01*
X44293Y-50153D01*
X44605Y-49841D01*
X44605Y-49983D01*
X44364Y-50224D01*
X44675Y-50536D01*
X44770Y-50509D01*
X44793Y-50443D01*
X44830Y-50532D01*
X44984Y-50686D01*
X45075Y-50724D01*
X44984Y-50761D01*
X44831Y-50915D01*
X44793Y-51006D01*
X44755Y-50915D01*
X44602Y-50762D01*
X44517Y-50727D01*
X44578Y-50701D01*
X44605Y-50606D01*
X44293Y-50295D01*
X44222Y-50365D01*
X44222Y-50224D01*
X43910Y-49912D01*
X43815Y-49939D01*
X43743Y-50143D01*
X43754Y-50360D01*
X43815Y-50509D01*
X43910Y-50536D01*
X44222Y-50224D01*
X44222Y-50365D01*
X43981Y-50606D01*
X44008Y-50701D01*
X44073Y-50725D01*
X43984Y-50761D01*
X43969Y-50777D01*
X43500Y-50777D01*
X43329Y-50811D01*
X43184Y-50908D01*
X42636Y-51456D01*
X42382Y-51710D01*
X42382Y-29084D01*
X42027Y-28730D01*
X41956Y-28800D01*
X41673Y-29084D01*
X41707Y-29185D01*
X41932Y-29268D01*
X42173Y-29258D01*
X42348Y-29185D01*
X42382Y-29084D01*
X42382Y-51710D01*
X41884Y-52209D01*
X41787Y-52353D01*
X41753Y-52525D01*
X41753Y-58700D01*
X41787Y-58871D01*
X41884Y-59015D01*
X42773Y-59905D01*
X42773Y-59905D01*
X42918Y-60002D01*
X43089Y-60036D01*
X48031Y-60036D01*
X48080Y-60085D01*
X48295Y-60174D01*
X48527Y-60174D01*
X48742Y-60085D01*
X48907Y-59921D01*
X48911Y-59910D01*
X48915Y-59920D01*
X49080Y-60085D01*
X49295Y-60174D01*
X49527Y-60174D01*
X49742Y-60085D01*
X49907Y-59921D01*
X49911Y-59910D01*
X49915Y-59920D01*
X50080Y-60085D01*
X50295Y-60174D01*
X50527Y-60174D01*
X50742Y-60085D01*
X50907Y-59921D01*
X50911Y-59910D01*
X50915Y-59920D01*
X51080Y-60085D01*
X51295Y-60174D01*
X51527Y-60174D01*
X51742Y-60085D01*
X51835Y-59993D01*
X51865Y-60066D01*
X51935Y-60136D01*
X52027Y-60174D01*
X52299Y-60174D01*
X52361Y-60111D01*
X52361Y-59639D01*
X52353Y-59639D01*
X52353Y-59539D01*
X52361Y-59539D01*
X52361Y-59067D01*
X52299Y-59005D01*
X52027Y-59005D01*
X51935Y-59043D01*
X51865Y-59113D01*
X51835Y-59186D01*
X51743Y-59094D01*
X51528Y-59005D01*
X51296Y-59005D01*
X51081Y-59093D01*
X50916Y-59258D01*
X50911Y-59269D01*
X50907Y-59259D01*
X50858Y-59209D01*
X50858Y-56923D01*
X50936Y-56845D01*
X50957Y-56845D01*
X51158Y-56762D01*
X51311Y-56609D01*
X51395Y-56408D01*
X51395Y-56192D01*
X51312Y-55991D01*
X51296Y-55975D01*
X51296Y-54585D01*
X52273Y-53608D01*
X55454Y-53608D01*
X55474Y-53657D01*
X55545Y-53727D01*
X55637Y-53765D01*
X55736Y-53765D01*
X56445Y-53765D01*
X56537Y-53727D01*
X56607Y-53657D01*
X56619Y-53627D01*
X57624Y-53627D01*
X57795Y-53593D01*
X57795Y-53593D01*
X57939Y-53497D01*
X58337Y-53099D01*
X58364Y-53099D01*
X58567Y-53015D01*
X58586Y-52996D01*
X58714Y-52996D01*
X58945Y-53227D01*
X58945Y-54100D01*
X58756Y-54288D01*
X58642Y-54564D01*
X58641Y-54862D01*
X58755Y-55138D01*
X58966Y-55349D01*
X59242Y-55463D01*
X59540Y-55464D01*
X59816Y-55350D01*
X60027Y-55139D01*
X60141Y-54863D01*
X60142Y-54565D01*
X60028Y-54289D01*
X59838Y-54100D01*
X59838Y-53042D01*
X59838Y-53041D01*
X59804Y-52870D01*
X59707Y-52726D01*
X59707Y-52726D01*
X59215Y-52233D01*
X59070Y-52136D01*
X58899Y-52102D01*
X58586Y-52102D01*
X58567Y-52083D01*
X58365Y-51999D01*
X58310Y-51999D01*
X59785Y-50524D01*
X59865Y-50404D01*
X59893Y-50263D01*
X59893Y-40923D01*
X59952Y-41064D01*
X60053Y-41098D01*
X60407Y-40744D01*
X60053Y-40389D01*
X59952Y-40423D01*
X59893Y-40583D01*
X59893Y-39911D01*
X59965Y-40085D01*
X60135Y-40256D01*
X60143Y-40259D01*
X60123Y-40318D01*
X60478Y-40673D01*
X60832Y-40318D01*
X60812Y-40259D01*
X60820Y-40256D01*
X60990Y-40086D01*
X61082Y-39864D01*
X61082Y-39624D01*
X61082Y-40733D01*
X61077Y-40598D01*
X61004Y-40423D01*
X60903Y-40389D01*
X60549Y-40744D01*
X60903Y-41098D01*
X61004Y-41064D01*
X61087Y-40838D01*
X61087Y-54017D01*
X60975Y-54063D01*
X60832Y-54206D01*
X60832Y-41169D01*
X60478Y-40814D01*
X60123Y-41169D01*
X60157Y-41270D01*
X60383Y-41352D01*
X60623Y-41342D01*
X60798Y-41270D01*
X60832Y-41169D01*
X60832Y-54206D01*
X60764Y-54274D01*
X60650Y-54550D01*
X60649Y-54848D01*
X60763Y-55124D01*
X60974Y-55335D01*
X61250Y-55449D01*
X61548Y-55450D01*
X61824Y-55336D01*
X62035Y-55125D01*
X62149Y-54849D01*
X62150Y-54551D01*
X62150Y-56551D01*
X62036Y-56275D01*
X61825Y-56064D01*
X61549Y-55950D01*
X61251Y-55949D01*
X60975Y-56063D01*
X60764Y-56274D01*
X60650Y-56550D01*
X60649Y-56848D01*
X60763Y-57124D01*
X60974Y-57335D01*
X61250Y-57449D01*
X61548Y-57450D01*
X61824Y-57336D01*
X62035Y-57125D01*
X62149Y-56849D01*
X62150Y-56551D01*
X62150Y-57237D01*
X61824Y-57562D01*
X61719Y-57720D01*
X61682Y-57906D01*
X61682Y-59236D01*
X61539Y-59379D01*
X61426Y-59651D01*
X61426Y-59946D01*
X61538Y-60219D01*
X61747Y-60428D01*
X61926Y-60503D01*
X60441Y-60503D01*
X60619Y-60429D01*
X60828Y-60220D01*
X60941Y-59948D01*
X60942Y-59653D01*
X60829Y-59380D01*
X60620Y-59171D01*
X60348Y-59058D01*
X60153Y-59057D01*
X60153Y-56829D01*
X60145Y-56531D01*
X60046Y-56291D01*
X59930Y-56240D01*
X59859Y-56310D01*
X59859Y-56169D01*
X59808Y-56053D01*
X59529Y-55946D01*
X59231Y-55954D01*
X58991Y-56053D01*
X58940Y-56169D01*
X59400Y-56629D01*
X59859Y-56169D01*
X59859Y-56310D01*
X59470Y-56700D01*
X59930Y-57159D01*
X60046Y-57108D01*
X60153Y-56829D01*
X60153Y-59057D01*
X60053Y-59057D01*
X59859Y-59137D01*
X59859Y-57230D01*
X59400Y-56770D01*
X59329Y-56841D01*
X59329Y-56700D01*
X58869Y-56240D01*
X58753Y-56291D01*
X58646Y-56570D01*
X58654Y-56868D01*
X58753Y-57108D01*
X58869Y-57159D01*
X59329Y-56700D01*
X59329Y-56841D01*
X58940Y-57230D01*
X58991Y-57346D01*
X59270Y-57453D01*
X59568Y-57445D01*
X59808Y-57346D01*
X59859Y-57230D01*
X59859Y-59137D01*
X59780Y-59170D01*
X59571Y-59379D01*
X59458Y-59651D01*
X59457Y-59946D01*
X59570Y-60219D01*
X59779Y-60428D01*
X59958Y-60503D01*
X59135Y-60503D01*
X58856Y-60224D01*
X58860Y-60220D01*
X58973Y-59948D01*
X58973Y-59653D01*
X58861Y-59380D01*
X58652Y-59171D01*
X58379Y-59058D01*
X58084Y-59057D01*
X57811Y-59170D01*
X57602Y-59379D01*
X57489Y-59651D01*
X57489Y-59946D01*
X57601Y-60219D01*
X57810Y-60428D01*
X57846Y-60443D01*
X57915Y-60547D01*
X58634Y-61265D01*
X58634Y-61265D01*
X58778Y-61362D01*
X58949Y-61396D01*
X58950Y-61396D01*
X63000Y-61396D01*
X63171Y-61362D01*
X63171Y-61362D01*
X63315Y-61265D01*
X65540Y-59040D01*
X65540Y-59040D01*
X65637Y-58896D01*
X65671Y-58725D01*
X65671Y-58725D01*
X65671Y-57936D01*
X65720Y-57916D01*
X65791Y-57846D01*
X65829Y-57754D01*
X65829Y-57654D01*
X65829Y-56946D01*
X65791Y-56854D01*
X65721Y-56783D01*
X65678Y-56766D01*
X65695Y-56749D01*
X65650Y-56704D01*
X65751Y-56670D01*
X65833Y-56444D01*
X65823Y-56204D01*
X65751Y-56029D01*
X65650Y-55995D01*
X65295Y-56350D01*
X65301Y-56355D01*
X65230Y-56426D01*
X65225Y-56420D01*
X65219Y-56426D01*
X65148Y-56355D01*
X65154Y-56350D01*
X65148Y-56344D01*
X65219Y-56273D01*
X65225Y-56279D01*
X65579Y-55924D01*
X65545Y-55823D01*
X65319Y-55741D01*
X65079Y-55751D01*
X64963Y-55799D01*
X65768Y-54993D01*
X65874Y-54836D01*
X65911Y-54650D01*
X65911Y-27575D01*
X65874Y-27388D01*
X65768Y-27231D01*
X64393Y-25856D01*
X64393Y-22083D01*
X64452Y-22024D01*
X64551Y-21788D01*
X64551Y-21531D01*
X64453Y-21295D01*
X64317Y-21159D01*
X64452Y-21024D01*
X64551Y-20788D01*
X64551Y-20531D01*
X64453Y-20295D01*
X64429Y-20270D01*
X64442Y-20265D01*
X64512Y-20194D01*
X64549Y-20106D01*
X65189Y-20106D01*
X65202Y-20119D01*
X65402Y-20202D01*
X65619Y-20202D01*
X65820Y-20120D01*
X65973Y-19966D01*
X66056Y-19766D01*
X66057Y-19549D01*
X66057Y-25549D01*
X65974Y-25349D01*
X65821Y-25195D01*
X65620Y-25112D01*
X65403Y-25112D01*
X65203Y-25194D01*
X65049Y-25348D01*
X64966Y-25548D01*
X64966Y-25765D01*
X65049Y-25965D01*
X65202Y-26119D01*
X65402Y-26202D01*
X65619Y-26202D01*
X65820Y-26120D01*
X65973Y-25966D01*
X66056Y-25766D01*
X66057Y-25549D01*
X66057Y-59468D01*
X66007Y-59447D01*
X65833Y-59447D01*
X65594Y-59447D01*
X65213Y-59604D01*
X64921Y-59896D01*
X64762Y-60277D01*
X64762Y-60690D01*
X64920Y-61071D01*
X65211Y-61363D01*
X65331Y-61413D01*
X57395Y-61413D01*
X57395Y-56192D01*
X57312Y-55991D01*
X57159Y-55838D01*
X56958Y-55754D01*
X56742Y-55754D01*
X56541Y-55837D01*
X56388Y-55990D01*
X56304Y-56191D01*
X56304Y-56407D01*
X56387Y-56608D01*
X56540Y-56761D01*
X56741Y-56845D01*
X56957Y-56845D01*
X57158Y-56762D01*
X57311Y-56609D01*
X57395Y-56408D01*
X57395Y-56192D01*
X57395Y-61413D01*
X57008Y-61413D01*
X57008Y-59927D01*
X57000Y-59632D01*
X56903Y-59396D01*
X56787Y-59345D01*
X56717Y-59416D01*
X56717Y-59275D01*
X56666Y-59159D01*
X56390Y-59054D01*
X56095Y-59062D01*
X55859Y-59159D01*
X55808Y-59275D01*
X56262Y-59729D01*
X56717Y-59275D01*
X56717Y-59416D01*
X56333Y-59800D01*
X56787Y-60254D01*
X56903Y-60203D01*
X57008Y-59927D01*
X57008Y-61413D01*
X56717Y-61413D01*
X56717Y-60324D01*
X56262Y-59870D01*
X56192Y-59941D01*
X56192Y-59800D01*
X55738Y-59345D01*
X55622Y-59396D01*
X55517Y-59672D01*
X55525Y-59967D01*
X55622Y-60203D01*
X55738Y-60254D01*
X56192Y-59800D01*
X56192Y-59941D01*
X55808Y-60324D01*
X55859Y-60440D01*
X56135Y-60545D01*
X56430Y-60537D01*
X56666Y-60440D01*
X56717Y-60324D01*
X56717Y-61413D01*
X52996Y-61413D01*
X52996Y-59874D01*
X52996Y-59304D01*
X52996Y-59205D01*
X52958Y-59113D01*
X52887Y-59043D01*
X52795Y-59005D01*
X52524Y-59005D01*
X52461Y-59067D01*
X52461Y-59539D01*
X52933Y-59539D01*
X52996Y-59477D01*
X52996Y-59304D01*
X52996Y-59874D01*
X52996Y-59702D01*
X52933Y-59639D01*
X52461Y-59639D01*
X52461Y-60111D01*
X52524Y-60174D01*
X52795Y-60174D01*
X52887Y-60136D01*
X52958Y-60066D01*
X52996Y-59974D01*
X52996Y-59874D01*
X52996Y-61413D01*
X41480Y-61413D01*
X41561Y-61379D01*
X41853Y-61088D01*
X42012Y-60707D01*
X42012Y-60294D01*
X41854Y-59913D01*
X41563Y-59621D01*
X41182Y-59462D01*
X40769Y-59462D01*
X40388Y-59620D01*
X40096Y-59911D01*
X40072Y-59967D01*
X40072Y-13666D01*
X40182Y-13930D01*
X40477Y-14226D01*
X40863Y-14386D01*
X41280Y-14386D01*
X41666Y-14227D01*
X41962Y-13932D01*
X42122Y-13546D01*
X42123Y-13128D01*
X41963Y-12742D01*
X41668Y-12446D01*
X41355Y-12316D01*
X65438Y-12316D01*
X65173Y-12426D01*
X64878Y-12721D01*
X64717Y-13107D01*
X64717Y-13524D01*
X64877Y-13910D01*
X65172Y-14206D01*
X65557Y-14366D01*
X65975Y-14367D01*
X66361Y-14207D01*
X66657Y-13912D01*
X66738Y-13717D01*
X66738Y-60038D01*
M02*
