M48
;DRILL file {Pcbnew (2013-07-07 BZR 4022)-stable} date 8/21/2014 1:54:50 PM
;FORMAT={-:-/ absolute / inch / decimal}
FMAT,2
INCH,TZ
T1C0.024
T2C0.031
T3C0.032
T4C0.036
T5C0.040
T6C0.045
T7C0.047
T8C0.063
T9C0.106
T10C0.120
T11C0.157
%
G90
G05
M72
T1
X4.3743Y-3.1461
X4.3743Y-3.2461
X4.3743Y-3.3461
X4.3743Y-3.4461
X4.3743Y-3.5461
X4.3743Y-3.6461
X4.3743Y-3.7461
X4.3743Y-3.8461
X4.8412Y-5.959
X4.9412Y-5.959
X5.0412Y-5.959
X5.085Y-5.63
X5.1412Y-5.959
X5.2412Y-5.959
X5.5394Y-1.9657
X5.5394Y-2.5657
X5.685Y-5.63
X5.8161Y-4.3346
X5.8161Y-4.7913
X5.8829Y-1.9657
X5.8829Y-2.5657
X6.2195Y-1.9657
X6.2195Y-2.5657
X6.4161Y-4.3346
X6.4161Y-4.7913
X6.5512Y-1.9657
X6.5512Y-2.5657
T2
X4.1515Y-1.5315
X4.1515Y-1.6102
X4.1515Y-1.689
X4.1515Y-1.7677
X4.1515Y-1.8465
X4.1515Y-1.9252
X4.1515Y-2.0039
X4.1515Y-2.0827
X4.1515Y-2.1614
X4.1515Y-2.2402
X5.0177Y-1.5315
X5.0177Y-1.6102
X5.0177Y-1.689
X5.0177Y-1.7677
X5.0177Y-1.8465
X5.0177Y-1.9252
X5.0177Y-2.0039
X5.0177Y-2.0827
X5.0177Y-2.1614
X5.0177Y-2.2402
T3
X4.2028Y-2.7659
X4.2028Y-2.8659
X4.3743Y-4.0289
X4.3743Y-4.1289
X4.3743Y-4.2289
X4.3743Y-4.3289
X4.4193Y-2.7738
X4.4193Y-2.8738
X4.7116Y-2.7636
X4.7116Y-3.1636
X4.8504Y-2.7636
X4.8504Y-3.1636
X4.9882Y-2.7636
X4.9882Y-3.1636
X5.0041Y-3.4161
X5.0041Y-3.5161
X5.0041Y-3.6161
X5.0041Y-3.7161
X5.0041Y-3.8161
X5.0041Y-3.9161
X5.0041Y-4.0161
X5.0041Y-4.1161
X5.0041Y-4.2161
X5.0041Y-4.3161
X5.0041Y-4.4161
X5.0041Y-4.5161
X5.0041Y-4.6161
X5.0041Y-4.7161
X5.0041Y-4.8161
X5.0041Y-4.9161
X5.0041Y-5.0161
X5.0041Y-5.1161
X5.0041Y-5.2161
X5.0041Y-5.3161
X5.236Y-3.1437
X5.4045Y-2.8201
X5.4045Y-2.9201
X5.6041Y-3.4161
X5.6041Y-3.5161
X5.6041Y-3.6161
X5.6041Y-3.7161
X5.6041Y-3.8161
X5.6041Y-3.9161
X5.6041Y-4.0161
X5.6041Y-4.1161
X5.6041Y-4.2161
X5.6041Y-4.3161
X5.6041Y-4.4161
X5.6041Y-4.5161
X5.6041Y-4.6161
X5.6041Y-4.7161
X5.6041Y-4.8161
X5.6041Y-4.9161
X5.6041Y-5.0161
X5.6041Y-5.1161
X5.6041Y-5.2161
X5.6041Y-5.3161
X5.636Y-3.1437
X5.7657Y-2.8201
X5.7657Y-2.9201
X5.8256Y-5.2549
X5.9732Y-3.1624
X6.0478Y-3.3744
X6.0478Y-3.4744
X6.0478Y-3.5744
X6.0478Y-3.6744
X6.0478Y-3.7744
X6.0478Y-3.8744
X6.0478Y-3.9744
X6.0478Y-4.0744
X6.1004Y-2.8201
X6.1004Y-2.9201
X6.2256Y-5.2549
X6.2461Y-4.9726
X6.2461Y-5.0726
X6.252Y-4.515
X6.252Y-4.615
X6.3478Y-3.3744
X6.3478Y-3.4744
X6.3478Y-3.5744
X6.3478Y-3.6744
X6.3478Y-3.7744
X6.3478Y-3.8744
X6.3478Y-3.9744
X6.3478Y-4.0744
X6.3732Y-3.1624
X6.436Y-2.8201
X6.436Y-2.9201
X6.437Y-5.2512
X6.437Y-5.3512
X6.5225Y-5.635
X6.5225Y-5.735
T4
X4.4293Y-5.0224
X4.4293Y-5.1224
X4.4293Y-5.2224
X4.4293Y-5.3224
X4.4293Y-5.4224
X4.5293Y-5.0224
X4.5293Y-5.1224
X4.5293Y-5.2224
X4.5293Y-5.3224
X4.5293Y-5.4224
T5
X5.3789Y-1.9659
X5.3789Y-2.0659
X5.3789Y-2.1659
X5.7274Y-1.9659
X5.7274Y-2.0659
X5.7274Y-2.1659
X6.0561Y-1.9659
X6.0561Y-2.0659
X6.0561Y-2.1659
X6.3907Y-1.9659
X6.3907Y-2.0659
X6.3907Y-2.1659
T6
X5.9392Y-5.4714
X5.94Y-5.67
X6.14Y-5.47
X6.14Y-5.67
T7
X5.6263Y-5.98
X5.8231Y-5.98
X6.02Y-5.98
X6.2169Y-5.98
T8
X5.4882Y-1.655
X5.685Y-1.655
X5.8819Y-1.655
X6.0787Y-1.655
X6.2756Y-1.655
T9
X4.4793Y-4.6724
X4.4793Y-5.7724
T10
X4.1073Y-1.3337
X6.5768Y-1.3317
T11
X4.0975Y-6.05
X6.58Y-6.0485
T0
M30
