G04 (created by PCBNEW (2013-07-07 BZR 4022)-stable) date 8/21/2014 1:45:18 PM*
%MOIN*%
G04 Gerber Fmt 3.4, Leading zero omitted, Abs format*
%FSLAX34Y34*%
G01*
G70*
G90*
G04 APERTURE LIST*
%ADD10C,0.00590551*%
%ADD11C,0.15748*%
%ADD12C,0.066*%
%ADD13R,0.0787402X0.0787402*%
%ADD14C,0.0787402*%
%ADD15R,0.0669291X0.0669291*%
%ADD16C,0.0669291*%
%ADD17C,0.0590551*%
%ADD18C,0.1*%
%ADD19R,0.0708661X0.0708661*%
%ADD20C,0.0708661*%
%ADD21C,0.11811*%
%ADD22R,0.0629921X0.0629921*%
%ADD23C,0.0629921*%
%ADD24C,0.215*%
%ADD25R,0.0590551X0.0590551*%
%ADD26C,0.06*%
%ADD27C,0.16*%
%ADD28C,0.0984252*%
%ADD29C,0.0393701*%
%ADD30C,0.023622*%
%ADD31C,0.01*%
G04 APERTURE END LIST*
G54D10*
G54D11*
X40975Y-60500D03*
G54D12*
X62460Y-49726D03*
X62460Y-50726D03*
X62519Y-45149D03*
X62519Y-46149D03*
G54D13*
X53789Y-19659D03*
G54D14*
X53789Y-20659D03*
X53789Y-21659D03*
G54D13*
X60561Y-19659D03*
G54D14*
X60561Y-20659D03*
X60561Y-21659D03*
G54D13*
X63907Y-19659D03*
G54D14*
X63907Y-20659D03*
X63907Y-21659D03*
G54D13*
X57273Y-19659D03*
G54D14*
X57273Y-20659D03*
X57273Y-21659D03*
G54D15*
X52411Y-59589D03*
G54D16*
X51411Y-59589D03*
X50411Y-59589D03*
X49411Y-59589D03*
X48411Y-59589D03*
G54D17*
X55393Y-25657D03*
X55393Y-19657D03*
X58161Y-43346D03*
X64161Y-43346D03*
X58828Y-25657D03*
X58828Y-19657D03*
X58161Y-47913D03*
X64161Y-47913D03*
X62194Y-25657D03*
X62194Y-19657D03*
X65511Y-25657D03*
X65511Y-19657D03*
X50850Y-56300D03*
X56850Y-56300D03*
G54D18*
X59400Y-56700D03*
X61400Y-54700D03*
X59392Y-54714D03*
X61400Y-56700D03*
G54D19*
X60478Y-33744D03*
G54D20*
X60478Y-34744D03*
X60478Y-35744D03*
X60478Y-36744D03*
X60478Y-37744D03*
X60478Y-38744D03*
X60478Y-39744D03*
X60478Y-40744D03*
X63478Y-40744D03*
X63478Y-39744D03*
X63478Y-38744D03*
X63478Y-37744D03*
X63478Y-36744D03*
X63478Y-35744D03*
X63478Y-34744D03*
X63478Y-33744D03*
G54D21*
X54881Y-16550D03*
X56850Y-16550D03*
X58818Y-16550D03*
X60787Y-16550D03*
X62755Y-16550D03*
G54D22*
X64370Y-52511D03*
G54D23*
X64370Y-53511D03*
G54D24*
X44793Y-57724D03*
X44793Y-46724D03*
G54D25*
X45293Y-54224D03*
G54D17*
X44293Y-54224D03*
X45293Y-53224D03*
X44293Y-53224D03*
X45293Y-52224D03*
X44293Y-52224D03*
X45293Y-51224D03*
X44293Y-51224D03*
X45293Y-50224D03*
X44293Y-50224D03*
G54D22*
X43743Y-40289D03*
G54D23*
X43743Y-41289D03*
X43743Y-42289D03*
X43743Y-43289D03*
G54D11*
X65800Y-60484D03*
G54D15*
X43743Y-31460D03*
G54D16*
X43743Y-32460D03*
X43743Y-33460D03*
X43743Y-34460D03*
X43743Y-35460D03*
X43743Y-36460D03*
X43743Y-37460D03*
X43743Y-38460D03*
G54D26*
X58255Y-52549D03*
X62255Y-52549D03*
G54D16*
X50177Y-15314D03*
X50177Y-18464D03*
X50177Y-20038D03*
X50177Y-19251D03*
X50177Y-16889D03*
X50177Y-17676D03*
X50177Y-16101D03*
X50177Y-21613D03*
X50177Y-22401D03*
X50177Y-20826D03*
X41515Y-20826D03*
X41515Y-22401D03*
X41515Y-21613D03*
X41515Y-16101D03*
X41515Y-17676D03*
X41515Y-16889D03*
X41515Y-19251D03*
X41515Y-20038D03*
X41515Y-18464D03*
X41515Y-15314D03*
G54D26*
X49881Y-31635D03*
X49881Y-27635D03*
X59732Y-31624D03*
X63732Y-31624D03*
X48503Y-31635D03*
X48503Y-27635D03*
X47116Y-31635D03*
X47116Y-27635D03*
X52360Y-31437D03*
X56360Y-31437D03*
G54D12*
X54045Y-29200D03*
X54045Y-28200D03*
X61003Y-29200D03*
X61003Y-28200D03*
X57657Y-29200D03*
X57657Y-28200D03*
X64360Y-29200D03*
X64360Y-28200D03*
G54D20*
X44192Y-27738D03*
X44192Y-28738D03*
G54D27*
X65767Y-13316D03*
X41072Y-13336D03*
G54D19*
X42027Y-27659D03*
G54D20*
X42027Y-28659D03*
G54D19*
X65225Y-57350D03*
G54D20*
X65225Y-56350D03*
G54D19*
X56041Y-53161D03*
G54D20*
X56041Y-52161D03*
X56041Y-51161D03*
X56041Y-50161D03*
X56041Y-49161D03*
X56041Y-48161D03*
X56041Y-47161D03*
X56041Y-46161D03*
X56041Y-45161D03*
X56041Y-44161D03*
X56041Y-43161D03*
X56041Y-42161D03*
X56041Y-41161D03*
X56041Y-40161D03*
X56041Y-39161D03*
X56041Y-38161D03*
X56041Y-37161D03*
X56041Y-36161D03*
X56041Y-35161D03*
X56041Y-34161D03*
X50041Y-34161D03*
X50041Y-35161D03*
X50041Y-36161D03*
X50041Y-37161D03*
X50041Y-38161D03*
X50041Y-39161D03*
X50041Y-40161D03*
X50041Y-41161D03*
X50041Y-42161D03*
X50041Y-43161D03*
X50041Y-44161D03*
X50041Y-45161D03*
X50041Y-46161D03*
X50041Y-47161D03*
X50041Y-48161D03*
X50041Y-49161D03*
X50041Y-50161D03*
X50041Y-51161D03*
X50041Y-52161D03*
X50041Y-53161D03*
G54D28*
X62168Y-59800D03*
X58231Y-59800D03*
X60200Y-59800D03*
X56262Y-59800D03*
G54D29*
X49411Y-59589D02*
X49411Y-55938D01*
X49638Y-52161D02*
X50041Y-52161D01*
X48950Y-52850D02*
X49638Y-52161D01*
X48950Y-55476D02*
X48950Y-52850D01*
X49411Y-55938D02*
X48950Y-55476D01*
X44293Y-52224D02*
X43250Y-52224D01*
X49411Y-59913D02*
X49411Y-59589D01*
X48775Y-60550D02*
X49411Y-59913D01*
X44200Y-60550D02*
X48775Y-60550D01*
X42425Y-58775D02*
X44200Y-60550D01*
X42425Y-53050D02*
X42425Y-58775D01*
X43250Y-52224D02*
X42425Y-53050D01*
G54D30*
X56041Y-49161D02*
X58269Y-49161D01*
X59104Y-35118D02*
X60478Y-33744D01*
X59104Y-48326D02*
X59104Y-35118D01*
X58269Y-49161D02*
X59104Y-48326D01*
G54D29*
X44293Y-54224D02*
X44293Y-55051D01*
X49179Y-50181D02*
X50011Y-50181D01*
X47253Y-52106D02*
X49179Y-50181D01*
X47253Y-54192D02*
X47253Y-52106D01*
X46013Y-55433D02*
X47253Y-54192D01*
X44675Y-55433D02*
X46013Y-55433D01*
X44293Y-55051D02*
X44675Y-55433D01*
X44293Y-53224D02*
X43596Y-53224D01*
X43596Y-53224D02*
X43061Y-53759D01*
X43061Y-53759D02*
X43061Y-55295D01*
X43061Y-55295D02*
X43868Y-56102D01*
X43868Y-56102D02*
X46663Y-56102D01*
X46663Y-56102D02*
X48198Y-54566D01*
X48198Y-54566D02*
X48198Y-52283D01*
X48198Y-52283D02*
X49301Y-51181D01*
X49301Y-51181D02*
X50011Y-51181D01*
X58231Y-59800D02*
X58231Y-54318D01*
X61450Y-33341D02*
X59732Y-31624D01*
X61450Y-51100D02*
X61450Y-33341D01*
X58231Y-54318D02*
X61450Y-51100D01*
X49881Y-31635D02*
X50755Y-31635D01*
X50755Y-31635D02*
X51702Y-30688D01*
X51702Y-30688D02*
X58797Y-30688D01*
X58797Y-30688D02*
X59732Y-31624D01*
X61003Y-28200D02*
X61003Y-25610D01*
X61003Y-25610D02*
X59163Y-23769D01*
X59163Y-23769D02*
X50059Y-23769D01*
X50059Y-23769D02*
X42391Y-16101D01*
X42391Y-16101D02*
X41515Y-16101D01*
X57657Y-28200D02*
X57657Y-26190D01*
X42106Y-16889D02*
X49704Y-24488D01*
X49704Y-24488D02*
X55954Y-24488D01*
X55954Y-24488D02*
X57657Y-26190D01*
X42106Y-16889D02*
X41515Y-16889D01*
X43743Y-36460D02*
X45074Y-36460D01*
X55137Y-33307D02*
X56011Y-34181D01*
X48228Y-33307D02*
X55137Y-33307D01*
X45074Y-36460D02*
X48228Y-33307D01*
X58818Y-16550D02*
X58818Y-18515D01*
X60017Y-20659D02*
X60561Y-20659D01*
X59590Y-20232D02*
X60017Y-20659D01*
X59590Y-19287D02*
X59590Y-20232D01*
X58818Y-18515D02*
X59590Y-19287D01*
X48503Y-27635D02*
X48503Y-28494D01*
X60175Y-30029D02*
X61003Y-29200D01*
X50039Y-30029D02*
X60175Y-30029D01*
X48503Y-28494D02*
X50039Y-30029D01*
X47116Y-27635D02*
X47116Y-27175D01*
X54992Y-26535D02*
X57657Y-29200D01*
X47755Y-26535D02*
X54992Y-26535D01*
X47116Y-27175D02*
X47755Y-26535D01*
X63907Y-20659D02*
X63450Y-20659D01*
X62917Y-18679D02*
X60787Y-16550D01*
X62917Y-20125D02*
X62917Y-18679D01*
X63450Y-20659D02*
X62917Y-20125D01*
X62194Y-25657D02*
X62194Y-33460D01*
X62194Y-33460D02*
X63478Y-34744D01*
X63478Y-33744D02*
X63903Y-33744D01*
X65511Y-32135D02*
X65511Y-25657D01*
X63903Y-33744D02*
X65511Y-32135D01*
G54D10*
G36*
X66738Y-60038D02*
X66679Y-59897D01*
X66388Y-59605D01*
X66057Y-59468D01*
X66057Y-25549D01*
X66057Y-19549D01*
X65974Y-19349D01*
X65821Y-19195D01*
X65620Y-19112D01*
X65403Y-19112D01*
X65203Y-19194D01*
X65049Y-19348D01*
X64966Y-19548D01*
X64966Y-19765D01*
X65049Y-19965D01*
X65202Y-20119D01*
X65402Y-20202D01*
X65619Y-20202D01*
X65820Y-20120D01*
X65973Y-19966D01*
X66056Y-19766D01*
X66057Y-19549D01*
X66057Y-25549D01*
X65974Y-25349D01*
X65821Y-25195D01*
X65620Y-25112D01*
X65403Y-25112D01*
X65203Y-25194D01*
X65049Y-25348D01*
X64966Y-25548D01*
X64966Y-25765D01*
X65049Y-25965D01*
X65064Y-25981D01*
X65064Y-31950D01*
X64940Y-32075D01*
X64940Y-29085D01*
X64852Y-28872D01*
X64689Y-28709D01*
X64668Y-28700D01*
X64688Y-28692D01*
X64851Y-28529D01*
X64940Y-28316D01*
X64940Y-28085D01*
X64852Y-27872D01*
X64689Y-27709D01*
X64551Y-27652D01*
X64551Y-21531D01*
X64453Y-21295D01*
X64317Y-21159D01*
X64452Y-21024D01*
X64551Y-20788D01*
X64551Y-20531D01*
X64453Y-20295D01*
X64429Y-20270D01*
X64442Y-20265D01*
X64512Y-20194D01*
X64551Y-20103D01*
X64551Y-20003D01*
X64551Y-19216D01*
X64513Y-19124D01*
X64442Y-19053D01*
X64351Y-19015D01*
X64251Y-19015D01*
X63596Y-19015D01*
X63596Y-16383D01*
X63468Y-16074D01*
X63232Y-15837D01*
X62923Y-15709D01*
X62589Y-15709D01*
X62280Y-15837D01*
X62043Y-16073D01*
X61915Y-16382D01*
X61915Y-16716D01*
X62042Y-17025D01*
X62279Y-17262D01*
X62587Y-17390D01*
X62922Y-17390D01*
X63231Y-17263D01*
X63468Y-17026D01*
X63596Y-16717D01*
X63596Y-16383D01*
X63596Y-19015D01*
X63464Y-19015D01*
X63372Y-19053D01*
X63364Y-19061D01*
X63364Y-18679D01*
X63330Y-18508D01*
X63233Y-18363D01*
X61615Y-16746D01*
X61627Y-16717D01*
X61628Y-16383D01*
X61500Y-16074D01*
X61264Y-15837D01*
X60955Y-15709D01*
X60620Y-15709D01*
X60311Y-15837D01*
X60075Y-16073D01*
X59946Y-16382D01*
X59946Y-16716D01*
X60074Y-17025D01*
X60310Y-17262D01*
X60619Y-17390D01*
X60953Y-17390D01*
X60983Y-17378D01*
X62470Y-18865D01*
X62470Y-19181D01*
X62303Y-19112D01*
X62086Y-19112D01*
X61886Y-19194D01*
X61732Y-19348D01*
X61649Y-19548D01*
X61649Y-19765D01*
X61732Y-19965D01*
X61885Y-20119D01*
X62085Y-20202D01*
X62302Y-20202D01*
X62471Y-20133D01*
X62504Y-20296D01*
X62601Y-20441D01*
X63134Y-20975D01*
X63279Y-21072D01*
X63442Y-21104D01*
X63497Y-21159D01*
X63362Y-21294D01*
X63263Y-21530D01*
X63263Y-21786D01*
X63361Y-22023D01*
X63542Y-22204D01*
X63778Y-22303D01*
X64034Y-22303D01*
X64271Y-22205D01*
X64452Y-22024D01*
X64551Y-21788D01*
X64551Y-21531D01*
X64551Y-27652D01*
X64476Y-27620D01*
X64245Y-27620D01*
X64032Y-27708D01*
X63868Y-27871D01*
X63780Y-28084D01*
X63780Y-28315D01*
X63868Y-28528D01*
X64031Y-28692D01*
X64051Y-28700D01*
X64032Y-28708D01*
X63868Y-28871D01*
X63780Y-29084D01*
X63780Y-29315D01*
X63868Y-29528D01*
X64031Y-29692D01*
X64244Y-29780D01*
X64475Y-29780D01*
X64688Y-29692D01*
X64851Y-29529D01*
X64940Y-29316D01*
X64940Y-29085D01*
X64940Y-32075D01*
X64282Y-32733D01*
X64282Y-31515D01*
X64198Y-31312D01*
X64044Y-31158D01*
X63842Y-31074D01*
X63623Y-31073D01*
X63421Y-31157D01*
X63266Y-31312D01*
X63182Y-31514D01*
X63182Y-31732D01*
X63265Y-31935D01*
X63420Y-32090D01*
X63622Y-32173D01*
X63841Y-32174D01*
X64043Y-32090D01*
X64198Y-31935D01*
X64282Y-31733D01*
X64282Y-31515D01*
X64282Y-32733D01*
X63794Y-33221D01*
X63599Y-33139D01*
X63358Y-33139D01*
X63136Y-33231D01*
X62966Y-33401D01*
X62907Y-33541D01*
X62641Y-33275D01*
X62641Y-25981D01*
X62656Y-25966D01*
X62740Y-25766D01*
X62740Y-25549D01*
X62657Y-25349D01*
X62504Y-25195D01*
X62303Y-25112D01*
X62086Y-25112D01*
X61886Y-25194D01*
X61732Y-25348D01*
X61649Y-25548D01*
X61649Y-25765D01*
X61732Y-25965D01*
X61748Y-25981D01*
X61748Y-33007D01*
X60282Y-31542D01*
X60282Y-31515D01*
X60198Y-31312D01*
X60044Y-31158D01*
X59842Y-31074D01*
X59814Y-31074D01*
X59216Y-30476D01*
X60175Y-30476D01*
X60346Y-30442D01*
X60346Y-30442D01*
X60491Y-30345D01*
X61055Y-29780D01*
X61118Y-29780D01*
X61332Y-29692D01*
X61495Y-29529D01*
X61583Y-29316D01*
X61584Y-29085D01*
X61495Y-28872D01*
X61332Y-28709D01*
X61312Y-28700D01*
X61332Y-28692D01*
X61495Y-28529D01*
X61583Y-28316D01*
X61584Y-28085D01*
X61495Y-27872D01*
X61450Y-27827D01*
X61450Y-25610D01*
X61416Y-25439D01*
X61319Y-25294D01*
X61204Y-25179D01*
X61204Y-21531D01*
X61107Y-21295D01*
X60971Y-21159D01*
X61106Y-21024D01*
X61204Y-20788D01*
X61204Y-20531D01*
X61107Y-20295D01*
X61082Y-20270D01*
X61096Y-20265D01*
X61166Y-20194D01*
X61204Y-20103D01*
X61204Y-20003D01*
X61204Y-19216D01*
X61166Y-19124D01*
X61096Y-19053D01*
X61004Y-19015D01*
X60905Y-19015D01*
X60117Y-19015D01*
X60025Y-19053D01*
X59987Y-19092D01*
X59906Y-18971D01*
X59906Y-18971D01*
X59265Y-18330D01*
X59265Y-17274D01*
X59294Y-17263D01*
X59531Y-17026D01*
X59659Y-16717D01*
X59659Y-16383D01*
X59531Y-16074D01*
X59295Y-15837D01*
X58986Y-15709D01*
X58652Y-15709D01*
X58343Y-15837D01*
X58106Y-16073D01*
X57978Y-16382D01*
X57978Y-16716D01*
X58105Y-17025D01*
X58342Y-17262D01*
X58372Y-17274D01*
X58372Y-18515D01*
X58406Y-18686D01*
X58502Y-18831D01*
X58783Y-19112D01*
X58720Y-19112D01*
X58520Y-19194D01*
X58366Y-19348D01*
X58283Y-19548D01*
X58283Y-19765D01*
X58366Y-19965D01*
X58519Y-20119D01*
X58719Y-20202D01*
X58936Y-20202D01*
X59137Y-20120D01*
X59143Y-20113D01*
X59143Y-20232D01*
X59177Y-20403D01*
X59274Y-20548D01*
X59701Y-20975D01*
X59701Y-20975D01*
X59846Y-21072D01*
X60017Y-21106D01*
X60017Y-21106D01*
X60097Y-21106D01*
X60150Y-21159D01*
X60015Y-21294D01*
X59917Y-21530D01*
X59917Y-21786D01*
X60015Y-22023D01*
X60195Y-22204D01*
X60432Y-22303D01*
X60688Y-22303D01*
X60925Y-22205D01*
X61106Y-22024D01*
X61204Y-21788D01*
X61204Y-21531D01*
X61204Y-25179D01*
X59479Y-23453D01*
X59334Y-23356D01*
X59163Y-23322D01*
X57917Y-23322D01*
X57917Y-21531D01*
X57819Y-21295D01*
X57683Y-21159D01*
X57819Y-21024D01*
X57917Y-20788D01*
X57917Y-20531D01*
X57819Y-20295D01*
X57795Y-20270D01*
X57808Y-20265D01*
X57879Y-20194D01*
X57917Y-20103D01*
X57917Y-20003D01*
X57917Y-19216D01*
X57879Y-19124D01*
X57809Y-19053D01*
X57717Y-19015D01*
X57691Y-19015D01*
X57691Y-16383D01*
X57563Y-16074D01*
X57327Y-15837D01*
X57018Y-15709D01*
X56683Y-15709D01*
X56374Y-15837D01*
X56138Y-16073D01*
X56009Y-16382D01*
X56009Y-16716D01*
X56137Y-17025D01*
X56373Y-17262D01*
X56682Y-17390D01*
X57016Y-17390D01*
X57325Y-17263D01*
X57562Y-17026D01*
X57690Y-16717D01*
X57691Y-16383D01*
X57691Y-19015D01*
X57617Y-19015D01*
X56830Y-19015D01*
X56738Y-19053D01*
X56668Y-19123D01*
X56629Y-19215D01*
X56629Y-19315D01*
X56629Y-20102D01*
X56667Y-20194D01*
X56738Y-20264D01*
X56751Y-20270D01*
X56728Y-20294D01*
X56630Y-20530D01*
X56629Y-20786D01*
X56727Y-21023D01*
X56863Y-21159D01*
X56728Y-21294D01*
X56630Y-21530D01*
X56629Y-21786D01*
X56727Y-22023D01*
X56908Y-22204D01*
X57145Y-22303D01*
X57401Y-22303D01*
X57637Y-22205D01*
X57819Y-22024D01*
X57917Y-21788D01*
X57917Y-21531D01*
X57917Y-23322D01*
X55939Y-23322D01*
X55939Y-19549D01*
X55856Y-19349D01*
X55722Y-19215D01*
X55722Y-16383D01*
X55594Y-16074D01*
X55358Y-15837D01*
X55049Y-15709D01*
X54715Y-15709D01*
X54406Y-15837D01*
X54169Y-16073D01*
X54041Y-16382D01*
X54041Y-16716D01*
X54168Y-17025D01*
X54405Y-17262D01*
X54713Y-17390D01*
X55048Y-17390D01*
X55357Y-17263D01*
X55594Y-17026D01*
X55722Y-16717D01*
X55722Y-16383D01*
X55722Y-19215D01*
X55702Y-19195D01*
X55502Y-19112D01*
X55285Y-19112D01*
X55085Y-19194D01*
X54931Y-19348D01*
X54848Y-19548D01*
X54848Y-19765D01*
X54931Y-19965D01*
X55084Y-20119D01*
X55284Y-20202D01*
X55501Y-20202D01*
X55702Y-20120D01*
X55855Y-19966D01*
X55938Y-19766D01*
X55939Y-19549D01*
X55939Y-23322D01*
X54433Y-23322D01*
X54433Y-21531D01*
X54335Y-21295D01*
X54199Y-21159D01*
X54334Y-21024D01*
X54432Y-20788D01*
X54433Y-20531D01*
X54335Y-20295D01*
X54310Y-20270D01*
X54324Y-20265D01*
X54394Y-20194D01*
X54433Y-20103D01*
X54433Y-20003D01*
X54433Y-19216D01*
X54395Y-19124D01*
X54324Y-19053D01*
X54233Y-19015D01*
X54133Y-19015D01*
X53346Y-19015D01*
X53254Y-19053D01*
X53183Y-19123D01*
X53145Y-19215D01*
X53145Y-19315D01*
X53145Y-20102D01*
X53183Y-20194D01*
X53253Y-20264D01*
X53267Y-20270D01*
X53243Y-20294D01*
X53145Y-20530D01*
X53145Y-20786D01*
X53243Y-21023D01*
X53379Y-21159D01*
X53243Y-21294D01*
X53145Y-21530D01*
X53145Y-21786D01*
X53243Y-22023D01*
X53424Y-22204D01*
X53660Y-22303D01*
X53916Y-22303D01*
X54153Y-22205D01*
X54334Y-22024D01*
X54432Y-21788D01*
X54433Y-21531D01*
X54433Y-23322D01*
X50762Y-23322D01*
X50762Y-22286D01*
X50673Y-22071D01*
X50610Y-22007D01*
X50672Y-21945D01*
X50762Y-21730D01*
X50762Y-21498D01*
X50673Y-21283D01*
X50610Y-21220D01*
X50672Y-21158D01*
X50762Y-20943D01*
X50762Y-20711D01*
X50673Y-20496D01*
X50610Y-20432D01*
X50672Y-20370D01*
X50762Y-20155D01*
X50762Y-19923D01*
X50673Y-19708D01*
X50610Y-19645D01*
X50672Y-19583D01*
X50762Y-19368D01*
X50762Y-19136D01*
X50673Y-18921D01*
X50610Y-18858D01*
X50672Y-18796D01*
X50762Y-18581D01*
X50762Y-18349D01*
X50673Y-18134D01*
X50610Y-18070D01*
X50672Y-18008D01*
X50762Y-17793D01*
X50762Y-17561D01*
X50673Y-17346D01*
X50610Y-17283D01*
X50672Y-17221D01*
X50762Y-17006D01*
X50762Y-16774D01*
X50673Y-16559D01*
X50610Y-16495D01*
X50672Y-16433D01*
X50762Y-16218D01*
X50762Y-15986D01*
X50673Y-15771D01*
X50610Y-15708D01*
X50672Y-15646D01*
X50762Y-15431D01*
X50762Y-15199D01*
X50673Y-14984D01*
X50509Y-14819D01*
X50294Y-14730D01*
X50061Y-14730D01*
X49846Y-14819D01*
X49682Y-14983D01*
X49592Y-15198D01*
X49592Y-15430D01*
X49681Y-15645D01*
X49744Y-15708D01*
X49682Y-15770D01*
X49592Y-15985D01*
X49592Y-16217D01*
X49681Y-16432D01*
X49744Y-16495D01*
X49682Y-16558D01*
X49592Y-16773D01*
X49592Y-17005D01*
X49681Y-17220D01*
X49744Y-17283D01*
X49682Y-17345D01*
X49592Y-17560D01*
X49592Y-17792D01*
X49681Y-18007D01*
X49744Y-18070D01*
X49682Y-18133D01*
X49592Y-18348D01*
X49592Y-18580D01*
X49681Y-18795D01*
X49744Y-18858D01*
X49682Y-18920D01*
X49592Y-19135D01*
X49592Y-19367D01*
X49681Y-19582D01*
X49744Y-19645D01*
X49682Y-19707D01*
X49592Y-19922D01*
X49592Y-20154D01*
X49681Y-20369D01*
X49744Y-20432D01*
X49682Y-20495D01*
X49592Y-20710D01*
X49592Y-20942D01*
X49681Y-21157D01*
X49744Y-21220D01*
X49682Y-21282D01*
X49592Y-21497D01*
X49592Y-21729D01*
X49681Y-21944D01*
X49744Y-22007D01*
X49682Y-22070D01*
X49592Y-22285D01*
X49592Y-22517D01*
X49681Y-22732D01*
X49845Y-22897D01*
X50060Y-22986D01*
X50293Y-22986D01*
X50508Y-22897D01*
X50672Y-22733D01*
X50762Y-22518D01*
X50762Y-22286D01*
X50762Y-23322D01*
X50244Y-23322D01*
X42707Y-15785D01*
X42562Y-15689D01*
X42391Y-15655D01*
X42002Y-15655D01*
X42010Y-15646D01*
X42100Y-15431D01*
X42100Y-15199D01*
X42011Y-14984D01*
X41847Y-14819D01*
X41632Y-14730D01*
X41399Y-14730D01*
X41184Y-14819D01*
X41020Y-14983D01*
X40930Y-15198D01*
X40930Y-15430D01*
X41019Y-15645D01*
X41082Y-15708D01*
X41020Y-15770D01*
X40930Y-15985D01*
X40930Y-16217D01*
X41019Y-16432D01*
X41082Y-16495D01*
X41020Y-16558D01*
X40930Y-16773D01*
X40930Y-17005D01*
X41019Y-17220D01*
X41082Y-17283D01*
X41020Y-17345D01*
X40930Y-17560D01*
X40930Y-17792D01*
X41019Y-18007D01*
X41082Y-18070D01*
X41020Y-18133D01*
X40930Y-18348D01*
X40930Y-18580D01*
X41019Y-18795D01*
X41082Y-18858D01*
X41020Y-18920D01*
X40930Y-19135D01*
X40930Y-19367D01*
X41019Y-19582D01*
X41082Y-19645D01*
X41020Y-19707D01*
X40930Y-19922D01*
X40930Y-20154D01*
X41019Y-20369D01*
X41082Y-20432D01*
X41020Y-20495D01*
X40930Y-20710D01*
X40930Y-20942D01*
X41019Y-21157D01*
X41082Y-21220D01*
X41020Y-21282D01*
X40930Y-21497D01*
X40930Y-21729D01*
X41019Y-21944D01*
X41082Y-22007D01*
X41020Y-22070D01*
X40930Y-22285D01*
X40930Y-22517D01*
X41019Y-22732D01*
X41183Y-22897D01*
X41398Y-22986D01*
X41631Y-22986D01*
X41846Y-22897D01*
X42010Y-22733D01*
X42100Y-22518D01*
X42100Y-22286D01*
X42011Y-22071D01*
X41948Y-22007D01*
X42010Y-21945D01*
X42100Y-21730D01*
X42100Y-21498D01*
X42011Y-21283D01*
X41948Y-21220D01*
X42010Y-21158D01*
X42100Y-20943D01*
X42100Y-20711D01*
X42011Y-20496D01*
X41948Y-20432D01*
X42010Y-20370D01*
X42100Y-20155D01*
X42100Y-19923D01*
X42011Y-19708D01*
X41948Y-19645D01*
X42010Y-19583D01*
X42100Y-19368D01*
X42100Y-19136D01*
X42011Y-18921D01*
X41948Y-18858D01*
X42010Y-18796D01*
X42100Y-18581D01*
X42100Y-18349D01*
X42011Y-18134D01*
X41948Y-18070D01*
X42010Y-18008D01*
X42100Y-17793D01*
X42100Y-17561D01*
X42068Y-17483D01*
X49388Y-24804D01*
X49388Y-24804D01*
X49533Y-24901D01*
X49704Y-24935D01*
X55769Y-24935D01*
X57210Y-26376D01*
X57210Y-27827D01*
X57166Y-27871D01*
X57105Y-28017D01*
X55308Y-26219D01*
X55279Y-26200D01*
X55284Y-26202D01*
X55501Y-26202D01*
X55702Y-26120D01*
X55855Y-25966D01*
X55938Y-25766D01*
X55939Y-25549D01*
X55856Y-25349D01*
X55702Y-25195D01*
X55502Y-25112D01*
X55285Y-25112D01*
X55085Y-25194D01*
X54931Y-25348D01*
X54848Y-25548D01*
X54848Y-25765D01*
X54931Y-25965D01*
X55068Y-26103D01*
X54992Y-26088D01*
X47755Y-26088D01*
X47584Y-26122D01*
X47439Y-26219D01*
X46800Y-26859D01*
X46703Y-27004D01*
X46669Y-27175D01*
X46669Y-27304D01*
X46650Y-27323D01*
X46566Y-27525D01*
X46566Y-27744D01*
X46649Y-27946D01*
X46804Y-28101D01*
X47006Y-28185D01*
X47225Y-28185D01*
X47427Y-28102D01*
X47582Y-27947D01*
X47666Y-27745D01*
X47666Y-27526D01*
X47587Y-27335D01*
X47940Y-26982D01*
X54807Y-26982D01*
X57077Y-29252D01*
X57077Y-29315D01*
X57165Y-29528D01*
X57219Y-29582D01*
X54483Y-29582D01*
X54536Y-29529D01*
X54625Y-29316D01*
X54625Y-29085D01*
X54537Y-28872D01*
X54374Y-28709D01*
X54353Y-28700D01*
X54373Y-28692D01*
X54536Y-28529D01*
X54625Y-28316D01*
X54625Y-28085D01*
X54537Y-27872D01*
X54374Y-27709D01*
X54161Y-27620D01*
X53930Y-27620D01*
X53717Y-27708D01*
X53553Y-27871D01*
X53465Y-28084D01*
X53465Y-28315D01*
X53553Y-28528D01*
X53716Y-28692D01*
X53736Y-28700D01*
X53717Y-28708D01*
X53553Y-28871D01*
X53465Y-29084D01*
X53465Y-29315D01*
X53553Y-29528D01*
X53606Y-29582D01*
X50431Y-29582D01*
X50431Y-27526D01*
X50348Y-27324D01*
X50193Y-27169D01*
X49991Y-27085D01*
X49772Y-27085D01*
X49570Y-27169D01*
X49415Y-27323D01*
X49331Y-27525D01*
X49331Y-27744D01*
X49415Y-27946D01*
X49569Y-28101D01*
X49772Y-28185D01*
X49990Y-28185D01*
X50193Y-28102D01*
X50347Y-27947D01*
X50431Y-27745D01*
X50431Y-27526D01*
X50431Y-29582D01*
X50224Y-29582D01*
X48950Y-28309D01*
X48950Y-27966D01*
X48969Y-27947D01*
X49053Y-27745D01*
X49054Y-27526D01*
X48970Y-27324D01*
X48815Y-27169D01*
X48613Y-27085D01*
X48395Y-27085D01*
X48192Y-27169D01*
X48037Y-27323D01*
X47954Y-27525D01*
X47953Y-27744D01*
X48037Y-27946D01*
X48057Y-27966D01*
X48057Y-28494D01*
X48091Y-28665D01*
X48187Y-28810D01*
X49723Y-30345D01*
X49723Y-30345D01*
X49868Y-30442D01*
X50039Y-30476D01*
X50039Y-30476D01*
X51283Y-30476D01*
X50570Y-31188D01*
X50212Y-31188D01*
X50193Y-31169D01*
X49991Y-31085D01*
X49772Y-31085D01*
X49570Y-31169D01*
X49415Y-31323D01*
X49331Y-31525D01*
X49331Y-31744D01*
X49415Y-31946D01*
X49569Y-32101D01*
X49772Y-32185D01*
X49990Y-32185D01*
X50193Y-32102D01*
X50212Y-32082D01*
X50755Y-32082D01*
X50926Y-32048D01*
X50926Y-32048D01*
X51071Y-31951D01*
X51887Y-31135D01*
X51889Y-31135D01*
X51810Y-31327D01*
X51810Y-31545D01*
X51893Y-31748D01*
X52048Y-31903D01*
X52250Y-31986D01*
X52469Y-31987D01*
X52671Y-31903D01*
X52826Y-31748D01*
X52910Y-31546D01*
X52910Y-31328D01*
X52830Y-31135D01*
X55889Y-31135D01*
X55810Y-31327D01*
X55810Y-31545D01*
X55893Y-31748D01*
X56048Y-31903D01*
X56250Y-31986D01*
X56469Y-31987D01*
X56671Y-31903D01*
X56826Y-31748D01*
X56910Y-31546D01*
X56910Y-31328D01*
X56830Y-31135D01*
X58612Y-31135D01*
X59182Y-31705D01*
X59182Y-31732D01*
X59265Y-31935D01*
X59420Y-32090D01*
X59622Y-32173D01*
X59650Y-32173D01*
X60616Y-33139D01*
X60074Y-33139D01*
X59982Y-33177D01*
X59912Y-33247D01*
X59874Y-33339D01*
X59873Y-33439D01*
X59873Y-33827D01*
X58844Y-34857D01*
X58764Y-34977D01*
X58736Y-35118D01*
X58736Y-48174D01*
X58711Y-48199D01*
X58711Y-43427D01*
X58700Y-43210D01*
X58638Y-43061D01*
X58543Y-43034D01*
X58473Y-43105D01*
X58473Y-42963D01*
X58446Y-42869D01*
X58242Y-42796D01*
X58025Y-42807D01*
X57876Y-42869D01*
X57849Y-42963D01*
X58161Y-43275D01*
X58473Y-42963D01*
X58473Y-43105D01*
X58232Y-43346D01*
X58543Y-43658D01*
X58638Y-43631D01*
X58711Y-43427D01*
X58711Y-48199D01*
X58706Y-48203D01*
X58706Y-47805D01*
X58623Y-47604D01*
X58473Y-47453D01*
X58473Y-43728D01*
X58161Y-43417D01*
X58090Y-43487D01*
X58090Y-43346D01*
X57778Y-43034D01*
X57684Y-43061D01*
X57611Y-43265D01*
X57622Y-43482D01*
X57684Y-43631D01*
X57778Y-43658D01*
X58090Y-43346D01*
X58090Y-43487D01*
X57849Y-43728D01*
X57876Y-43823D01*
X58080Y-43896D01*
X58297Y-43885D01*
X58446Y-43823D01*
X58473Y-43728D01*
X58473Y-47453D01*
X58470Y-47451D01*
X58270Y-47368D01*
X58053Y-47368D01*
X57852Y-47450D01*
X57699Y-47604D01*
X57616Y-47804D01*
X57616Y-48021D01*
X57698Y-48221D01*
X57852Y-48375D01*
X58052Y-48458D01*
X58269Y-48458D01*
X58469Y-48375D01*
X58623Y-48222D01*
X58706Y-48022D01*
X58706Y-47805D01*
X58706Y-48203D01*
X58117Y-48793D01*
X56650Y-48793D01*
X56650Y-43256D01*
X56645Y-43151D01*
X56645Y-42041D01*
X56553Y-41819D01*
X56395Y-41661D01*
X56553Y-41504D01*
X56645Y-41282D01*
X56645Y-41041D01*
X56553Y-40819D01*
X56395Y-40661D01*
X56553Y-40504D01*
X56645Y-40282D01*
X56645Y-40041D01*
X56553Y-39819D01*
X56395Y-39661D01*
X56553Y-39504D01*
X56645Y-39282D01*
X56645Y-39041D01*
X56553Y-38819D01*
X56395Y-38661D01*
X56553Y-38504D01*
X56645Y-38282D01*
X56645Y-38041D01*
X56553Y-37819D01*
X56395Y-37661D01*
X56553Y-37504D01*
X56645Y-37282D01*
X56645Y-37041D01*
X56553Y-36819D01*
X56395Y-36661D01*
X56553Y-36504D01*
X56645Y-36282D01*
X56645Y-36041D01*
X56553Y-35819D01*
X56395Y-35661D01*
X56553Y-35504D01*
X56645Y-35282D01*
X56645Y-35041D01*
X56553Y-34819D01*
X56395Y-34661D01*
X56553Y-34504D01*
X56645Y-34282D01*
X56645Y-34041D01*
X56553Y-33819D01*
X56384Y-33649D01*
X56162Y-33557D01*
X56019Y-33557D01*
X55453Y-32991D01*
X55308Y-32894D01*
X55137Y-32860D01*
X49054Y-32860D01*
X49054Y-31526D01*
X48970Y-31324D01*
X48815Y-31169D01*
X48613Y-31085D01*
X48395Y-31085D01*
X48192Y-31169D01*
X48037Y-31323D01*
X47954Y-31525D01*
X47953Y-31744D01*
X48037Y-31946D01*
X48191Y-32101D01*
X48394Y-32185D01*
X48612Y-32185D01*
X48815Y-32102D01*
X48969Y-31947D01*
X49053Y-31745D01*
X49054Y-31526D01*
X49054Y-32860D01*
X48228Y-32860D01*
X48057Y-32894D01*
X47912Y-32991D01*
X47666Y-33237D01*
X47666Y-31526D01*
X47582Y-31324D01*
X47428Y-31169D01*
X47226Y-31085D01*
X47007Y-31085D01*
X46804Y-31169D01*
X46650Y-31323D01*
X46566Y-31525D01*
X46566Y-31744D01*
X46649Y-31946D01*
X46804Y-32101D01*
X47006Y-32185D01*
X47225Y-32185D01*
X47427Y-32102D01*
X47582Y-31947D01*
X47666Y-31745D01*
X47666Y-31526D01*
X47666Y-33237D01*
X44889Y-36013D01*
X44797Y-36013D01*
X44797Y-28618D01*
X44705Y-28396D01*
X44547Y-28238D01*
X44704Y-28080D01*
X44797Y-27858D01*
X44797Y-27618D01*
X44705Y-27396D01*
X44535Y-27226D01*
X44313Y-27133D01*
X44073Y-27133D01*
X43851Y-27225D01*
X43680Y-27395D01*
X43588Y-27617D01*
X43588Y-27857D01*
X43680Y-28080D01*
X43838Y-28238D01*
X43680Y-28395D01*
X43588Y-28617D01*
X43588Y-28857D01*
X43680Y-29080D01*
X43850Y-29250D01*
X44072Y-29342D01*
X44312Y-29342D01*
X44534Y-29250D01*
X44704Y-29080D01*
X44797Y-28858D01*
X44797Y-28618D01*
X44797Y-36013D01*
X44332Y-36013D01*
X44332Y-34550D01*
X44328Y-34449D01*
X44328Y-33344D01*
X44239Y-33129D01*
X44074Y-32965D01*
X44063Y-32960D01*
X44074Y-32956D01*
X44238Y-32792D01*
X44327Y-32577D01*
X44328Y-32344D01*
X44239Y-32129D01*
X44146Y-32037D01*
X44219Y-32007D01*
X44290Y-31936D01*
X44327Y-31844D01*
X44327Y-31076D01*
X44290Y-30984D01*
X44219Y-30914D01*
X44127Y-30876D01*
X44028Y-30875D01*
X43855Y-30875D01*
X43793Y-30938D01*
X43793Y-31410D01*
X44265Y-31410D01*
X44327Y-31348D01*
X44327Y-31076D01*
X44327Y-31844D01*
X44327Y-31573D01*
X44265Y-31510D01*
X43793Y-31510D01*
X43793Y-31518D01*
X43693Y-31518D01*
X43693Y-31510D01*
X43693Y-31410D01*
X43693Y-30938D01*
X43630Y-30875D01*
X43458Y-30875D01*
X43358Y-30876D01*
X43266Y-30914D01*
X43196Y-30984D01*
X43158Y-31076D01*
X43158Y-31348D01*
X43221Y-31410D01*
X43693Y-31410D01*
X43693Y-31510D01*
X43221Y-31510D01*
X43158Y-31573D01*
X43158Y-31844D01*
X43196Y-31936D01*
X43266Y-32007D01*
X43339Y-32037D01*
X43247Y-32129D01*
X43158Y-32343D01*
X43158Y-32576D01*
X43247Y-32791D01*
X43411Y-32955D01*
X43422Y-32960D01*
X43412Y-32964D01*
X43247Y-33129D01*
X43158Y-33343D01*
X43158Y-33576D01*
X43247Y-33791D01*
X43411Y-33955D01*
X43430Y-33963D01*
X43403Y-34049D01*
X43743Y-34389D01*
X44083Y-34049D01*
X44056Y-33963D01*
X44074Y-33956D01*
X44238Y-33792D01*
X44327Y-33577D01*
X44328Y-33344D01*
X44328Y-34449D01*
X44322Y-34318D01*
X44253Y-34151D01*
X44154Y-34120D01*
X43814Y-34460D01*
X44154Y-34800D01*
X44253Y-34769D01*
X44332Y-34550D01*
X44332Y-36013D01*
X44123Y-36013D01*
X44074Y-35965D01*
X44063Y-35960D01*
X44074Y-35956D01*
X44238Y-35792D01*
X44327Y-35577D01*
X44328Y-35344D01*
X44239Y-35129D01*
X44074Y-34965D01*
X44056Y-34957D01*
X44083Y-34871D01*
X43743Y-34531D01*
X43672Y-34602D01*
X43672Y-34460D01*
X43332Y-34120D01*
X43233Y-34151D01*
X43154Y-34370D01*
X43164Y-34602D01*
X43233Y-34769D01*
X43332Y-34800D01*
X43672Y-34460D01*
X43672Y-34602D01*
X43403Y-34871D01*
X43430Y-34957D01*
X43412Y-34964D01*
X43247Y-35129D01*
X43158Y-35343D01*
X43158Y-35576D01*
X43247Y-35791D01*
X43411Y-35955D01*
X43422Y-35960D01*
X43412Y-35964D01*
X43247Y-36129D01*
X43158Y-36343D01*
X43158Y-36576D01*
X43247Y-36791D01*
X43411Y-36955D01*
X43422Y-36960D01*
X43412Y-36964D01*
X43247Y-37129D01*
X43158Y-37343D01*
X43158Y-37576D01*
X43247Y-37791D01*
X43411Y-37955D01*
X43422Y-37960D01*
X43412Y-37964D01*
X43247Y-38129D01*
X43158Y-38343D01*
X43158Y-38576D01*
X43247Y-38791D01*
X43411Y-38955D01*
X43626Y-39045D01*
X43859Y-39045D01*
X44074Y-38956D01*
X44238Y-38792D01*
X44327Y-38577D01*
X44328Y-38344D01*
X44239Y-38129D01*
X44074Y-37965D01*
X44063Y-37960D01*
X44074Y-37956D01*
X44238Y-37792D01*
X44327Y-37577D01*
X44328Y-37344D01*
X44239Y-37129D01*
X44074Y-36965D01*
X44063Y-36960D01*
X44074Y-36956D01*
X44123Y-36907D01*
X45074Y-36907D01*
X45245Y-36873D01*
X45245Y-36873D01*
X45390Y-36776D01*
X48413Y-33753D01*
X49594Y-33753D01*
X49529Y-33818D01*
X49437Y-34040D01*
X49436Y-34281D01*
X49528Y-34503D01*
X49686Y-34661D01*
X49529Y-34818D01*
X49437Y-35040D01*
X49436Y-35281D01*
X49528Y-35503D01*
X49686Y-35661D01*
X49529Y-35818D01*
X49437Y-36040D01*
X49436Y-36281D01*
X49528Y-36503D01*
X49686Y-36661D01*
X49529Y-36818D01*
X49437Y-37040D01*
X49436Y-37281D01*
X49528Y-37503D01*
X49686Y-37661D01*
X49529Y-37818D01*
X49437Y-38040D01*
X49436Y-38281D01*
X49528Y-38503D01*
X49686Y-38661D01*
X49529Y-38818D01*
X49437Y-39040D01*
X49436Y-39281D01*
X49528Y-39503D01*
X49686Y-39661D01*
X49529Y-39818D01*
X49437Y-40040D01*
X49436Y-40281D01*
X49528Y-40503D01*
X49686Y-40661D01*
X49529Y-40818D01*
X49437Y-41040D01*
X49436Y-41281D01*
X49528Y-41503D01*
X49686Y-41661D01*
X49529Y-41818D01*
X49437Y-42040D01*
X49436Y-42281D01*
X49528Y-42503D01*
X49686Y-42661D01*
X49529Y-42818D01*
X49437Y-43040D01*
X49436Y-43281D01*
X49528Y-43503D01*
X49686Y-43661D01*
X49529Y-43818D01*
X49437Y-44040D01*
X49436Y-44281D01*
X49528Y-44503D01*
X49698Y-44673D01*
X49706Y-44676D01*
X49686Y-44736D01*
X50041Y-45090D01*
X50395Y-44736D01*
X50375Y-44677D01*
X50383Y-44674D01*
X50553Y-44504D01*
X50645Y-44282D01*
X50645Y-44041D01*
X50553Y-43819D01*
X50395Y-43661D01*
X50553Y-43504D01*
X50645Y-43282D01*
X50645Y-43041D01*
X50553Y-42819D01*
X50395Y-42661D01*
X50553Y-42504D01*
X50645Y-42282D01*
X50645Y-42041D01*
X50553Y-41819D01*
X50395Y-41661D01*
X50553Y-41504D01*
X50645Y-41282D01*
X50645Y-41041D01*
X50553Y-40819D01*
X50395Y-40661D01*
X50553Y-40504D01*
X50645Y-40282D01*
X50645Y-40041D01*
X50553Y-39819D01*
X50395Y-39661D01*
X50553Y-39504D01*
X50645Y-39282D01*
X50645Y-39041D01*
X50553Y-38819D01*
X50395Y-38661D01*
X50553Y-38504D01*
X50645Y-38282D01*
X50645Y-38041D01*
X50553Y-37819D01*
X50395Y-37661D01*
X50553Y-37504D01*
X50645Y-37282D01*
X50645Y-37041D01*
X50553Y-36819D01*
X50395Y-36661D01*
X50553Y-36504D01*
X50645Y-36282D01*
X50645Y-36041D01*
X50553Y-35819D01*
X50395Y-35661D01*
X50553Y-35504D01*
X50645Y-35282D01*
X50645Y-35041D01*
X50553Y-34819D01*
X50395Y-34661D01*
X50553Y-34504D01*
X50645Y-34282D01*
X50645Y-34041D01*
X50553Y-33819D01*
X50488Y-33753D01*
X54952Y-33753D01*
X55436Y-34238D01*
X55436Y-34281D01*
X55528Y-34503D01*
X55686Y-34661D01*
X55529Y-34818D01*
X55437Y-35040D01*
X55436Y-35281D01*
X55528Y-35503D01*
X55686Y-35661D01*
X55529Y-35818D01*
X55437Y-36040D01*
X55436Y-36281D01*
X55528Y-36503D01*
X55686Y-36661D01*
X55529Y-36818D01*
X55437Y-37040D01*
X55436Y-37281D01*
X55528Y-37503D01*
X55686Y-37661D01*
X55529Y-37818D01*
X55437Y-38040D01*
X55436Y-38281D01*
X55528Y-38503D01*
X55686Y-38661D01*
X55529Y-38818D01*
X55437Y-39040D01*
X55436Y-39281D01*
X55528Y-39503D01*
X55686Y-39661D01*
X55529Y-39818D01*
X55437Y-40040D01*
X55436Y-40281D01*
X55528Y-40503D01*
X55686Y-40661D01*
X55529Y-40818D01*
X55437Y-41040D01*
X55436Y-41281D01*
X55528Y-41503D01*
X55686Y-41661D01*
X55529Y-41818D01*
X55437Y-42040D01*
X55436Y-42281D01*
X55528Y-42503D01*
X55698Y-42673D01*
X55706Y-42676D01*
X55686Y-42736D01*
X56041Y-43090D01*
X56395Y-42736D01*
X56375Y-42677D01*
X56383Y-42674D01*
X56553Y-42504D01*
X56645Y-42282D01*
X56645Y-42041D01*
X56645Y-43151D01*
X56640Y-43015D01*
X56567Y-42840D01*
X56466Y-42806D01*
X56112Y-43161D01*
X56466Y-43515D01*
X56567Y-43481D01*
X56650Y-43256D01*
X56650Y-48793D01*
X56527Y-48793D01*
X56395Y-48661D01*
X56553Y-48504D01*
X56645Y-48282D01*
X56645Y-48041D01*
X56553Y-47819D01*
X56395Y-47661D01*
X56553Y-47504D01*
X56645Y-47282D01*
X56645Y-47041D01*
X56553Y-46819D01*
X56395Y-46661D01*
X56553Y-46504D01*
X56645Y-46282D01*
X56645Y-46041D01*
X56553Y-45819D01*
X56395Y-45661D01*
X56553Y-45504D01*
X56645Y-45282D01*
X56645Y-45041D01*
X56553Y-44819D01*
X56395Y-44661D01*
X56553Y-44504D01*
X56645Y-44282D01*
X56645Y-44041D01*
X56553Y-43819D01*
X56384Y-43649D01*
X56375Y-43645D01*
X56395Y-43586D01*
X56041Y-43232D01*
X55970Y-43302D01*
X55970Y-43161D01*
X55616Y-42806D01*
X55515Y-42840D01*
X55432Y-43066D01*
X55442Y-43306D01*
X55515Y-43481D01*
X55616Y-43515D01*
X55970Y-43161D01*
X55970Y-43302D01*
X55686Y-43586D01*
X55706Y-43645D01*
X55699Y-43648D01*
X55529Y-43818D01*
X55437Y-44040D01*
X55436Y-44281D01*
X55528Y-44503D01*
X55686Y-44661D01*
X55529Y-44818D01*
X55437Y-45040D01*
X55436Y-45281D01*
X55528Y-45503D01*
X55686Y-45661D01*
X55529Y-45818D01*
X55437Y-46040D01*
X55436Y-46281D01*
X55528Y-46503D01*
X55686Y-46661D01*
X55529Y-46818D01*
X55437Y-47040D01*
X55436Y-47281D01*
X55528Y-47503D01*
X55686Y-47661D01*
X55529Y-47818D01*
X55437Y-48040D01*
X55436Y-48281D01*
X55528Y-48503D01*
X55686Y-48661D01*
X55529Y-48818D01*
X55437Y-49040D01*
X55436Y-49281D01*
X55528Y-49503D01*
X55686Y-49661D01*
X55529Y-49818D01*
X55437Y-50040D01*
X55436Y-50281D01*
X55528Y-50503D01*
X55686Y-50661D01*
X55529Y-50818D01*
X55437Y-51040D01*
X55436Y-51281D01*
X55528Y-51503D01*
X55686Y-51661D01*
X55529Y-51818D01*
X55437Y-52040D01*
X55436Y-52281D01*
X55528Y-52503D01*
X55598Y-52573D01*
X55545Y-52595D01*
X55475Y-52665D01*
X55437Y-52757D01*
X55436Y-52856D01*
X55436Y-53565D01*
X55474Y-53657D01*
X55545Y-53727D01*
X55637Y-53765D01*
X55736Y-53765D01*
X56445Y-53765D01*
X56537Y-53727D01*
X56607Y-53657D01*
X56645Y-53565D01*
X56645Y-53466D01*
X56645Y-52757D01*
X56607Y-52665D01*
X56537Y-52595D01*
X56484Y-52573D01*
X56553Y-52504D01*
X56645Y-52282D01*
X56645Y-52041D01*
X56553Y-51819D01*
X56395Y-51661D01*
X56553Y-51504D01*
X56645Y-51282D01*
X56645Y-51041D01*
X56553Y-50819D01*
X56395Y-50661D01*
X56553Y-50504D01*
X56645Y-50282D01*
X56645Y-50041D01*
X56553Y-49819D01*
X56395Y-49661D01*
X56527Y-49529D01*
X58269Y-49529D01*
X58410Y-49501D01*
X58529Y-49421D01*
X59364Y-48587D01*
X59364Y-48587D01*
X59364Y-48587D01*
X59444Y-48467D01*
X59472Y-48326D01*
X59472Y-48326D01*
X59472Y-48326D01*
X59472Y-35270D01*
X59875Y-34867D01*
X59965Y-35085D01*
X60123Y-35244D01*
X59966Y-35401D01*
X59874Y-35623D01*
X59873Y-35863D01*
X59965Y-36085D01*
X60123Y-36244D01*
X59966Y-36401D01*
X59874Y-36623D01*
X59873Y-36863D01*
X59965Y-37085D01*
X60123Y-37244D01*
X59966Y-37401D01*
X59874Y-37623D01*
X59873Y-37863D01*
X59965Y-38085D01*
X60123Y-38244D01*
X59966Y-38401D01*
X59874Y-38623D01*
X59873Y-38863D01*
X59965Y-39085D01*
X60123Y-39244D01*
X59966Y-39401D01*
X59874Y-39623D01*
X59873Y-39863D01*
X59965Y-40085D01*
X60123Y-40244D01*
X59966Y-40401D01*
X59874Y-40623D01*
X59873Y-40863D01*
X59965Y-41085D01*
X60135Y-41256D01*
X60357Y-41348D01*
X60598Y-41348D01*
X60820Y-41256D01*
X60990Y-41086D01*
X61003Y-41056D01*
X61003Y-50914D01*
X58806Y-53112D01*
X58806Y-52440D01*
X58722Y-52238D01*
X58567Y-52083D01*
X58365Y-51999D01*
X58146Y-51999D01*
X57944Y-52082D01*
X57789Y-52237D01*
X57706Y-52439D01*
X57705Y-52658D01*
X57789Y-52860D01*
X57943Y-53015D01*
X58146Y-53099D01*
X58364Y-53099D01*
X58567Y-53015D01*
X58721Y-52861D01*
X58805Y-52659D01*
X58806Y-52440D01*
X58806Y-53112D01*
X57915Y-54002D01*
X57818Y-54147D01*
X57784Y-54318D01*
X57784Y-59197D01*
X57602Y-59379D01*
X57489Y-59651D01*
X57489Y-59946D01*
X57601Y-60219D01*
X57810Y-60428D01*
X58083Y-60541D01*
X58378Y-60542D01*
X58651Y-60429D01*
X58860Y-60220D01*
X58973Y-59948D01*
X58973Y-59653D01*
X58861Y-59380D01*
X58678Y-59197D01*
X58678Y-56917D01*
X58763Y-57124D01*
X58974Y-57335D01*
X59250Y-57449D01*
X59548Y-57450D01*
X59824Y-57336D01*
X60035Y-57125D01*
X60149Y-56849D01*
X60150Y-56551D01*
X60036Y-56275D01*
X59825Y-56064D01*
X59549Y-55950D01*
X59251Y-55949D01*
X58975Y-56063D01*
X58764Y-56274D01*
X58678Y-56482D01*
X58678Y-54950D01*
X58755Y-55138D01*
X58966Y-55349D01*
X59242Y-55463D01*
X59540Y-55464D01*
X59816Y-55350D01*
X60027Y-55139D01*
X60141Y-54863D01*
X60142Y-54565D01*
X60028Y-54289D01*
X59817Y-54078D01*
X59541Y-53964D01*
X59243Y-53963D01*
X59200Y-53981D01*
X61765Y-51415D01*
X61765Y-51415D01*
X61862Y-51271D01*
X61896Y-51100D01*
X61896Y-51100D01*
X61896Y-50880D01*
X61968Y-51054D01*
X62131Y-51217D01*
X62344Y-51306D01*
X62575Y-51306D01*
X62788Y-51218D01*
X62952Y-51055D01*
X63040Y-50842D01*
X63040Y-50611D01*
X62952Y-50398D01*
X62789Y-50234D01*
X62769Y-50226D01*
X62788Y-50218D01*
X62952Y-50055D01*
X63040Y-49842D01*
X63040Y-49611D01*
X62952Y-49398D01*
X62789Y-49234D01*
X62576Y-49146D01*
X62345Y-49146D01*
X62132Y-49234D01*
X61969Y-49397D01*
X61896Y-49571D01*
X61896Y-33794D01*
X62873Y-34771D01*
X62873Y-34863D01*
X62965Y-35085D01*
X63123Y-35244D01*
X62966Y-35401D01*
X62874Y-35623D01*
X62873Y-35863D01*
X62965Y-36085D01*
X63123Y-36244D01*
X62966Y-36401D01*
X62874Y-36623D01*
X62873Y-36863D01*
X62965Y-37085D01*
X63123Y-37244D01*
X62966Y-37401D01*
X62874Y-37623D01*
X62873Y-37863D01*
X62965Y-38085D01*
X63123Y-38244D01*
X62966Y-38401D01*
X62874Y-38623D01*
X62873Y-38863D01*
X62965Y-39085D01*
X63123Y-39244D01*
X62966Y-39401D01*
X62874Y-39623D01*
X62873Y-39863D01*
X62965Y-40085D01*
X63123Y-40244D01*
X62966Y-40401D01*
X62874Y-40623D01*
X62873Y-40863D01*
X62965Y-41085D01*
X63135Y-41256D01*
X63357Y-41348D01*
X63598Y-41348D01*
X63820Y-41256D01*
X63990Y-41086D01*
X64082Y-40864D01*
X64082Y-40624D01*
X63990Y-40402D01*
X63832Y-40243D01*
X63990Y-40086D01*
X64082Y-39864D01*
X64082Y-39624D01*
X63990Y-39402D01*
X63832Y-39243D01*
X63990Y-39086D01*
X64082Y-38864D01*
X64082Y-38624D01*
X63990Y-38402D01*
X63832Y-38243D01*
X63990Y-38086D01*
X64082Y-37864D01*
X64082Y-37624D01*
X63990Y-37402D01*
X63832Y-37243D01*
X63990Y-37086D01*
X64082Y-36864D01*
X64082Y-36624D01*
X63990Y-36402D01*
X63832Y-36243D01*
X63990Y-36086D01*
X64082Y-35864D01*
X64082Y-35624D01*
X63990Y-35402D01*
X63832Y-35243D01*
X63990Y-35086D01*
X64082Y-34864D01*
X64082Y-34624D01*
X63990Y-34402D01*
X63832Y-34243D01*
X63886Y-34190D01*
X63903Y-34190D01*
X64074Y-34156D01*
X64074Y-34156D01*
X64219Y-34060D01*
X65827Y-32451D01*
X65924Y-32306D01*
X65958Y-32135D01*
X65958Y-32135D01*
X65958Y-25981D01*
X65973Y-25966D01*
X66056Y-25766D01*
X66057Y-25549D01*
X66057Y-59468D01*
X66007Y-59447D01*
X65829Y-59447D01*
X65829Y-56230D01*
X65737Y-56008D01*
X65567Y-55837D01*
X65345Y-55745D01*
X65105Y-55745D01*
X64935Y-55815D01*
X64935Y-53399D01*
X64849Y-53192D01*
X64734Y-53076D01*
X64734Y-53076D01*
X64826Y-53038D01*
X64896Y-52968D01*
X64934Y-52876D01*
X64935Y-52777D01*
X64935Y-52147D01*
X64897Y-52055D01*
X64826Y-51985D01*
X64734Y-51946D01*
X64706Y-51946D01*
X64706Y-47805D01*
X64706Y-43238D01*
X64623Y-43037D01*
X64470Y-42884D01*
X64270Y-42801D01*
X64053Y-42801D01*
X63852Y-42883D01*
X63699Y-43037D01*
X63616Y-43237D01*
X63616Y-43454D01*
X63698Y-43654D01*
X63852Y-43808D01*
X64052Y-43891D01*
X64269Y-43891D01*
X64469Y-43808D01*
X64623Y-43655D01*
X64706Y-43455D01*
X64706Y-43238D01*
X64706Y-47805D01*
X64623Y-47604D01*
X64470Y-47451D01*
X64270Y-47368D01*
X64053Y-47368D01*
X63852Y-47450D01*
X63699Y-47604D01*
X63616Y-47804D01*
X63616Y-48021D01*
X63698Y-48221D01*
X63852Y-48375D01*
X64052Y-48458D01*
X64269Y-48458D01*
X64469Y-48375D01*
X64623Y-48222D01*
X64706Y-48022D01*
X64706Y-47805D01*
X64706Y-51946D01*
X64635Y-51946D01*
X64005Y-51946D01*
X63913Y-51984D01*
X63843Y-52055D01*
X63805Y-52146D01*
X63805Y-52246D01*
X63805Y-52876D01*
X63843Y-52968D01*
X63913Y-53038D01*
X64005Y-53076D01*
X64006Y-53076D01*
X63891Y-53191D01*
X63805Y-53398D01*
X63805Y-53623D01*
X63890Y-53831D01*
X64049Y-53990D01*
X64257Y-54076D01*
X64481Y-54076D01*
X64689Y-53991D01*
X64848Y-53832D01*
X64934Y-53624D01*
X64935Y-53399D01*
X64935Y-55815D01*
X64883Y-55837D01*
X64712Y-56007D01*
X64620Y-56229D01*
X64620Y-56469D01*
X64712Y-56691D01*
X64782Y-56761D01*
X64729Y-56783D01*
X64658Y-56853D01*
X64620Y-56945D01*
X64620Y-57045D01*
X64620Y-57753D01*
X64658Y-57845D01*
X64728Y-57916D01*
X64820Y-57954D01*
X64920Y-57954D01*
X65628Y-57954D01*
X65720Y-57916D01*
X65791Y-57846D01*
X65829Y-57754D01*
X65829Y-57654D01*
X65829Y-56946D01*
X65791Y-56854D01*
X65721Y-56783D01*
X65667Y-56761D01*
X65737Y-56692D01*
X65829Y-56470D01*
X65829Y-56230D01*
X65829Y-59447D01*
X65594Y-59447D01*
X65213Y-59604D01*
X64921Y-59896D01*
X64762Y-60277D01*
X64762Y-60690D01*
X64920Y-61071D01*
X65211Y-61363D01*
X65331Y-61413D01*
X63099Y-61413D01*
X63099Y-46034D01*
X63011Y-45821D01*
X62848Y-45658D01*
X62828Y-45649D01*
X62847Y-45641D01*
X63011Y-45478D01*
X63099Y-45265D01*
X63099Y-45034D01*
X63011Y-44821D01*
X62848Y-44658D01*
X62635Y-44569D01*
X62404Y-44569D01*
X62191Y-44657D01*
X62028Y-44820D01*
X61939Y-45033D01*
X61939Y-45264D01*
X62027Y-45477D01*
X62190Y-45641D01*
X62211Y-45649D01*
X62191Y-45657D01*
X62028Y-45820D01*
X61939Y-46033D01*
X61939Y-46264D01*
X62027Y-46477D01*
X62190Y-46641D01*
X62403Y-46729D01*
X62634Y-46729D01*
X62847Y-46641D01*
X63011Y-46478D01*
X63099Y-46265D01*
X63099Y-46034D01*
X63099Y-61413D01*
X62910Y-61413D01*
X62910Y-59653D01*
X62806Y-59399D01*
X62806Y-52440D01*
X62722Y-52238D01*
X62567Y-52083D01*
X62365Y-51999D01*
X62146Y-51999D01*
X61944Y-52082D01*
X61789Y-52237D01*
X61706Y-52439D01*
X61705Y-52658D01*
X61789Y-52860D01*
X61943Y-53015D01*
X62146Y-53099D01*
X62364Y-53099D01*
X62567Y-53015D01*
X62721Y-52861D01*
X62805Y-52659D01*
X62806Y-52440D01*
X62806Y-59399D01*
X62798Y-59380D01*
X62589Y-59171D01*
X62316Y-59058D01*
X62150Y-59057D01*
X62150Y-56551D01*
X62150Y-54551D01*
X62036Y-54275D01*
X61825Y-54064D01*
X61549Y-53950D01*
X61251Y-53949D01*
X60975Y-54063D01*
X60764Y-54274D01*
X60650Y-54550D01*
X60649Y-54848D01*
X60763Y-55124D01*
X60974Y-55335D01*
X61250Y-55449D01*
X61548Y-55450D01*
X61824Y-55336D01*
X62035Y-55125D01*
X62149Y-54849D01*
X62150Y-54551D01*
X62150Y-56551D01*
X62036Y-56275D01*
X61825Y-56064D01*
X61549Y-55950D01*
X61251Y-55949D01*
X60975Y-56063D01*
X60764Y-56274D01*
X60650Y-56550D01*
X60649Y-56848D01*
X60763Y-57124D01*
X60974Y-57335D01*
X61250Y-57449D01*
X61548Y-57450D01*
X61824Y-57336D01*
X62035Y-57125D01*
X62149Y-56849D01*
X62150Y-56551D01*
X62150Y-59057D01*
X62021Y-59057D01*
X61748Y-59170D01*
X61539Y-59379D01*
X61426Y-59651D01*
X61426Y-59946D01*
X61538Y-60219D01*
X61747Y-60428D01*
X62020Y-60541D01*
X62315Y-60542D01*
X62588Y-60429D01*
X62797Y-60220D01*
X62910Y-59948D01*
X62910Y-59653D01*
X62910Y-61413D01*
X60945Y-61413D01*
X60945Y-59927D01*
X60937Y-59632D01*
X60840Y-59396D01*
X60724Y-59345D01*
X60654Y-59416D01*
X60654Y-59275D01*
X60603Y-59159D01*
X60327Y-59054D01*
X60032Y-59062D01*
X59796Y-59159D01*
X59745Y-59275D01*
X60200Y-59729D01*
X60654Y-59275D01*
X60654Y-59416D01*
X60270Y-59800D01*
X60724Y-60254D01*
X60840Y-60203D01*
X60945Y-59927D01*
X60945Y-61413D01*
X60654Y-61413D01*
X60654Y-60324D01*
X60200Y-59870D01*
X60129Y-59941D01*
X60129Y-59800D01*
X59675Y-59345D01*
X59559Y-59396D01*
X59454Y-59672D01*
X59462Y-59967D01*
X59559Y-60203D01*
X59675Y-60254D01*
X60129Y-59800D01*
X60129Y-59941D01*
X59745Y-60324D01*
X59796Y-60440D01*
X60072Y-60545D01*
X60367Y-60537D01*
X60603Y-60440D01*
X60654Y-60324D01*
X60654Y-61413D01*
X57400Y-61413D01*
X57400Y-56380D01*
X57389Y-56163D01*
X57327Y-56014D01*
X57232Y-55988D01*
X57161Y-56058D01*
X57161Y-55917D01*
X57135Y-55822D01*
X56930Y-55749D01*
X56713Y-55760D01*
X56564Y-55822D01*
X56538Y-55917D01*
X56850Y-56229D01*
X57161Y-55917D01*
X57161Y-56058D01*
X56920Y-56300D01*
X57232Y-56611D01*
X57327Y-56585D01*
X57400Y-56380D01*
X57400Y-61413D01*
X57161Y-61413D01*
X57161Y-56682D01*
X56850Y-56370D01*
X56779Y-56441D01*
X56779Y-56300D01*
X56467Y-55988D01*
X56372Y-56014D01*
X56299Y-56219D01*
X56310Y-56436D01*
X56372Y-56585D01*
X56467Y-56611D01*
X56779Y-56300D01*
X56779Y-56441D01*
X56538Y-56682D01*
X56564Y-56777D01*
X56769Y-56850D01*
X56986Y-56839D01*
X57135Y-56777D01*
X57161Y-56682D01*
X57161Y-61413D01*
X57005Y-61413D01*
X57005Y-59653D01*
X56892Y-59380D01*
X56683Y-59171D01*
X56411Y-59058D01*
X56116Y-59057D01*
X55843Y-59170D01*
X55634Y-59379D01*
X55520Y-59651D01*
X55520Y-59946D01*
X55633Y-60219D01*
X55842Y-60428D01*
X56114Y-60541D01*
X56409Y-60542D01*
X56682Y-60429D01*
X56891Y-60220D01*
X57004Y-59948D01*
X57005Y-59653D01*
X57005Y-61413D01*
X52996Y-61413D01*
X52996Y-59874D01*
X52996Y-59205D01*
X52958Y-59113D01*
X52888Y-59043D01*
X52796Y-59005D01*
X52696Y-59005D01*
X52027Y-59005D01*
X51935Y-59043D01*
X51865Y-59113D01*
X51827Y-59205D01*
X51827Y-59250D01*
X51822Y-59249D01*
X51752Y-59320D01*
X51752Y-59178D01*
X51720Y-59079D01*
X51501Y-59000D01*
X51395Y-59005D01*
X51395Y-56192D01*
X51312Y-55991D01*
X51159Y-55838D01*
X50958Y-55754D01*
X50742Y-55754D01*
X50650Y-55792D01*
X50650Y-45256D01*
X50640Y-45015D01*
X50567Y-44840D01*
X50466Y-44806D01*
X50112Y-45161D01*
X50466Y-45515D01*
X50567Y-45481D01*
X50650Y-45256D01*
X50650Y-55792D01*
X50541Y-55837D01*
X50388Y-55990D01*
X50304Y-56191D01*
X50304Y-56407D01*
X50387Y-56608D01*
X50540Y-56761D01*
X50741Y-56845D01*
X50957Y-56845D01*
X51158Y-56762D01*
X51311Y-56609D01*
X51395Y-56408D01*
X51395Y-56192D01*
X51395Y-59005D01*
X51269Y-59010D01*
X51103Y-59079D01*
X51071Y-59178D01*
X51411Y-59519D01*
X51752Y-59178D01*
X51752Y-59320D01*
X51482Y-59589D01*
X51822Y-59930D01*
X51827Y-59928D01*
X51827Y-59973D01*
X51865Y-60065D01*
X51935Y-60136D01*
X52027Y-60174D01*
X52126Y-60174D01*
X52795Y-60174D01*
X52887Y-60136D01*
X52958Y-60066D01*
X52996Y-59974D01*
X52996Y-59874D01*
X52996Y-61413D01*
X51752Y-61413D01*
X51752Y-60000D01*
X51411Y-59660D01*
X51341Y-59731D01*
X51341Y-59589D01*
X51000Y-59249D01*
X50915Y-59276D01*
X50907Y-59259D01*
X50743Y-59094D01*
X50528Y-59005D01*
X50296Y-59005D01*
X50081Y-59093D01*
X49916Y-59258D01*
X49911Y-59269D01*
X49907Y-59259D01*
X49858Y-59209D01*
X49858Y-55938D01*
X49824Y-55767D01*
X49727Y-55622D01*
X49727Y-55622D01*
X49396Y-55291D01*
X49396Y-53035D01*
X49469Y-52962D01*
X49437Y-53040D01*
X49436Y-53281D01*
X49528Y-53503D01*
X49698Y-53673D01*
X49920Y-53765D01*
X50161Y-53765D01*
X50383Y-53674D01*
X50553Y-53504D01*
X50645Y-53282D01*
X50645Y-53041D01*
X50553Y-52819D01*
X50395Y-52661D01*
X50553Y-52504D01*
X50645Y-52282D01*
X50645Y-52041D01*
X50553Y-51819D01*
X50395Y-51661D01*
X50553Y-51504D01*
X50645Y-51282D01*
X50645Y-51041D01*
X50553Y-50819D01*
X50395Y-50661D01*
X50553Y-50504D01*
X50645Y-50282D01*
X50645Y-50041D01*
X50553Y-49819D01*
X50395Y-49661D01*
X50553Y-49504D01*
X50645Y-49282D01*
X50645Y-49041D01*
X50553Y-48819D01*
X50395Y-48661D01*
X50553Y-48504D01*
X50645Y-48282D01*
X50645Y-48041D01*
X50553Y-47819D01*
X50395Y-47661D01*
X50553Y-47504D01*
X50645Y-47282D01*
X50645Y-47041D01*
X50553Y-46819D01*
X50395Y-46661D01*
X50553Y-46504D01*
X50645Y-46282D01*
X50645Y-46041D01*
X50553Y-45819D01*
X50384Y-45649D01*
X50375Y-45645D01*
X50395Y-45586D01*
X50041Y-45232D01*
X49970Y-45302D01*
X49970Y-45161D01*
X49616Y-44806D01*
X49515Y-44840D01*
X49432Y-45066D01*
X49442Y-45306D01*
X49515Y-45481D01*
X49616Y-45515D01*
X49970Y-45161D01*
X49970Y-45302D01*
X49686Y-45586D01*
X49706Y-45645D01*
X49699Y-45648D01*
X49529Y-45818D01*
X49437Y-46040D01*
X49436Y-46281D01*
X49528Y-46503D01*
X49686Y-46661D01*
X49529Y-46818D01*
X49437Y-47040D01*
X49436Y-47281D01*
X49528Y-47503D01*
X49686Y-47661D01*
X49529Y-47818D01*
X49437Y-48040D01*
X49436Y-48281D01*
X49528Y-48503D01*
X49686Y-48661D01*
X49529Y-48818D01*
X49437Y-49040D01*
X49436Y-49281D01*
X49528Y-49503D01*
X49686Y-49661D01*
X49613Y-49734D01*
X49179Y-49734D01*
X49008Y-49768D01*
X48863Y-49865D01*
X46937Y-51790D01*
X46841Y-51935D01*
X46807Y-52106D01*
X46807Y-54007D01*
X46118Y-54696D01*
X46118Y-46462D01*
X45917Y-45974D01*
X45544Y-45601D01*
X45058Y-45399D01*
X44530Y-45399D01*
X44308Y-45491D01*
X44308Y-43177D01*
X44222Y-42969D01*
X44063Y-42810D01*
X44012Y-42789D01*
X44062Y-42768D01*
X44221Y-42609D01*
X44308Y-42402D01*
X44308Y-42177D01*
X44222Y-41969D01*
X44063Y-41810D01*
X44012Y-41789D01*
X44062Y-41768D01*
X44221Y-41609D01*
X44308Y-41402D01*
X44308Y-41177D01*
X44222Y-40969D01*
X44107Y-40854D01*
X44107Y-40854D01*
X44199Y-40816D01*
X44270Y-40746D01*
X44308Y-40654D01*
X44308Y-40554D01*
X44308Y-39924D01*
X44270Y-39832D01*
X44200Y-39762D01*
X44108Y-39724D01*
X44008Y-39724D01*
X43378Y-39724D01*
X43286Y-39762D01*
X43216Y-39832D01*
X43178Y-39924D01*
X43178Y-40023D01*
X43178Y-40653D01*
X43216Y-40745D01*
X43286Y-40816D01*
X43378Y-40854D01*
X43379Y-40854D01*
X43264Y-40968D01*
X43178Y-41176D01*
X43178Y-41401D01*
X43264Y-41608D01*
X43422Y-41768D01*
X43474Y-41789D01*
X43423Y-41810D01*
X43264Y-41968D01*
X43178Y-42176D01*
X43178Y-42401D01*
X43264Y-42608D01*
X43422Y-42768D01*
X43474Y-42789D01*
X43423Y-42810D01*
X43264Y-42968D01*
X43178Y-43176D01*
X43178Y-43401D01*
X43264Y-43608D01*
X43422Y-43768D01*
X43630Y-43854D01*
X43855Y-43854D01*
X44062Y-43768D01*
X44221Y-43609D01*
X44308Y-43402D01*
X44308Y-43177D01*
X44308Y-45491D01*
X44043Y-45600D01*
X43670Y-45972D01*
X43468Y-46459D01*
X43468Y-46986D01*
X43669Y-47473D01*
X44041Y-47847D01*
X44528Y-48049D01*
X45055Y-48049D01*
X45542Y-47848D01*
X45915Y-47475D01*
X46118Y-46989D01*
X46118Y-46462D01*
X46118Y-54696D01*
X45843Y-54971D01*
X45843Y-50305D01*
X45832Y-50088D01*
X45770Y-49939D01*
X45675Y-49912D01*
X45605Y-49983D01*
X45605Y-49841D01*
X45578Y-49747D01*
X45373Y-49674D01*
X45157Y-49685D01*
X45008Y-49747D01*
X44981Y-49841D01*
X45293Y-50153D01*
X45605Y-49841D01*
X45605Y-49983D01*
X45364Y-50224D01*
X45675Y-50536D01*
X45770Y-50509D01*
X45843Y-50305D01*
X45843Y-54971D01*
X45828Y-54986D01*
X44860Y-54986D01*
X44740Y-54866D01*
X44740Y-54548D01*
X44747Y-54540D01*
X44747Y-54569D01*
X44785Y-54661D01*
X44856Y-54731D01*
X44948Y-54769D01*
X45047Y-54769D01*
X45638Y-54769D01*
X45730Y-54731D01*
X45800Y-54661D01*
X45838Y-54569D01*
X45838Y-54470D01*
X45838Y-53879D01*
X45800Y-53787D01*
X45730Y-53717D01*
X45638Y-53679D01*
X45609Y-53679D01*
X45755Y-53533D01*
X45838Y-53333D01*
X45838Y-53116D01*
X45755Y-52915D01*
X45602Y-52762D01*
X45511Y-52724D01*
X45601Y-52686D01*
X45755Y-52533D01*
X45838Y-52333D01*
X45838Y-52116D01*
X45755Y-51915D01*
X45602Y-51762D01*
X45511Y-51724D01*
X45601Y-51686D01*
X45755Y-51533D01*
X45838Y-51333D01*
X45838Y-51116D01*
X45755Y-50915D01*
X45602Y-50762D01*
X45517Y-50727D01*
X45578Y-50701D01*
X45605Y-50606D01*
X45293Y-50295D01*
X44981Y-50606D01*
X45008Y-50701D01*
X45073Y-50725D01*
X44984Y-50761D01*
X44831Y-50915D01*
X44793Y-51006D01*
X44755Y-50915D01*
X44602Y-50762D01*
X44511Y-50724D01*
X44601Y-50686D01*
X44755Y-50533D01*
X44790Y-50448D01*
X44815Y-50509D01*
X44910Y-50536D01*
X45222Y-50224D01*
X44910Y-49912D01*
X44815Y-49939D01*
X44792Y-50004D01*
X44755Y-49915D01*
X44602Y-49762D01*
X44402Y-49679D01*
X44185Y-49679D01*
X43984Y-49761D01*
X43831Y-49915D01*
X43748Y-50115D01*
X43747Y-50332D01*
X43830Y-50532D01*
X43984Y-50686D01*
X44075Y-50724D01*
X43984Y-50761D01*
X43831Y-50915D01*
X43748Y-51115D01*
X43747Y-51332D01*
X43830Y-51532D01*
X43984Y-51686D01*
X44075Y-51724D01*
X43984Y-51761D01*
X43969Y-51777D01*
X43250Y-51777D01*
X43079Y-51811D01*
X42934Y-51908D01*
X42631Y-52211D01*
X42631Y-28539D01*
X42540Y-28317D01*
X42470Y-28247D01*
X42523Y-28225D01*
X42593Y-28155D01*
X42631Y-28063D01*
X42631Y-27964D01*
X42631Y-27255D01*
X42593Y-27163D01*
X42523Y-27093D01*
X42431Y-27055D01*
X42332Y-27055D01*
X41623Y-27055D01*
X41531Y-27093D01*
X41461Y-27163D01*
X41423Y-27255D01*
X41423Y-27354D01*
X41423Y-28063D01*
X41461Y-28155D01*
X41531Y-28225D01*
X41584Y-28247D01*
X41515Y-28316D01*
X41423Y-28538D01*
X41423Y-28779D01*
X41514Y-29001D01*
X41684Y-29171D01*
X41906Y-29263D01*
X42147Y-29263D01*
X42369Y-29172D01*
X42539Y-29002D01*
X42631Y-28780D01*
X42631Y-28539D01*
X42631Y-52211D01*
X42109Y-52734D01*
X42012Y-52878D01*
X41978Y-53050D01*
X41978Y-58775D01*
X42012Y-58946D01*
X42109Y-59090D01*
X43884Y-60865D01*
X43884Y-60865D01*
X44028Y-60962D01*
X44199Y-60996D01*
X44200Y-60996D01*
X48775Y-60996D01*
X48946Y-60962D01*
X48946Y-60962D01*
X49090Y-60865D01*
X49727Y-60229D01*
X49727Y-60229D01*
X49824Y-60084D01*
X49844Y-59983D01*
X49907Y-59921D01*
X49911Y-59910D01*
X49915Y-59920D01*
X50080Y-60085D01*
X50295Y-60174D01*
X50527Y-60174D01*
X50742Y-60085D01*
X50907Y-59921D01*
X50914Y-59902D01*
X51000Y-59930D01*
X51341Y-59589D01*
X51341Y-59731D01*
X51071Y-60000D01*
X51103Y-60099D01*
X51321Y-60179D01*
X51554Y-60168D01*
X51720Y-60099D01*
X51752Y-60000D01*
X51752Y-61413D01*
X41480Y-61413D01*
X41561Y-61379D01*
X41853Y-61088D01*
X42012Y-60707D01*
X42012Y-60294D01*
X41854Y-59913D01*
X41563Y-59621D01*
X41182Y-59462D01*
X40769Y-59462D01*
X40388Y-59620D01*
X40096Y-59911D01*
X40072Y-59967D01*
X40072Y-13666D01*
X40182Y-13930D01*
X40477Y-14226D01*
X40863Y-14386D01*
X41280Y-14386D01*
X41666Y-14227D01*
X41962Y-13932D01*
X42122Y-13546D01*
X42123Y-13128D01*
X41963Y-12742D01*
X41668Y-12446D01*
X41355Y-12316D01*
X65438Y-12316D01*
X65173Y-12426D01*
X64878Y-12721D01*
X64717Y-13107D01*
X64717Y-13524D01*
X64877Y-13910D01*
X65172Y-14206D01*
X65557Y-14366D01*
X65975Y-14367D01*
X66361Y-14207D01*
X66657Y-13912D01*
X66738Y-13717D01*
X66738Y-60038D01*
X66738Y-60038D01*
G37*
G54D31*
X66738Y-60038D02*
X66679Y-59897D01*
X66388Y-59605D01*
X66057Y-59468D01*
X66057Y-25549D01*
X66057Y-19549D01*
X65974Y-19349D01*
X65821Y-19195D01*
X65620Y-19112D01*
X65403Y-19112D01*
X65203Y-19194D01*
X65049Y-19348D01*
X64966Y-19548D01*
X64966Y-19765D01*
X65049Y-19965D01*
X65202Y-20119D01*
X65402Y-20202D01*
X65619Y-20202D01*
X65820Y-20120D01*
X65973Y-19966D01*
X66056Y-19766D01*
X66057Y-19549D01*
X66057Y-25549D01*
X65974Y-25349D01*
X65821Y-25195D01*
X65620Y-25112D01*
X65403Y-25112D01*
X65203Y-25194D01*
X65049Y-25348D01*
X64966Y-25548D01*
X64966Y-25765D01*
X65049Y-25965D01*
X65064Y-25981D01*
X65064Y-31950D01*
X64940Y-32075D01*
X64940Y-29085D01*
X64852Y-28872D01*
X64689Y-28709D01*
X64668Y-28700D01*
X64688Y-28692D01*
X64851Y-28529D01*
X64940Y-28316D01*
X64940Y-28085D01*
X64852Y-27872D01*
X64689Y-27709D01*
X64551Y-27652D01*
X64551Y-21531D01*
X64453Y-21295D01*
X64317Y-21159D01*
X64452Y-21024D01*
X64551Y-20788D01*
X64551Y-20531D01*
X64453Y-20295D01*
X64429Y-20270D01*
X64442Y-20265D01*
X64512Y-20194D01*
X64551Y-20103D01*
X64551Y-20003D01*
X64551Y-19216D01*
X64513Y-19124D01*
X64442Y-19053D01*
X64351Y-19015D01*
X64251Y-19015D01*
X63596Y-19015D01*
X63596Y-16383D01*
X63468Y-16074D01*
X63232Y-15837D01*
X62923Y-15709D01*
X62589Y-15709D01*
X62280Y-15837D01*
X62043Y-16073D01*
X61915Y-16382D01*
X61915Y-16716D01*
X62042Y-17025D01*
X62279Y-17262D01*
X62587Y-17390D01*
X62922Y-17390D01*
X63231Y-17263D01*
X63468Y-17026D01*
X63596Y-16717D01*
X63596Y-16383D01*
X63596Y-19015D01*
X63464Y-19015D01*
X63372Y-19053D01*
X63364Y-19061D01*
X63364Y-18679D01*
X63330Y-18508D01*
X63233Y-18363D01*
X61615Y-16746D01*
X61627Y-16717D01*
X61628Y-16383D01*
X61500Y-16074D01*
X61264Y-15837D01*
X60955Y-15709D01*
X60620Y-15709D01*
X60311Y-15837D01*
X60075Y-16073D01*
X59946Y-16382D01*
X59946Y-16716D01*
X60074Y-17025D01*
X60310Y-17262D01*
X60619Y-17390D01*
X60953Y-17390D01*
X60983Y-17378D01*
X62470Y-18865D01*
X62470Y-19181D01*
X62303Y-19112D01*
X62086Y-19112D01*
X61886Y-19194D01*
X61732Y-19348D01*
X61649Y-19548D01*
X61649Y-19765D01*
X61732Y-19965D01*
X61885Y-20119D01*
X62085Y-20202D01*
X62302Y-20202D01*
X62471Y-20133D01*
X62504Y-20296D01*
X62601Y-20441D01*
X63134Y-20975D01*
X63279Y-21072D01*
X63442Y-21104D01*
X63497Y-21159D01*
X63362Y-21294D01*
X63263Y-21530D01*
X63263Y-21786D01*
X63361Y-22023D01*
X63542Y-22204D01*
X63778Y-22303D01*
X64034Y-22303D01*
X64271Y-22205D01*
X64452Y-22024D01*
X64551Y-21788D01*
X64551Y-21531D01*
X64551Y-27652D01*
X64476Y-27620D01*
X64245Y-27620D01*
X64032Y-27708D01*
X63868Y-27871D01*
X63780Y-28084D01*
X63780Y-28315D01*
X63868Y-28528D01*
X64031Y-28692D01*
X64051Y-28700D01*
X64032Y-28708D01*
X63868Y-28871D01*
X63780Y-29084D01*
X63780Y-29315D01*
X63868Y-29528D01*
X64031Y-29692D01*
X64244Y-29780D01*
X64475Y-29780D01*
X64688Y-29692D01*
X64851Y-29529D01*
X64940Y-29316D01*
X64940Y-29085D01*
X64940Y-32075D01*
X64282Y-32733D01*
X64282Y-31515D01*
X64198Y-31312D01*
X64044Y-31158D01*
X63842Y-31074D01*
X63623Y-31073D01*
X63421Y-31157D01*
X63266Y-31312D01*
X63182Y-31514D01*
X63182Y-31732D01*
X63265Y-31935D01*
X63420Y-32090D01*
X63622Y-32173D01*
X63841Y-32174D01*
X64043Y-32090D01*
X64198Y-31935D01*
X64282Y-31733D01*
X64282Y-31515D01*
X64282Y-32733D01*
X63794Y-33221D01*
X63599Y-33139D01*
X63358Y-33139D01*
X63136Y-33231D01*
X62966Y-33401D01*
X62907Y-33541D01*
X62641Y-33275D01*
X62641Y-25981D01*
X62656Y-25966D01*
X62740Y-25766D01*
X62740Y-25549D01*
X62657Y-25349D01*
X62504Y-25195D01*
X62303Y-25112D01*
X62086Y-25112D01*
X61886Y-25194D01*
X61732Y-25348D01*
X61649Y-25548D01*
X61649Y-25765D01*
X61732Y-25965D01*
X61748Y-25981D01*
X61748Y-33007D01*
X60282Y-31542D01*
X60282Y-31515D01*
X60198Y-31312D01*
X60044Y-31158D01*
X59842Y-31074D01*
X59814Y-31074D01*
X59216Y-30476D01*
X60175Y-30476D01*
X60346Y-30442D01*
X60346Y-30442D01*
X60491Y-30345D01*
X61055Y-29780D01*
X61118Y-29780D01*
X61332Y-29692D01*
X61495Y-29529D01*
X61583Y-29316D01*
X61584Y-29085D01*
X61495Y-28872D01*
X61332Y-28709D01*
X61312Y-28700D01*
X61332Y-28692D01*
X61495Y-28529D01*
X61583Y-28316D01*
X61584Y-28085D01*
X61495Y-27872D01*
X61450Y-27827D01*
X61450Y-25610D01*
X61416Y-25439D01*
X61319Y-25294D01*
X61204Y-25179D01*
X61204Y-21531D01*
X61107Y-21295D01*
X60971Y-21159D01*
X61106Y-21024D01*
X61204Y-20788D01*
X61204Y-20531D01*
X61107Y-20295D01*
X61082Y-20270D01*
X61096Y-20265D01*
X61166Y-20194D01*
X61204Y-20103D01*
X61204Y-20003D01*
X61204Y-19216D01*
X61166Y-19124D01*
X61096Y-19053D01*
X61004Y-19015D01*
X60905Y-19015D01*
X60117Y-19015D01*
X60025Y-19053D01*
X59987Y-19092D01*
X59906Y-18971D01*
X59906Y-18971D01*
X59265Y-18330D01*
X59265Y-17274D01*
X59294Y-17263D01*
X59531Y-17026D01*
X59659Y-16717D01*
X59659Y-16383D01*
X59531Y-16074D01*
X59295Y-15837D01*
X58986Y-15709D01*
X58652Y-15709D01*
X58343Y-15837D01*
X58106Y-16073D01*
X57978Y-16382D01*
X57978Y-16716D01*
X58105Y-17025D01*
X58342Y-17262D01*
X58372Y-17274D01*
X58372Y-18515D01*
X58406Y-18686D01*
X58502Y-18831D01*
X58783Y-19112D01*
X58720Y-19112D01*
X58520Y-19194D01*
X58366Y-19348D01*
X58283Y-19548D01*
X58283Y-19765D01*
X58366Y-19965D01*
X58519Y-20119D01*
X58719Y-20202D01*
X58936Y-20202D01*
X59137Y-20120D01*
X59143Y-20113D01*
X59143Y-20232D01*
X59177Y-20403D01*
X59274Y-20548D01*
X59701Y-20975D01*
X59701Y-20975D01*
X59846Y-21072D01*
X60017Y-21106D01*
X60017Y-21106D01*
X60097Y-21106D01*
X60150Y-21159D01*
X60015Y-21294D01*
X59917Y-21530D01*
X59917Y-21786D01*
X60015Y-22023D01*
X60195Y-22204D01*
X60432Y-22303D01*
X60688Y-22303D01*
X60925Y-22205D01*
X61106Y-22024D01*
X61204Y-21788D01*
X61204Y-21531D01*
X61204Y-25179D01*
X59479Y-23453D01*
X59334Y-23356D01*
X59163Y-23322D01*
X57917Y-23322D01*
X57917Y-21531D01*
X57819Y-21295D01*
X57683Y-21159D01*
X57819Y-21024D01*
X57917Y-20788D01*
X57917Y-20531D01*
X57819Y-20295D01*
X57795Y-20270D01*
X57808Y-20265D01*
X57879Y-20194D01*
X57917Y-20103D01*
X57917Y-20003D01*
X57917Y-19216D01*
X57879Y-19124D01*
X57809Y-19053D01*
X57717Y-19015D01*
X57691Y-19015D01*
X57691Y-16383D01*
X57563Y-16074D01*
X57327Y-15837D01*
X57018Y-15709D01*
X56683Y-15709D01*
X56374Y-15837D01*
X56138Y-16073D01*
X56009Y-16382D01*
X56009Y-16716D01*
X56137Y-17025D01*
X56373Y-17262D01*
X56682Y-17390D01*
X57016Y-17390D01*
X57325Y-17263D01*
X57562Y-17026D01*
X57690Y-16717D01*
X57691Y-16383D01*
X57691Y-19015D01*
X57617Y-19015D01*
X56830Y-19015D01*
X56738Y-19053D01*
X56668Y-19123D01*
X56629Y-19215D01*
X56629Y-19315D01*
X56629Y-20102D01*
X56667Y-20194D01*
X56738Y-20264D01*
X56751Y-20270D01*
X56728Y-20294D01*
X56630Y-20530D01*
X56629Y-20786D01*
X56727Y-21023D01*
X56863Y-21159D01*
X56728Y-21294D01*
X56630Y-21530D01*
X56629Y-21786D01*
X56727Y-22023D01*
X56908Y-22204D01*
X57145Y-22303D01*
X57401Y-22303D01*
X57637Y-22205D01*
X57819Y-22024D01*
X57917Y-21788D01*
X57917Y-21531D01*
X57917Y-23322D01*
X55939Y-23322D01*
X55939Y-19549D01*
X55856Y-19349D01*
X55722Y-19215D01*
X55722Y-16383D01*
X55594Y-16074D01*
X55358Y-15837D01*
X55049Y-15709D01*
X54715Y-15709D01*
X54406Y-15837D01*
X54169Y-16073D01*
X54041Y-16382D01*
X54041Y-16716D01*
X54168Y-17025D01*
X54405Y-17262D01*
X54713Y-17390D01*
X55048Y-17390D01*
X55357Y-17263D01*
X55594Y-17026D01*
X55722Y-16717D01*
X55722Y-16383D01*
X55722Y-19215D01*
X55702Y-19195D01*
X55502Y-19112D01*
X55285Y-19112D01*
X55085Y-19194D01*
X54931Y-19348D01*
X54848Y-19548D01*
X54848Y-19765D01*
X54931Y-19965D01*
X55084Y-20119D01*
X55284Y-20202D01*
X55501Y-20202D01*
X55702Y-20120D01*
X55855Y-19966D01*
X55938Y-19766D01*
X55939Y-19549D01*
X55939Y-23322D01*
X54433Y-23322D01*
X54433Y-21531D01*
X54335Y-21295D01*
X54199Y-21159D01*
X54334Y-21024D01*
X54432Y-20788D01*
X54433Y-20531D01*
X54335Y-20295D01*
X54310Y-20270D01*
X54324Y-20265D01*
X54394Y-20194D01*
X54433Y-20103D01*
X54433Y-20003D01*
X54433Y-19216D01*
X54395Y-19124D01*
X54324Y-19053D01*
X54233Y-19015D01*
X54133Y-19015D01*
X53346Y-19015D01*
X53254Y-19053D01*
X53183Y-19123D01*
X53145Y-19215D01*
X53145Y-19315D01*
X53145Y-20102D01*
X53183Y-20194D01*
X53253Y-20264D01*
X53267Y-20270D01*
X53243Y-20294D01*
X53145Y-20530D01*
X53145Y-20786D01*
X53243Y-21023D01*
X53379Y-21159D01*
X53243Y-21294D01*
X53145Y-21530D01*
X53145Y-21786D01*
X53243Y-22023D01*
X53424Y-22204D01*
X53660Y-22303D01*
X53916Y-22303D01*
X54153Y-22205D01*
X54334Y-22024D01*
X54432Y-21788D01*
X54433Y-21531D01*
X54433Y-23322D01*
X50762Y-23322D01*
X50762Y-22286D01*
X50673Y-22071D01*
X50610Y-22007D01*
X50672Y-21945D01*
X50762Y-21730D01*
X50762Y-21498D01*
X50673Y-21283D01*
X50610Y-21220D01*
X50672Y-21158D01*
X50762Y-20943D01*
X50762Y-20711D01*
X50673Y-20496D01*
X50610Y-20432D01*
X50672Y-20370D01*
X50762Y-20155D01*
X50762Y-19923D01*
X50673Y-19708D01*
X50610Y-19645D01*
X50672Y-19583D01*
X50762Y-19368D01*
X50762Y-19136D01*
X50673Y-18921D01*
X50610Y-18858D01*
X50672Y-18796D01*
X50762Y-18581D01*
X50762Y-18349D01*
X50673Y-18134D01*
X50610Y-18070D01*
X50672Y-18008D01*
X50762Y-17793D01*
X50762Y-17561D01*
X50673Y-17346D01*
X50610Y-17283D01*
X50672Y-17221D01*
X50762Y-17006D01*
X50762Y-16774D01*
X50673Y-16559D01*
X50610Y-16495D01*
X50672Y-16433D01*
X50762Y-16218D01*
X50762Y-15986D01*
X50673Y-15771D01*
X50610Y-15708D01*
X50672Y-15646D01*
X50762Y-15431D01*
X50762Y-15199D01*
X50673Y-14984D01*
X50509Y-14819D01*
X50294Y-14730D01*
X50061Y-14730D01*
X49846Y-14819D01*
X49682Y-14983D01*
X49592Y-15198D01*
X49592Y-15430D01*
X49681Y-15645D01*
X49744Y-15708D01*
X49682Y-15770D01*
X49592Y-15985D01*
X49592Y-16217D01*
X49681Y-16432D01*
X49744Y-16495D01*
X49682Y-16558D01*
X49592Y-16773D01*
X49592Y-17005D01*
X49681Y-17220D01*
X49744Y-17283D01*
X49682Y-17345D01*
X49592Y-17560D01*
X49592Y-17792D01*
X49681Y-18007D01*
X49744Y-18070D01*
X49682Y-18133D01*
X49592Y-18348D01*
X49592Y-18580D01*
X49681Y-18795D01*
X49744Y-18858D01*
X49682Y-18920D01*
X49592Y-19135D01*
X49592Y-19367D01*
X49681Y-19582D01*
X49744Y-19645D01*
X49682Y-19707D01*
X49592Y-19922D01*
X49592Y-20154D01*
X49681Y-20369D01*
X49744Y-20432D01*
X49682Y-20495D01*
X49592Y-20710D01*
X49592Y-20942D01*
X49681Y-21157D01*
X49744Y-21220D01*
X49682Y-21282D01*
X49592Y-21497D01*
X49592Y-21729D01*
X49681Y-21944D01*
X49744Y-22007D01*
X49682Y-22070D01*
X49592Y-22285D01*
X49592Y-22517D01*
X49681Y-22732D01*
X49845Y-22897D01*
X50060Y-22986D01*
X50293Y-22986D01*
X50508Y-22897D01*
X50672Y-22733D01*
X50762Y-22518D01*
X50762Y-22286D01*
X50762Y-23322D01*
X50244Y-23322D01*
X42707Y-15785D01*
X42562Y-15689D01*
X42391Y-15655D01*
X42002Y-15655D01*
X42010Y-15646D01*
X42100Y-15431D01*
X42100Y-15199D01*
X42011Y-14984D01*
X41847Y-14819D01*
X41632Y-14730D01*
X41399Y-14730D01*
X41184Y-14819D01*
X41020Y-14983D01*
X40930Y-15198D01*
X40930Y-15430D01*
X41019Y-15645D01*
X41082Y-15708D01*
X41020Y-15770D01*
X40930Y-15985D01*
X40930Y-16217D01*
X41019Y-16432D01*
X41082Y-16495D01*
X41020Y-16558D01*
X40930Y-16773D01*
X40930Y-17005D01*
X41019Y-17220D01*
X41082Y-17283D01*
X41020Y-17345D01*
X40930Y-17560D01*
X40930Y-17792D01*
X41019Y-18007D01*
X41082Y-18070D01*
X41020Y-18133D01*
X40930Y-18348D01*
X40930Y-18580D01*
X41019Y-18795D01*
X41082Y-18858D01*
X41020Y-18920D01*
X40930Y-19135D01*
X40930Y-19367D01*
X41019Y-19582D01*
X41082Y-19645D01*
X41020Y-19707D01*
X40930Y-19922D01*
X40930Y-20154D01*
X41019Y-20369D01*
X41082Y-20432D01*
X41020Y-20495D01*
X40930Y-20710D01*
X40930Y-20942D01*
X41019Y-21157D01*
X41082Y-21220D01*
X41020Y-21282D01*
X40930Y-21497D01*
X40930Y-21729D01*
X41019Y-21944D01*
X41082Y-22007D01*
X41020Y-22070D01*
X40930Y-22285D01*
X40930Y-22517D01*
X41019Y-22732D01*
X41183Y-22897D01*
X41398Y-22986D01*
X41631Y-22986D01*
X41846Y-22897D01*
X42010Y-22733D01*
X42100Y-22518D01*
X42100Y-22286D01*
X42011Y-22071D01*
X41948Y-22007D01*
X42010Y-21945D01*
X42100Y-21730D01*
X42100Y-21498D01*
X42011Y-21283D01*
X41948Y-21220D01*
X42010Y-21158D01*
X42100Y-20943D01*
X42100Y-20711D01*
X42011Y-20496D01*
X41948Y-20432D01*
X42010Y-20370D01*
X42100Y-20155D01*
X42100Y-19923D01*
X42011Y-19708D01*
X41948Y-19645D01*
X42010Y-19583D01*
X42100Y-19368D01*
X42100Y-19136D01*
X42011Y-18921D01*
X41948Y-18858D01*
X42010Y-18796D01*
X42100Y-18581D01*
X42100Y-18349D01*
X42011Y-18134D01*
X41948Y-18070D01*
X42010Y-18008D01*
X42100Y-17793D01*
X42100Y-17561D01*
X42068Y-17483D01*
X49388Y-24804D01*
X49388Y-24804D01*
X49533Y-24901D01*
X49704Y-24935D01*
X55769Y-24935D01*
X57210Y-26376D01*
X57210Y-27827D01*
X57166Y-27871D01*
X57105Y-28017D01*
X55308Y-26219D01*
X55279Y-26200D01*
X55284Y-26202D01*
X55501Y-26202D01*
X55702Y-26120D01*
X55855Y-25966D01*
X55938Y-25766D01*
X55939Y-25549D01*
X55856Y-25349D01*
X55702Y-25195D01*
X55502Y-25112D01*
X55285Y-25112D01*
X55085Y-25194D01*
X54931Y-25348D01*
X54848Y-25548D01*
X54848Y-25765D01*
X54931Y-25965D01*
X55068Y-26103D01*
X54992Y-26088D01*
X47755Y-26088D01*
X47584Y-26122D01*
X47439Y-26219D01*
X46800Y-26859D01*
X46703Y-27004D01*
X46669Y-27175D01*
X46669Y-27304D01*
X46650Y-27323D01*
X46566Y-27525D01*
X46566Y-27744D01*
X46649Y-27946D01*
X46804Y-28101D01*
X47006Y-28185D01*
X47225Y-28185D01*
X47427Y-28102D01*
X47582Y-27947D01*
X47666Y-27745D01*
X47666Y-27526D01*
X47587Y-27335D01*
X47940Y-26982D01*
X54807Y-26982D01*
X57077Y-29252D01*
X57077Y-29315D01*
X57165Y-29528D01*
X57219Y-29582D01*
X54483Y-29582D01*
X54536Y-29529D01*
X54625Y-29316D01*
X54625Y-29085D01*
X54537Y-28872D01*
X54374Y-28709D01*
X54353Y-28700D01*
X54373Y-28692D01*
X54536Y-28529D01*
X54625Y-28316D01*
X54625Y-28085D01*
X54537Y-27872D01*
X54374Y-27709D01*
X54161Y-27620D01*
X53930Y-27620D01*
X53717Y-27708D01*
X53553Y-27871D01*
X53465Y-28084D01*
X53465Y-28315D01*
X53553Y-28528D01*
X53716Y-28692D01*
X53736Y-28700D01*
X53717Y-28708D01*
X53553Y-28871D01*
X53465Y-29084D01*
X53465Y-29315D01*
X53553Y-29528D01*
X53606Y-29582D01*
X50431Y-29582D01*
X50431Y-27526D01*
X50348Y-27324D01*
X50193Y-27169D01*
X49991Y-27085D01*
X49772Y-27085D01*
X49570Y-27169D01*
X49415Y-27323D01*
X49331Y-27525D01*
X49331Y-27744D01*
X49415Y-27946D01*
X49569Y-28101D01*
X49772Y-28185D01*
X49990Y-28185D01*
X50193Y-28102D01*
X50347Y-27947D01*
X50431Y-27745D01*
X50431Y-27526D01*
X50431Y-29582D01*
X50224Y-29582D01*
X48950Y-28309D01*
X48950Y-27966D01*
X48969Y-27947D01*
X49053Y-27745D01*
X49054Y-27526D01*
X48970Y-27324D01*
X48815Y-27169D01*
X48613Y-27085D01*
X48395Y-27085D01*
X48192Y-27169D01*
X48037Y-27323D01*
X47954Y-27525D01*
X47953Y-27744D01*
X48037Y-27946D01*
X48057Y-27966D01*
X48057Y-28494D01*
X48091Y-28665D01*
X48187Y-28810D01*
X49723Y-30345D01*
X49723Y-30345D01*
X49868Y-30442D01*
X50039Y-30476D01*
X50039Y-30476D01*
X51283Y-30476D01*
X50570Y-31188D01*
X50212Y-31188D01*
X50193Y-31169D01*
X49991Y-31085D01*
X49772Y-31085D01*
X49570Y-31169D01*
X49415Y-31323D01*
X49331Y-31525D01*
X49331Y-31744D01*
X49415Y-31946D01*
X49569Y-32101D01*
X49772Y-32185D01*
X49990Y-32185D01*
X50193Y-32102D01*
X50212Y-32082D01*
X50755Y-32082D01*
X50926Y-32048D01*
X50926Y-32048D01*
X51071Y-31951D01*
X51887Y-31135D01*
X51889Y-31135D01*
X51810Y-31327D01*
X51810Y-31545D01*
X51893Y-31748D01*
X52048Y-31903D01*
X52250Y-31986D01*
X52469Y-31987D01*
X52671Y-31903D01*
X52826Y-31748D01*
X52910Y-31546D01*
X52910Y-31328D01*
X52830Y-31135D01*
X55889Y-31135D01*
X55810Y-31327D01*
X55810Y-31545D01*
X55893Y-31748D01*
X56048Y-31903D01*
X56250Y-31986D01*
X56469Y-31987D01*
X56671Y-31903D01*
X56826Y-31748D01*
X56910Y-31546D01*
X56910Y-31328D01*
X56830Y-31135D01*
X58612Y-31135D01*
X59182Y-31705D01*
X59182Y-31732D01*
X59265Y-31935D01*
X59420Y-32090D01*
X59622Y-32173D01*
X59650Y-32173D01*
X60616Y-33139D01*
X60074Y-33139D01*
X59982Y-33177D01*
X59912Y-33247D01*
X59874Y-33339D01*
X59873Y-33439D01*
X59873Y-33827D01*
X58844Y-34857D01*
X58764Y-34977D01*
X58736Y-35118D01*
X58736Y-48174D01*
X58711Y-48199D01*
X58711Y-43427D01*
X58700Y-43210D01*
X58638Y-43061D01*
X58543Y-43034D01*
X58473Y-43105D01*
X58473Y-42963D01*
X58446Y-42869D01*
X58242Y-42796D01*
X58025Y-42807D01*
X57876Y-42869D01*
X57849Y-42963D01*
X58161Y-43275D01*
X58473Y-42963D01*
X58473Y-43105D01*
X58232Y-43346D01*
X58543Y-43658D01*
X58638Y-43631D01*
X58711Y-43427D01*
X58711Y-48199D01*
X58706Y-48203D01*
X58706Y-47805D01*
X58623Y-47604D01*
X58473Y-47453D01*
X58473Y-43728D01*
X58161Y-43417D01*
X58090Y-43487D01*
X58090Y-43346D01*
X57778Y-43034D01*
X57684Y-43061D01*
X57611Y-43265D01*
X57622Y-43482D01*
X57684Y-43631D01*
X57778Y-43658D01*
X58090Y-43346D01*
X58090Y-43487D01*
X57849Y-43728D01*
X57876Y-43823D01*
X58080Y-43896D01*
X58297Y-43885D01*
X58446Y-43823D01*
X58473Y-43728D01*
X58473Y-47453D01*
X58470Y-47451D01*
X58270Y-47368D01*
X58053Y-47368D01*
X57852Y-47450D01*
X57699Y-47604D01*
X57616Y-47804D01*
X57616Y-48021D01*
X57698Y-48221D01*
X57852Y-48375D01*
X58052Y-48458D01*
X58269Y-48458D01*
X58469Y-48375D01*
X58623Y-48222D01*
X58706Y-48022D01*
X58706Y-47805D01*
X58706Y-48203D01*
X58117Y-48793D01*
X56650Y-48793D01*
X56650Y-43256D01*
X56645Y-43151D01*
X56645Y-42041D01*
X56553Y-41819D01*
X56395Y-41661D01*
X56553Y-41504D01*
X56645Y-41282D01*
X56645Y-41041D01*
X56553Y-40819D01*
X56395Y-40661D01*
X56553Y-40504D01*
X56645Y-40282D01*
X56645Y-40041D01*
X56553Y-39819D01*
X56395Y-39661D01*
X56553Y-39504D01*
X56645Y-39282D01*
X56645Y-39041D01*
X56553Y-38819D01*
X56395Y-38661D01*
X56553Y-38504D01*
X56645Y-38282D01*
X56645Y-38041D01*
X56553Y-37819D01*
X56395Y-37661D01*
X56553Y-37504D01*
X56645Y-37282D01*
X56645Y-37041D01*
X56553Y-36819D01*
X56395Y-36661D01*
X56553Y-36504D01*
X56645Y-36282D01*
X56645Y-36041D01*
X56553Y-35819D01*
X56395Y-35661D01*
X56553Y-35504D01*
X56645Y-35282D01*
X56645Y-35041D01*
X56553Y-34819D01*
X56395Y-34661D01*
X56553Y-34504D01*
X56645Y-34282D01*
X56645Y-34041D01*
X56553Y-33819D01*
X56384Y-33649D01*
X56162Y-33557D01*
X56019Y-33557D01*
X55453Y-32991D01*
X55308Y-32894D01*
X55137Y-32860D01*
X49054Y-32860D01*
X49054Y-31526D01*
X48970Y-31324D01*
X48815Y-31169D01*
X48613Y-31085D01*
X48395Y-31085D01*
X48192Y-31169D01*
X48037Y-31323D01*
X47954Y-31525D01*
X47953Y-31744D01*
X48037Y-31946D01*
X48191Y-32101D01*
X48394Y-32185D01*
X48612Y-32185D01*
X48815Y-32102D01*
X48969Y-31947D01*
X49053Y-31745D01*
X49054Y-31526D01*
X49054Y-32860D01*
X48228Y-32860D01*
X48057Y-32894D01*
X47912Y-32991D01*
X47666Y-33237D01*
X47666Y-31526D01*
X47582Y-31324D01*
X47428Y-31169D01*
X47226Y-31085D01*
X47007Y-31085D01*
X46804Y-31169D01*
X46650Y-31323D01*
X46566Y-31525D01*
X46566Y-31744D01*
X46649Y-31946D01*
X46804Y-32101D01*
X47006Y-32185D01*
X47225Y-32185D01*
X47427Y-32102D01*
X47582Y-31947D01*
X47666Y-31745D01*
X47666Y-31526D01*
X47666Y-33237D01*
X44889Y-36013D01*
X44797Y-36013D01*
X44797Y-28618D01*
X44705Y-28396D01*
X44547Y-28238D01*
X44704Y-28080D01*
X44797Y-27858D01*
X44797Y-27618D01*
X44705Y-27396D01*
X44535Y-27226D01*
X44313Y-27133D01*
X44073Y-27133D01*
X43851Y-27225D01*
X43680Y-27395D01*
X43588Y-27617D01*
X43588Y-27857D01*
X43680Y-28080D01*
X43838Y-28238D01*
X43680Y-28395D01*
X43588Y-28617D01*
X43588Y-28857D01*
X43680Y-29080D01*
X43850Y-29250D01*
X44072Y-29342D01*
X44312Y-29342D01*
X44534Y-29250D01*
X44704Y-29080D01*
X44797Y-28858D01*
X44797Y-28618D01*
X44797Y-36013D01*
X44332Y-36013D01*
X44332Y-34550D01*
X44328Y-34449D01*
X44328Y-33344D01*
X44239Y-33129D01*
X44074Y-32965D01*
X44063Y-32960D01*
X44074Y-32956D01*
X44238Y-32792D01*
X44327Y-32577D01*
X44328Y-32344D01*
X44239Y-32129D01*
X44146Y-32037D01*
X44219Y-32007D01*
X44290Y-31936D01*
X44327Y-31844D01*
X44327Y-31076D01*
X44290Y-30984D01*
X44219Y-30914D01*
X44127Y-30876D01*
X44028Y-30875D01*
X43855Y-30875D01*
X43793Y-30938D01*
X43793Y-31410D01*
X44265Y-31410D01*
X44327Y-31348D01*
X44327Y-31076D01*
X44327Y-31844D01*
X44327Y-31573D01*
X44265Y-31510D01*
X43793Y-31510D01*
X43793Y-31518D01*
X43693Y-31518D01*
X43693Y-31510D01*
X43693Y-31410D01*
X43693Y-30938D01*
X43630Y-30875D01*
X43458Y-30875D01*
X43358Y-30876D01*
X43266Y-30914D01*
X43196Y-30984D01*
X43158Y-31076D01*
X43158Y-31348D01*
X43221Y-31410D01*
X43693Y-31410D01*
X43693Y-31510D01*
X43221Y-31510D01*
X43158Y-31573D01*
X43158Y-31844D01*
X43196Y-31936D01*
X43266Y-32007D01*
X43339Y-32037D01*
X43247Y-32129D01*
X43158Y-32343D01*
X43158Y-32576D01*
X43247Y-32791D01*
X43411Y-32955D01*
X43422Y-32960D01*
X43412Y-32964D01*
X43247Y-33129D01*
X43158Y-33343D01*
X43158Y-33576D01*
X43247Y-33791D01*
X43411Y-33955D01*
X43430Y-33963D01*
X43403Y-34049D01*
X43743Y-34389D01*
X44083Y-34049D01*
X44056Y-33963D01*
X44074Y-33956D01*
X44238Y-33792D01*
X44327Y-33577D01*
X44328Y-33344D01*
X44328Y-34449D01*
X44322Y-34318D01*
X44253Y-34151D01*
X44154Y-34120D01*
X43814Y-34460D01*
X44154Y-34800D01*
X44253Y-34769D01*
X44332Y-34550D01*
X44332Y-36013D01*
X44123Y-36013D01*
X44074Y-35965D01*
X44063Y-35960D01*
X44074Y-35956D01*
X44238Y-35792D01*
X44327Y-35577D01*
X44328Y-35344D01*
X44239Y-35129D01*
X44074Y-34965D01*
X44056Y-34957D01*
X44083Y-34871D01*
X43743Y-34531D01*
X43672Y-34602D01*
X43672Y-34460D01*
X43332Y-34120D01*
X43233Y-34151D01*
X43154Y-34370D01*
X43164Y-34602D01*
X43233Y-34769D01*
X43332Y-34800D01*
X43672Y-34460D01*
X43672Y-34602D01*
X43403Y-34871D01*
X43430Y-34957D01*
X43412Y-34964D01*
X43247Y-35129D01*
X43158Y-35343D01*
X43158Y-35576D01*
X43247Y-35791D01*
X43411Y-35955D01*
X43422Y-35960D01*
X43412Y-35964D01*
X43247Y-36129D01*
X43158Y-36343D01*
X43158Y-36576D01*
X43247Y-36791D01*
X43411Y-36955D01*
X43422Y-36960D01*
X43412Y-36964D01*
X43247Y-37129D01*
X43158Y-37343D01*
X43158Y-37576D01*
X43247Y-37791D01*
X43411Y-37955D01*
X43422Y-37960D01*
X43412Y-37964D01*
X43247Y-38129D01*
X43158Y-38343D01*
X43158Y-38576D01*
X43247Y-38791D01*
X43411Y-38955D01*
X43626Y-39045D01*
X43859Y-39045D01*
X44074Y-38956D01*
X44238Y-38792D01*
X44327Y-38577D01*
X44328Y-38344D01*
X44239Y-38129D01*
X44074Y-37965D01*
X44063Y-37960D01*
X44074Y-37956D01*
X44238Y-37792D01*
X44327Y-37577D01*
X44328Y-37344D01*
X44239Y-37129D01*
X44074Y-36965D01*
X44063Y-36960D01*
X44074Y-36956D01*
X44123Y-36907D01*
X45074Y-36907D01*
X45245Y-36873D01*
X45245Y-36873D01*
X45390Y-36776D01*
X48413Y-33753D01*
X49594Y-33753D01*
X49529Y-33818D01*
X49437Y-34040D01*
X49436Y-34281D01*
X49528Y-34503D01*
X49686Y-34661D01*
X49529Y-34818D01*
X49437Y-35040D01*
X49436Y-35281D01*
X49528Y-35503D01*
X49686Y-35661D01*
X49529Y-35818D01*
X49437Y-36040D01*
X49436Y-36281D01*
X49528Y-36503D01*
X49686Y-36661D01*
X49529Y-36818D01*
X49437Y-37040D01*
X49436Y-37281D01*
X49528Y-37503D01*
X49686Y-37661D01*
X49529Y-37818D01*
X49437Y-38040D01*
X49436Y-38281D01*
X49528Y-38503D01*
X49686Y-38661D01*
X49529Y-38818D01*
X49437Y-39040D01*
X49436Y-39281D01*
X49528Y-39503D01*
X49686Y-39661D01*
X49529Y-39818D01*
X49437Y-40040D01*
X49436Y-40281D01*
X49528Y-40503D01*
X49686Y-40661D01*
X49529Y-40818D01*
X49437Y-41040D01*
X49436Y-41281D01*
X49528Y-41503D01*
X49686Y-41661D01*
X49529Y-41818D01*
X49437Y-42040D01*
X49436Y-42281D01*
X49528Y-42503D01*
X49686Y-42661D01*
X49529Y-42818D01*
X49437Y-43040D01*
X49436Y-43281D01*
X49528Y-43503D01*
X49686Y-43661D01*
X49529Y-43818D01*
X49437Y-44040D01*
X49436Y-44281D01*
X49528Y-44503D01*
X49698Y-44673D01*
X49706Y-44676D01*
X49686Y-44736D01*
X50041Y-45090D01*
X50395Y-44736D01*
X50375Y-44677D01*
X50383Y-44674D01*
X50553Y-44504D01*
X50645Y-44282D01*
X50645Y-44041D01*
X50553Y-43819D01*
X50395Y-43661D01*
X50553Y-43504D01*
X50645Y-43282D01*
X50645Y-43041D01*
X50553Y-42819D01*
X50395Y-42661D01*
X50553Y-42504D01*
X50645Y-42282D01*
X50645Y-42041D01*
X50553Y-41819D01*
X50395Y-41661D01*
X50553Y-41504D01*
X50645Y-41282D01*
X50645Y-41041D01*
X50553Y-40819D01*
X50395Y-40661D01*
X50553Y-40504D01*
X50645Y-40282D01*
X50645Y-40041D01*
X50553Y-39819D01*
X50395Y-39661D01*
X50553Y-39504D01*
X50645Y-39282D01*
X50645Y-39041D01*
X50553Y-38819D01*
X50395Y-38661D01*
X50553Y-38504D01*
X50645Y-38282D01*
X50645Y-38041D01*
X50553Y-37819D01*
X50395Y-37661D01*
X50553Y-37504D01*
X50645Y-37282D01*
X50645Y-37041D01*
X50553Y-36819D01*
X50395Y-36661D01*
X50553Y-36504D01*
X50645Y-36282D01*
X50645Y-36041D01*
X50553Y-35819D01*
X50395Y-35661D01*
X50553Y-35504D01*
X50645Y-35282D01*
X50645Y-35041D01*
X50553Y-34819D01*
X50395Y-34661D01*
X50553Y-34504D01*
X50645Y-34282D01*
X50645Y-34041D01*
X50553Y-33819D01*
X50488Y-33753D01*
X54952Y-33753D01*
X55436Y-34238D01*
X55436Y-34281D01*
X55528Y-34503D01*
X55686Y-34661D01*
X55529Y-34818D01*
X55437Y-35040D01*
X55436Y-35281D01*
X55528Y-35503D01*
X55686Y-35661D01*
X55529Y-35818D01*
X55437Y-36040D01*
X55436Y-36281D01*
X55528Y-36503D01*
X55686Y-36661D01*
X55529Y-36818D01*
X55437Y-37040D01*
X55436Y-37281D01*
X55528Y-37503D01*
X55686Y-37661D01*
X55529Y-37818D01*
X55437Y-38040D01*
X55436Y-38281D01*
X55528Y-38503D01*
X55686Y-38661D01*
X55529Y-38818D01*
X55437Y-39040D01*
X55436Y-39281D01*
X55528Y-39503D01*
X55686Y-39661D01*
X55529Y-39818D01*
X55437Y-40040D01*
X55436Y-40281D01*
X55528Y-40503D01*
X55686Y-40661D01*
X55529Y-40818D01*
X55437Y-41040D01*
X55436Y-41281D01*
X55528Y-41503D01*
X55686Y-41661D01*
X55529Y-41818D01*
X55437Y-42040D01*
X55436Y-42281D01*
X55528Y-42503D01*
X55698Y-42673D01*
X55706Y-42676D01*
X55686Y-42736D01*
X56041Y-43090D01*
X56395Y-42736D01*
X56375Y-42677D01*
X56383Y-42674D01*
X56553Y-42504D01*
X56645Y-42282D01*
X56645Y-42041D01*
X56645Y-43151D01*
X56640Y-43015D01*
X56567Y-42840D01*
X56466Y-42806D01*
X56112Y-43161D01*
X56466Y-43515D01*
X56567Y-43481D01*
X56650Y-43256D01*
X56650Y-48793D01*
X56527Y-48793D01*
X56395Y-48661D01*
X56553Y-48504D01*
X56645Y-48282D01*
X56645Y-48041D01*
X56553Y-47819D01*
X56395Y-47661D01*
X56553Y-47504D01*
X56645Y-47282D01*
X56645Y-47041D01*
X56553Y-46819D01*
X56395Y-46661D01*
X56553Y-46504D01*
X56645Y-46282D01*
X56645Y-46041D01*
X56553Y-45819D01*
X56395Y-45661D01*
X56553Y-45504D01*
X56645Y-45282D01*
X56645Y-45041D01*
X56553Y-44819D01*
X56395Y-44661D01*
X56553Y-44504D01*
X56645Y-44282D01*
X56645Y-44041D01*
X56553Y-43819D01*
X56384Y-43649D01*
X56375Y-43645D01*
X56395Y-43586D01*
X56041Y-43232D01*
X55970Y-43302D01*
X55970Y-43161D01*
X55616Y-42806D01*
X55515Y-42840D01*
X55432Y-43066D01*
X55442Y-43306D01*
X55515Y-43481D01*
X55616Y-43515D01*
X55970Y-43161D01*
X55970Y-43302D01*
X55686Y-43586D01*
X55706Y-43645D01*
X55699Y-43648D01*
X55529Y-43818D01*
X55437Y-44040D01*
X55436Y-44281D01*
X55528Y-44503D01*
X55686Y-44661D01*
X55529Y-44818D01*
X55437Y-45040D01*
X55436Y-45281D01*
X55528Y-45503D01*
X55686Y-45661D01*
X55529Y-45818D01*
X55437Y-46040D01*
X55436Y-46281D01*
X55528Y-46503D01*
X55686Y-46661D01*
X55529Y-46818D01*
X55437Y-47040D01*
X55436Y-47281D01*
X55528Y-47503D01*
X55686Y-47661D01*
X55529Y-47818D01*
X55437Y-48040D01*
X55436Y-48281D01*
X55528Y-48503D01*
X55686Y-48661D01*
X55529Y-48818D01*
X55437Y-49040D01*
X55436Y-49281D01*
X55528Y-49503D01*
X55686Y-49661D01*
X55529Y-49818D01*
X55437Y-50040D01*
X55436Y-50281D01*
X55528Y-50503D01*
X55686Y-50661D01*
X55529Y-50818D01*
X55437Y-51040D01*
X55436Y-51281D01*
X55528Y-51503D01*
X55686Y-51661D01*
X55529Y-51818D01*
X55437Y-52040D01*
X55436Y-52281D01*
X55528Y-52503D01*
X55598Y-52573D01*
X55545Y-52595D01*
X55475Y-52665D01*
X55437Y-52757D01*
X55436Y-52856D01*
X55436Y-53565D01*
X55474Y-53657D01*
X55545Y-53727D01*
X55637Y-53765D01*
X55736Y-53765D01*
X56445Y-53765D01*
X56537Y-53727D01*
X56607Y-53657D01*
X56645Y-53565D01*
X56645Y-53466D01*
X56645Y-52757D01*
X56607Y-52665D01*
X56537Y-52595D01*
X56484Y-52573D01*
X56553Y-52504D01*
X56645Y-52282D01*
X56645Y-52041D01*
X56553Y-51819D01*
X56395Y-51661D01*
X56553Y-51504D01*
X56645Y-51282D01*
X56645Y-51041D01*
X56553Y-50819D01*
X56395Y-50661D01*
X56553Y-50504D01*
X56645Y-50282D01*
X56645Y-50041D01*
X56553Y-49819D01*
X56395Y-49661D01*
X56527Y-49529D01*
X58269Y-49529D01*
X58410Y-49501D01*
X58529Y-49421D01*
X59364Y-48587D01*
X59364Y-48587D01*
X59364Y-48587D01*
X59444Y-48467D01*
X59472Y-48326D01*
X59472Y-48326D01*
X59472Y-48326D01*
X59472Y-35270D01*
X59875Y-34867D01*
X59965Y-35085D01*
X60123Y-35244D01*
X59966Y-35401D01*
X59874Y-35623D01*
X59873Y-35863D01*
X59965Y-36085D01*
X60123Y-36244D01*
X59966Y-36401D01*
X59874Y-36623D01*
X59873Y-36863D01*
X59965Y-37085D01*
X60123Y-37244D01*
X59966Y-37401D01*
X59874Y-37623D01*
X59873Y-37863D01*
X59965Y-38085D01*
X60123Y-38244D01*
X59966Y-38401D01*
X59874Y-38623D01*
X59873Y-38863D01*
X59965Y-39085D01*
X60123Y-39244D01*
X59966Y-39401D01*
X59874Y-39623D01*
X59873Y-39863D01*
X59965Y-40085D01*
X60123Y-40244D01*
X59966Y-40401D01*
X59874Y-40623D01*
X59873Y-40863D01*
X59965Y-41085D01*
X60135Y-41256D01*
X60357Y-41348D01*
X60598Y-41348D01*
X60820Y-41256D01*
X60990Y-41086D01*
X61003Y-41056D01*
X61003Y-50914D01*
X58806Y-53112D01*
X58806Y-52440D01*
X58722Y-52238D01*
X58567Y-52083D01*
X58365Y-51999D01*
X58146Y-51999D01*
X57944Y-52082D01*
X57789Y-52237D01*
X57706Y-52439D01*
X57705Y-52658D01*
X57789Y-52860D01*
X57943Y-53015D01*
X58146Y-53099D01*
X58364Y-53099D01*
X58567Y-53015D01*
X58721Y-52861D01*
X58805Y-52659D01*
X58806Y-52440D01*
X58806Y-53112D01*
X57915Y-54002D01*
X57818Y-54147D01*
X57784Y-54318D01*
X57784Y-59197D01*
X57602Y-59379D01*
X57489Y-59651D01*
X57489Y-59946D01*
X57601Y-60219D01*
X57810Y-60428D01*
X58083Y-60541D01*
X58378Y-60542D01*
X58651Y-60429D01*
X58860Y-60220D01*
X58973Y-59948D01*
X58973Y-59653D01*
X58861Y-59380D01*
X58678Y-59197D01*
X58678Y-56917D01*
X58763Y-57124D01*
X58974Y-57335D01*
X59250Y-57449D01*
X59548Y-57450D01*
X59824Y-57336D01*
X60035Y-57125D01*
X60149Y-56849D01*
X60150Y-56551D01*
X60036Y-56275D01*
X59825Y-56064D01*
X59549Y-55950D01*
X59251Y-55949D01*
X58975Y-56063D01*
X58764Y-56274D01*
X58678Y-56482D01*
X58678Y-54950D01*
X58755Y-55138D01*
X58966Y-55349D01*
X59242Y-55463D01*
X59540Y-55464D01*
X59816Y-55350D01*
X60027Y-55139D01*
X60141Y-54863D01*
X60142Y-54565D01*
X60028Y-54289D01*
X59817Y-54078D01*
X59541Y-53964D01*
X59243Y-53963D01*
X59200Y-53981D01*
X61765Y-51415D01*
X61765Y-51415D01*
X61862Y-51271D01*
X61896Y-51100D01*
X61896Y-51100D01*
X61896Y-50880D01*
X61968Y-51054D01*
X62131Y-51217D01*
X62344Y-51306D01*
X62575Y-51306D01*
X62788Y-51218D01*
X62952Y-51055D01*
X63040Y-50842D01*
X63040Y-50611D01*
X62952Y-50398D01*
X62789Y-50234D01*
X62769Y-50226D01*
X62788Y-50218D01*
X62952Y-50055D01*
X63040Y-49842D01*
X63040Y-49611D01*
X62952Y-49398D01*
X62789Y-49234D01*
X62576Y-49146D01*
X62345Y-49146D01*
X62132Y-49234D01*
X61969Y-49397D01*
X61896Y-49571D01*
X61896Y-33794D01*
X62873Y-34771D01*
X62873Y-34863D01*
X62965Y-35085D01*
X63123Y-35244D01*
X62966Y-35401D01*
X62874Y-35623D01*
X62873Y-35863D01*
X62965Y-36085D01*
X63123Y-36244D01*
X62966Y-36401D01*
X62874Y-36623D01*
X62873Y-36863D01*
X62965Y-37085D01*
X63123Y-37244D01*
X62966Y-37401D01*
X62874Y-37623D01*
X62873Y-37863D01*
X62965Y-38085D01*
X63123Y-38244D01*
X62966Y-38401D01*
X62874Y-38623D01*
X62873Y-38863D01*
X62965Y-39085D01*
X63123Y-39244D01*
X62966Y-39401D01*
X62874Y-39623D01*
X62873Y-39863D01*
X62965Y-40085D01*
X63123Y-40244D01*
X62966Y-40401D01*
X62874Y-40623D01*
X62873Y-40863D01*
X62965Y-41085D01*
X63135Y-41256D01*
X63357Y-41348D01*
X63598Y-41348D01*
X63820Y-41256D01*
X63990Y-41086D01*
X64082Y-40864D01*
X64082Y-40624D01*
X63990Y-40402D01*
X63832Y-40243D01*
X63990Y-40086D01*
X64082Y-39864D01*
X64082Y-39624D01*
X63990Y-39402D01*
X63832Y-39243D01*
X63990Y-39086D01*
X64082Y-38864D01*
X64082Y-38624D01*
X63990Y-38402D01*
X63832Y-38243D01*
X63990Y-38086D01*
X64082Y-37864D01*
X64082Y-37624D01*
X63990Y-37402D01*
X63832Y-37243D01*
X63990Y-37086D01*
X64082Y-36864D01*
X64082Y-36624D01*
X63990Y-36402D01*
X63832Y-36243D01*
X63990Y-36086D01*
X64082Y-35864D01*
X64082Y-35624D01*
X63990Y-35402D01*
X63832Y-35243D01*
X63990Y-35086D01*
X64082Y-34864D01*
X64082Y-34624D01*
X63990Y-34402D01*
X63832Y-34243D01*
X63886Y-34190D01*
X63903Y-34190D01*
X64074Y-34156D01*
X64074Y-34156D01*
X64219Y-34060D01*
X65827Y-32451D01*
X65924Y-32306D01*
X65958Y-32135D01*
X65958Y-32135D01*
X65958Y-25981D01*
X65973Y-25966D01*
X66056Y-25766D01*
X66057Y-25549D01*
X66057Y-59468D01*
X66007Y-59447D01*
X65829Y-59447D01*
X65829Y-56230D01*
X65737Y-56008D01*
X65567Y-55837D01*
X65345Y-55745D01*
X65105Y-55745D01*
X64935Y-55815D01*
X64935Y-53399D01*
X64849Y-53192D01*
X64734Y-53076D01*
X64734Y-53076D01*
X64826Y-53038D01*
X64896Y-52968D01*
X64934Y-52876D01*
X64935Y-52777D01*
X64935Y-52147D01*
X64897Y-52055D01*
X64826Y-51985D01*
X64734Y-51946D01*
X64706Y-51946D01*
X64706Y-47805D01*
X64706Y-43238D01*
X64623Y-43037D01*
X64470Y-42884D01*
X64270Y-42801D01*
X64053Y-42801D01*
X63852Y-42883D01*
X63699Y-43037D01*
X63616Y-43237D01*
X63616Y-43454D01*
X63698Y-43654D01*
X63852Y-43808D01*
X64052Y-43891D01*
X64269Y-43891D01*
X64469Y-43808D01*
X64623Y-43655D01*
X64706Y-43455D01*
X64706Y-43238D01*
X64706Y-47805D01*
X64623Y-47604D01*
X64470Y-47451D01*
X64270Y-47368D01*
X64053Y-47368D01*
X63852Y-47450D01*
X63699Y-47604D01*
X63616Y-47804D01*
X63616Y-48021D01*
X63698Y-48221D01*
X63852Y-48375D01*
X64052Y-48458D01*
X64269Y-48458D01*
X64469Y-48375D01*
X64623Y-48222D01*
X64706Y-48022D01*
X64706Y-47805D01*
X64706Y-51946D01*
X64635Y-51946D01*
X64005Y-51946D01*
X63913Y-51984D01*
X63843Y-52055D01*
X63805Y-52146D01*
X63805Y-52246D01*
X63805Y-52876D01*
X63843Y-52968D01*
X63913Y-53038D01*
X64005Y-53076D01*
X64006Y-53076D01*
X63891Y-53191D01*
X63805Y-53398D01*
X63805Y-53623D01*
X63890Y-53831D01*
X64049Y-53990D01*
X64257Y-54076D01*
X64481Y-54076D01*
X64689Y-53991D01*
X64848Y-53832D01*
X64934Y-53624D01*
X64935Y-53399D01*
X64935Y-55815D01*
X64883Y-55837D01*
X64712Y-56007D01*
X64620Y-56229D01*
X64620Y-56469D01*
X64712Y-56691D01*
X64782Y-56761D01*
X64729Y-56783D01*
X64658Y-56853D01*
X64620Y-56945D01*
X64620Y-57045D01*
X64620Y-57753D01*
X64658Y-57845D01*
X64728Y-57916D01*
X64820Y-57954D01*
X64920Y-57954D01*
X65628Y-57954D01*
X65720Y-57916D01*
X65791Y-57846D01*
X65829Y-57754D01*
X65829Y-57654D01*
X65829Y-56946D01*
X65791Y-56854D01*
X65721Y-56783D01*
X65667Y-56761D01*
X65737Y-56692D01*
X65829Y-56470D01*
X65829Y-56230D01*
X65829Y-59447D01*
X65594Y-59447D01*
X65213Y-59604D01*
X64921Y-59896D01*
X64762Y-60277D01*
X64762Y-60690D01*
X64920Y-61071D01*
X65211Y-61363D01*
X65331Y-61413D01*
X63099Y-61413D01*
X63099Y-46034D01*
X63011Y-45821D01*
X62848Y-45658D01*
X62828Y-45649D01*
X62847Y-45641D01*
X63011Y-45478D01*
X63099Y-45265D01*
X63099Y-45034D01*
X63011Y-44821D01*
X62848Y-44658D01*
X62635Y-44569D01*
X62404Y-44569D01*
X62191Y-44657D01*
X62028Y-44820D01*
X61939Y-45033D01*
X61939Y-45264D01*
X62027Y-45477D01*
X62190Y-45641D01*
X62211Y-45649D01*
X62191Y-45657D01*
X62028Y-45820D01*
X61939Y-46033D01*
X61939Y-46264D01*
X62027Y-46477D01*
X62190Y-46641D01*
X62403Y-46729D01*
X62634Y-46729D01*
X62847Y-46641D01*
X63011Y-46478D01*
X63099Y-46265D01*
X63099Y-46034D01*
X63099Y-61413D01*
X62910Y-61413D01*
X62910Y-59653D01*
X62806Y-59399D01*
X62806Y-52440D01*
X62722Y-52238D01*
X62567Y-52083D01*
X62365Y-51999D01*
X62146Y-51999D01*
X61944Y-52082D01*
X61789Y-52237D01*
X61706Y-52439D01*
X61705Y-52658D01*
X61789Y-52860D01*
X61943Y-53015D01*
X62146Y-53099D01*
X62364Y-53099D01*
X62567Y-53015D01*
X62721Y-52861D01*
X62805Y-52659D01*
X62806Y-52440D01*
X62806Y-59399D01*
X62798Y-59380D01*
X62589Y-59171D01*
X62316Y-59058D01*
X62150Y-59057D01*
X62150Y-56551D01*
X62150Y-54551D01*
X62036Y-54275D01*
X61825Y-54064D01*
X61549Y-53950D01*
X61251Y-53949D01*
X60975Y-54063D01*
X60764Y-54274D01*
X60650Y-54550D01*
X60649Y-54848D01*
X60763Y-55124D01*
X60974Y-55335D01*
X61250Y-55449D01*
X61548Y-55450D01*
X61824Y-55336D01*
X62035Y-55125D01*
X62149Y-54849D01*
X62150Y-54551D01*
X62150Y-56551D01*
X62036Y-56275D01*
X61825Y-56064D01*
X61549Y-55950D01*
X61251Y-55949D01*
X60975Y-56063D01*
X60764Y-56274D01*
X60650Y-56550D01*
X60649Y-56848D01*
X60763Y-57124D01*
X60974Y-57335D01*
X61250Y-57449D01*
X61548Y-57450D01*
X61824Y-57336D01*
X62035Y-57125D01*
X62149Y-56849D01*
X62150Y-56551D01*
X62150Y-59057D01*
X62021Y-59057D01*
X61748Y-59170D01*
X61539Y-59379D01*
X61426Y-59651D01*
X61426Y-59946D01*
X61538Y-60219D01*
X61747Y-60428D01*
X62020Y-60541D01*
X62315Y-60542D01*
X62588Y-60429D01*
X62797Y-60220D01*
X62910Y-59948D01*
X62910Y-59653D01*
X62910Y-61413D01*
X60945Y-61413D01*
X60945Y-59927D01*
X60937Y-59632D01*
X60840Y-59396D01*
X60724Y-59345D01*
X60654Y-59416D01*
X60654Y-59275D01*
X60603Y-59159D01*
X60327Y-59054D01*
X60032Y-59062D01*
X59796Y-59159D01*
X59745Y-59275D01*
X60200Y-59729D01*
X60654Y-59275D01*
X60654Y-59416D01*
X60270Y-59800D01*
X60724Y-60254D01*
X60840Y-60203D01*
X60945Y-59927D01*
X60945Y-61413D01*
X60654Y-61413D01*
X60654Y-60324D01*
X60200Y-59870D01*
X60129Y-59941D01*
X60129Y-59800D01*
X59675Y-59345D01*
X59559Y-59396D01*
X59454Y-59672D01*
X59462Y-59967D01*
X59559Y-60203D01*
X59675Y-60254D01*
X60129Y-59800D01*
X60129Y-59941D01*
X59745Y-60324D01*
X59796Y-60440D01*
X60072Y-60545D01*
X60367Y-60537D01*
X60603Y-60440D01*
X60654Y-60324D01*
X60654Y-61413D01*
X57400Y-61413D01*
X57400Y-56380D01*
X57389Y-56163D01*
X57327Y-56014D01*
X57232Y-55988D01*
X57161Y-56058D01*
X57161Y-55917D01*
X57135Y-55822D01*
X56930Y-55749D01*
X56713Y-55760D01*
X56564Y-55822D01*
X56538Y-55917D01*
X56850Y-56229D01*
X57161Y-55917D01*
X57161Y-56058D01*
X56920Y-56300D01*
X57232Y-56611D01*
X57327Y-56585D01*
X57400Y-56380D01*
X57400Y-61413D01*
X57161Y-61413D01*
X57161Y-56682D01*
X56850Y-56370D01*
X56779Y-56441D01*
X56779Y-56300D01*
X56467Y-55988D01*
X56372Y-56014D01*
X56299Y-56219D01*
X56310Y-56436D01*
X56372Y-56585D01*
X56467Y-56611D01*
X56779Y-56300D01*
X56779Y-56441D01*
X56538Y-56682D01*
X56564Y-56777D01*
X56769Y-56850D01*
X56986Y-56839D01*
X57135Y-56777D01*
X57161Y-56682D01*
X57161Y-61413D01*
X57005Y-61413D01*
X57005Y-59653D01*
X56892Y-59380D01*
X56683Y-59171D01*
X56411Y-59058D01*
X56116Y-59057D01*
X55843Y-59170D01*
X55634Y-59379D01*
X55520Y-59651D01*
X55520Y-59946D01*
X55633Y-60219D01*
X55842Y-60428D01*
X56114Y-60541D01*
X56409Y-60542D01*
X56682Y-60429D01*
X56891Y-60220D01*
X57004Y-59948D01*
X57005Y-59653D01*
X57005Y-61413D01*
X52996Y-61413D01*
X52996Y-59874D01*
X52996Y-59205D01*
X52958Y-59113D01*
X52888Y-59043D01*
X52796Y-59005D01*
X52696Y-59005D01*
X52027Y-59005D01*
X51935Y-59043D01*
X51865Y-59113D01*
X51827Y-59205D01*
X51827Y-59250D01*
X51822Y-59249D01*
X51752Y-59320D01*
X51752Y-59178D01*
X51720Y-59079D01*
X51501Y-59000D01*
X51395Y-59005D01*
X51395Y-56192D01*
X51312Y-55991D01*
X51159Y-55838D01*
X50958Y-55754D01*
X50742Y-55754D01*
X50650Y-55792D01*
X50650Y-45256D01*
X50640Y-45015D01*
X50567Y-44840D01*
X50466Y-44806D01*
X50112Y-45161D01*
X50466Y-45515D01*
X50567Y-45481D01*
X50650Y-45256D01*
X50650Y-55792D01*
X50541Y-55837D01*
X50388Y-55990D01*
X50304Y-56191D01*
X50304Y-56407D01*
X50387Y-56608D01*
X50540Y-56761D01*
X50741Y-56845D01*
X50957Y-56845D01*
X51158Y-56762D01*
X51311Y-56609D01*
X51395Y-56408D01*
X51395Y-56192D01*
X51395Y-59005D01*
X51269Y-59010D01*
X51103Y-59079D01*
X51071Y-59178D01*
X51411Y-59519D01*
X51752Y-59178D01*
X51752Y-59320D01*
X51482Y-59589D01*
X51822Y-59930D01*
X51827Y-59928D01*
X51827Y-59973D01*
X51865Y-60065D01*
X51935Y-60136D01*
X52027Y-60174D01*
X52126Y-60174D01*
X52795Y-60174D01*
X52887Y-60136D01*
X52958Y-60066D01*
X52996Y-59974D01*
X52996Y-59874D01*
X52996Y-61413D01*
X51752Y-61413D01*
X51752Y-60000D01*
X51411Y-59660D01*
X51341Y-59731D01*
X51341Y-59589D01*
X51000Y-59249D01*
X50915Y-59276D01*
X50907Y-59259D01*
X50743Y-59094D01*
X50528Y-59005D01*
X50296Y-59005D01*
X50081Y-59093D01*
X49916Y-59258D01*
X49911Y-59269D01*
X49907Y-59259D01*
X49858Y-59209D01*
X49858Y-55938D01*
X49824Y-55767D01*
X49727Y-55622D01*
X49727Y-55622D01*
X49396Y-55291D01*
X49396Y-53035D01*
X49469Y-52962D01*
X49437Y-53040D01*
X49436Y-53281D01*
X49528Y-53503D01*
X49698Y-53673D01*
X49920Y-53765D01*
X50161Y-53765D01*
X50383Y-53674D01*
X50553Y-53504D01*
X50645Y-53282D01*
X50645Y-53041D01*
X50553Y-52819D01*
X50395Y-52661D01*
X50553Y-52504D01*
X50645Y-52282D01*
X50645Y-52041D01*
X50553Y-51819D01*
X50395Y-51661D01*
X50553Y-51504D01*
X50645Y-51282D01*
X50645Y-51041D01*
X50553Y-50819D01*
X50395Y-50661D01*
X50553Y-50504D01*
X50645Y-50282D01*
X50645Y-50041D01*
X50553Y-49819D01*
X50395Y-49661D01*
X50553Y-49504D01*
X50645Y-49282D01*
X50645Y-49041D01*
X50553Y-48819D01*
X50395Y-48661D01*
X50553Y-48504D01*
X50645Y-48282D01*
X50645Y-48041D01*
X50553Y-47819D01*
X50395Y-47661D01*
X50553Y-47504D01*
X50645Y-47282D01*
X50645Y-47041D01*
X50553Y-46819D01*
X50395Y-46661D01*
X50553Y-46504D01*
X50645Y-46282D01*
X50645Y-46041D01*
X50553Y-45819D01*
X50384Y-45649D01*
X50375Y-45645D01*
X50395Y-45586D01*
X50041Y-45232D01*
X49970Y-45302D01*
X49970Y-45161D01*
X49616Y-44806D01*
X49515Y-44840D01*
X49432Y-45066D01*
X49442Y-45306D01*
X49515Y-45481D01*
X49616Y-45515D01*
X49970Y-45161D01*
X49970Y-45302D01*
X49686Y-45586D01*
X49706Y-45645D01*
X49699Y-45648D01*
X49529Y-45818D01*
X49437Y-46040D01*
X49436Y-46281D01*
X49528Y-46503D01*
X49686Y-46661D01*
X49529Y-46818D01*
X49437Y-47040D01*
X49436Y-47281D01*
X49528Y-47503D01*
X49686Y-47661D01*
X49529Y-47818D01*
X49437Y-48040D01*
X49436Y-48281D01*
X49528Y-48503D01*
X49686Y-48661D01*
X49529Y-48818D01*
X49437Y-49040D01*
X49436Y-49281D01*
X49528Y-49503D01*
X49686Y-49661D01*
X49613Y-49734D01*
X49179Y-49734D01*
X49008Y-49768D01*
X48863Y-49865D01*
X46937Y-51790D01*
X46841Y-51935D01*
X46807Y-52106D01*
X46807Y-54007D01*
X46118Y-54696D01*
X46118Y-46462D01*
X45917Y-45974D01*
X45544Y-45601D01*
X45058Y-45399D01*
X44530Y-45399D01*
X44308Y-45491D01*
X44308Y-43177D01*
X44222Y-42969D01*
X44063Y-42810D01*
X44012Y-42789D01*
X44062Y-42768D01*
X44221Y-42609D01*
X44308Y-42402D01*
X44308Y-42177D01*
X44222Y-41969D01*
X44063Y-41810D01*
X44012Y-41789D01*
X44062Y-41768D01*
X44221Y-41609D01*
X44308Y-41402D01*
X44308Y-41177D01*
X44222Y-40969D01*
X44107Y-40854D01*
X44107Y-40854D01*
X44199Y-40816D01*
X44270Y-40746D01*
X44308Y-40654D01*
X44308Y-40554D01*
X44308Y-39924D01*
X44270Y-39832D01*
X44200Y-39762D01*
X44108Y-39724D01*
X44008Y-39724D01*
X43378Y-39724D01*
X43286Y-39762D01*
X43216Y-39832D01*
X43178Y-39924D01*
X43178Y-40023D01*
X43178Y-40653D01*
X43216Y-40745D01*
X43286Y-40816D01*
X43378Y-40854D01*
X43379Y-40854D01*
X43264Y-40968D01*
X43178Y-41176D01*
X43178Y-41401D01*
X43264Y-41608D01*
X43422Y-41768D01*
X43474Y-41789D01*
X43423Y-41810D01*
X43264Y-41968D01*
X43178Y-42176D01*
X43178Y-42401D01*
X43264Y-42608D01*
X43422Y-42768D01*
X43474Y-42789D01*
X43423Y-42810D01*
X43264Y-42968D01*
X43178Y-43176D01*
X43178Y-43401D01*
X43264Y-43608D01*
X43422Y-43768D01*
X43630Y-43854D01*
X43855Y-43854D01*
X44062Y-43768D01*
X44221Y-43609D01*
X44308Y-43402D01*
X44308Y-43177D01*
X44308Y-45491D01*
X44043Y-45600D01*
X43670Y-45972D01*
X43468Y-46459D01*
X43468Y-46986D01*
X43669Y-47473D01*
X44041Y-47847D01*
X44528Y-48049D01*
X45055Y-48049D01*
X45542Y-47848D01*
X45915Y-47475D01*
X46118Y-46989D01*
X46118Y-46462D01*
X46118Y-54696D01*
X45843Y-54971D01*
X45843Y-50305D01*
X45832Y-50088D01*
X45770Y-49939D01*
X45675Y-49912D01*
X45605Y-49983D01*
X45605Y-49841D01*
X45578Y-49747D01*
X45373Y-49674D01*
X45157Y-49685D01*
X45008Y-49747D01*
X44981Y-49841D01*
X45293Y-50153D01*
X45605Y-49841D01*
X45605Y-49983D01*
X45364Y-50224D01*
X45675Y-50536D01*
X45770Y-50509D01*
X45843Y-50305D01*
X45843Y-54971D01*
X45828Y-54986D01*
X44860Y-54986D01*
X44740Y-54866D01*
X44740Y-54548D01*
X44747Y-54540D01*
X44747Y-54569D01*
X44785Y-54661D01*
X44856Y-54731D01*
X44948Y-54769D01*
X45047Y-54769D01*
X45638Y-54769D01*
X45730Y-54731D01*
X45800Y-54661D01*
X45838Y-54569D01*
X45838Y-54470D01*
X45838Y-53879D01*
X45800Y-53787D01*
X45730Y-53717D01*
X45638Y-53679D01*
X45609Y-53679D01*
X45755Y-53533D01*
X45838Y-53333D01*
X45838Y-53116D01*
X45755Y-52915D01*
X45602Y-52762D01*
X45511Y-52724D01*
X45601Y-52686D01*
X45755Y-52533D01*
X45838Y-52333D01*
X45838Y-52116D01*
X45755Y-51915D01*
X45602Y-51762D01*
X45511Y-51724D01*
X45601Y-51686D01*
X45755Y-51533D01*
X45838Y-51333D01*
X45838Y-51116D01*
X45755Y-50915D01*
X45602Y-50762D01*
X45517Y-50727D01*
X45578Y-50701D01*
X45605Y-50606D01*
X45293Y-50295D01*
X44981Y-50606D01*
X45008Y-50701D01*
X45073Y-50725D01*
X44984Y-50761D01*
X44831Y-50915D01*
X44793Y-51006D01*
X44755Y-50915D01*
X44602Y-50762D01*
X44511Y-50724D01*
X44601Y-50686D01*
X44755Y-50533D01*
X44790Y-50448D01*
X44815Y-50509D01*
X44910Y-50536D01*
X45222Y-50224D01*
X44910Y-49912D01*
X44815Y-49939D01*
X44792Y-50004D01*
X44755Y-49915D01*
X44602Y-49762D01*
X44402Y-49679D01*
X44185Y-49679D01*
X43984Y-49761D01*
X43831Y-49915D01*
X43748Y-50115D01*
X43747Y-50332D01*
X43830Y-50532D01*
X43984Y-50686D01*
X44075Y-50724D01*
X43984Y-50761D01*
X43831Y-50915D01*
X43748Y-51115D01*
X43747Y-51332D01*
X43830Y-51532D01*
X43984Y-51686D01*
X44075Y-51724D01*
X43984Y-51761D01*
X43969Y-51777D01*
X43250Y-51777D01*
X43079Y-51811D01*
X42934Y-51908D01*
X42631Y-52211D01*
X42631Y-28539D01*
X42540Y-28317D01*
X42470Y-28247D01*
X42523Y-28225D01*
X42593Y-28155D01*
X42631Y-28063D01*
X42631Y-27964D01*
X42631Y-27255D01*
X42593Y-27163D01*
X42523Y-27093D01*
X42431Y-27055D01*
X42332Y-27055D01*
X41623Y-27055D01*
X41531Y-27093D01*
X41461Y-27163D01*
X41423Y-27255D01*
X41423Y-27354D01*
X41423Y-28063D01*
X41461Y-28155D01*
X41531Y-28225D01*
X41584Y-28247D01*
X41515Y-28316D01*
X41423Y-28538D01*
X41423Y-28779D01*
X41514Y-29001D01*
X41684Y-29171D01*
X41906Y-29263D01*
X42147Y-29263D01*
X42369Y-29172D01*
X42539Y-29002D01*
X42631Y-28780D01*
X42631Y-28539D01*
X42631Y-52211D01*
X42109Y-52734D01*
X42012Y-52878D01*
X41978Y-53050D01*
X41978Y-58775D01*
X42012Y-58946D01*
X42109Y-59090D01*
X43884Y-60865D01*
X43884Y-60865D01*
X44028Y-60962D01*
X44199Y-60996D01*
X44200Y-60996D01*
X48775Y-60996D01*
X48946Y-60962D01*
X48946Y-60962D01*
X49090Y-60865D01*
X49727Y-60229D01*
X49727Y-60229D01*
X49824Y-60084D01*
X49844Y-59983D01*
X49907Y-59921D01*
X49911Y-59910D01*
X49915Y-59920D01*
X50080Y-60085D01*
X50295Y-60174D01*
X50527Y-60174D01*
X50742Y-60085D01*
X50907Y-59921D01*
X50914Y-59902D01*
X51000Y-59930D01*
X51341Y-59589D01*
X51341Y-59731D01*
X51071Y-60000D01*
X51103Y-60099D01*
X51321Y-60179D01*
X51554Y-60168D01*
X51720Y-60099D01*
X51752Y-60000D01*
X51752Y-61413D01*
X41480Y-61413D01*
X41561Y-61379D01*
X41853Y-61088D01*
X42012Y-60707D01*
X42012Y-60294D01*
X41854Y-59913D01*
X41563Y-59621D01*
X41182Y-59462D01*
X40769Y-59462D01*
X40388Y-59620D01*
X40096Y-59911D01*
X40072Y-59967D01*
X40072Y-13666D01*
X40182Y-13930D01*
X40477Y-14226D01*
X40863Y-14386D01*
X41280Y-14386D01*
X41666Y-14227D01*
X41962Y-13932D01*
X42122Y-13546D01*
X42123Y-13128D01*
X41963Y-12742D01*
X41668Y-12446D01*
X41355Y-12316D01*
X65438Y-12316D01*
X65173Y-12426D01*
X64878Y-12721D01*
X64717Y-13107D01*
X64717Y-13524D01*
X64877Y-13910D01*
X65172Y-14206D01*
X65557Y-14366D01*
X65975Y-14367D01*
X66361Y-14207D01*
X66657Y-13912D01*
X66738Y-13717D01*
X66738Y-60038D01*
M02*
